<svg width="20" height="20" viewBox="0 0 20 20" fill="none" xmlns="http://www.w3.org/2000/svg">
<rect width="20" height="20" rx="6" fill="#5182A6"/>
<path d="M15.782 8.06245H14.1286C14.4862 8.68217 14.6294 9.40259 14.5358 10.112C14.4423 10.8213 14.1172 11.48 13.6111 11.9858C13.1785 12.4271 12.6153 12.845 11.9937 13.2305C11.9548 13.2541 11.9091 13.2641 11.8639 13.2586C11.8187 13.2532 11.7766 13.2327 11.7444 13.2005L9.97518 11.4313C9.9367 11.3928 9.89087 11.3624 9.84042 11.342C9.78997 11.3215 9.73593 11.3114 9.68151 11.3123C9.62708 11.3131 9.57338 11.3249 9.5236 11.3469C9.47381 11.3689 9.42896 11.4007 9.3917 11.4404C9.32001 11.5209 9.28215 11.6259 9.28603 11.7335C9.28991 11.8412 9.33523 11.9432 9.41252 12.0183L10.9299 13.5357C10.9525 13.5583 10.9695 13.5859 10.9795 13.6164C10.9894 13.6468 10.992 13.6792 10.9871 13.7108C10.9821 13.7425 10.9697 13.7725 10.951 13.7984C10.9322 13.8244 10.9076 13.8455 10.8791 13.8601C8.86256 14.9073 6.69217 15.6055 6.37631 15.704C6.22521 15.7744 6.05612 15.7966 5.89197 15.7676C5.72782 15.7387 5.57655 15.6599 5.45868 15.542C5.34081 15.4242 5.26205 15.2729 5.23307 15.1087C5.2041 14.9446 5.22631 14.7755 5.2967 14.6244C5.43534 14.1821 6.76936 10.0404 8.59038 7.85272C8.60847 7.83108 8.63088 7.81344 8.65617 7.80093C8.68146 7.78843 8.70908 7.78132 8.73727 7.78008C8.76546 7.77884 8.79359 7.78348 8.81989 7.79372C8.84618 7.80395 8.87005 7.81955 8.88999 7.83952L11.0253 9.97538C11.0648 10.0149 11.112 10.0458 11.164 10.0662C11.216 10.0866 11.2716 10.0961 11.3274 10.094C11.3832 10.092 11.438 10.0784 11.4883 10.0543C11.5387 10.0301 11.5835 9.99581 11.62 9.95354C11.6867 9.87298 11.7207 9.77022 11.715 9.66575C11.7094 9.56128 11.6646 9.46277 11.5895 9.38987L9.4892 7.28956C9.46779 7.26823 9.4514 7.2424 9.44124 7.21393C9.43107 7.18547 9.42739 7.15509 9.43045 7.12503C9.43352 7.09496 9.44326 7.06595 9.45895 7.04012C9.47465 7.0143 9.49592 6.9923 9.5212 6.97573C10.0251 6.64314 10.6116 6.45747 11.215 6.43953C11.8185 6.42159 12.415 6.57209 12.9378 6.87417V5.2187C12.9376 5.16296 12.949 5.1078 12.9711 5.05663C12.9932 5.00546 13.0256 4.9594 13.0663 4.92129C13.1069 4.88319 13.155 4.85386 13.2075 4.83513C13.26 4.81641 13.3158 4.80869 13.3714 4.81245C13.4761 4.82156 13.5735 4.87 13.6439 4.94803C13.7142 5.02605 13.7524 5.12785 13.7508 5.23292V6.67561L15.0883 5.33753C15.1261 5.29978 15.1709 5.26984 15.2202 5.24942C15.2695 5.22899 15.3224 5.21847 15.3758 5.21847C15.4291 5.21847 15.482 5.22899 15.5313 5.24942C15.5806 5.26984 15.6254 5.29978 15.6632 5.33753C15.7009 5.37527 15.7309 5.42008 15.7513 5.4694C15.7717 5.51871 15.7822 5.57157 15.7822 5.62495C15.7822 5.67833 15.7717 5.73119 15.7513 5.7805C15.7309 5.82982 15.7009 5.87463 15.6632 5.91237L14.3251 7.24995H15.7678C15.8729 7.24827 15.9747 7.28647 16.0527 7.35686C16.1307 7.42725 16.1792 7.5246 16.1883 7.62929C16.192 7.68486 16.1842 7.74059 16.1654 7.79303C16.1467 7.84547 16.1173 7.89349 16.0792 7.93411C16.0411 7.97473 15.9951 8.00709 15.944 8.02916C15.8928 8.05124 15.8377 8.06257 15.782 8.06245Z" fill="#F5F9FF"/>
</svg>
