<svg width="119" height="145" viewBox="0 0 119 145" fill="none" xmlns="http://www.w3.org/2000/svg">
<path d="M50.5891 5.4128C52.2603 5.09277 53.979 4.87942 55.7273 4.79053L56.0591 10.6577C54.5894 10.7407 53.0959 10.9125 51.6084 11.2266C43.0862 13.1883 37.0412 18.605 36.8338 30.6949C36.5968 43.656 40.7927 59.2366 47.6555 76.4588L42.5647 78.3671C35.8145 60.7479 31.3045 44.4146 31.666 29.9186C32.0867 14.9603 39.72 7.43964 50.5891 5.4128Z" fill="#DAE7FC"/>
<path d="M95.8089 5.54956C108.989 6.02367 117.968 14.7296 118.027 30.0316C118.086 43.7335 114.762 57.9747 107.626 77.3364L103.045 75.7955C109.76 57.4829 113.162 43.3542 112.907 30.3043C112.634 17.4972 106.613 11.636 96.0401 10.6048L95.8089 5.54956Z" fill="#DAE7FC"/>
<path d="M87.8679 4.14324e-08L87.2041 4.4827e-08C82.1015 7.0923e-08 80.5072 4.20777 80.5072 7.25395C80.5072 12.4692 84.6202 14.7983 87.6664 14.7983L88.0042 14.7983C92.9527 14.7983 95.9693 12.2262 95.9693 7.74584C95.9693 3.64475 93.0831 1.47605e-08 87.8679 4.14324e-08Z" fill="#86AFCC"/>
<path d="M62.0276 0.124268L61.3638 0.124268C56.2612 0.124268 54.667 3.94681 54.667 7.30117C54.667 12.4394 58.1458 14.7685 61.8379 14.7685L62.1757 14.7685C66.8576 14.7685 69.3052 11.2837 69.3052 7.87604C69.3052 3.77495 66.4191 0.124268 62.0276 0.124268Z" fill="#86AFCC"/>
<path d="M19.7164 127.225C27.1303 131.486 38.3372 136.031 47.8432 136.031C61.8236 136.031 70.9444 128.25 70.6896 114.524L70.6896 113.641C55.7846 111.543 47.5054 99.6195 40.4826 80.7675C39.6173 78.4266 42.1005 77.1346 44.8681 76.2931C47.8195 75.3922 49.8285 75.1078 50.5516 78.4266C54.4393 96.4429 62.1022 104.254 74.921 104.254C87.9236 104.254 95.2665 97.3734 100.091 77.7628C100.683 75.3152 102.633 75.6648 105.241 76.5301C108.328 77.5732 110.059 77.7747 109.099 80.7971C103.113 99.5484 94.579 110.755 79.4073 113.861C79.4073 130.792 69.9014 144.459 48.7084 144.459C37.6557 144.459 27.2429 139.51 16.765 134.609C11.0104 131.853 13.0906 123.361 19.7164 127.225Z" fill="#86AFCC"/>
<path d="M10.0321 114.753L10.0069 114.753C3.87348 114.753 9.96588e-06 119.819 9.95596e-06 125.151C9.94533e-06 130.87 4.60828 135.759 10.325 135.759L10.4589 135.759C15.9509 135.673 20.6021 131.103 20.6021 125.292C20.6021 119.796 16.1706 114.753 10.0321 114.753Z" fill="#DAE7FC"/>
</svg>
