<svg width="189" height="182" viewBox="0 0 189 182" fill="none" xmlns="http://www.w3.org/2000/svg">
<g clip-path="url(#clip0_478_5112)">
<path d="M169.271 57.5416C166.726 49.6549 157.469 36.6954 149.832 32.7477C147.176 31.2952 144.283 31.7203 141.56 33.1661C135.79 36.2696 131.431 41.021 124.046 42.2849C117.116 43.4673 110.521 40.6965 101.231 41.6534C94.0807 42.3797 88.9693 47.5314 82.431 51.9603C77.7087 55.2673 75.1109 59.8174 71.356 65.8427C68.6234 70.2442 68.7811 73.5169 71.4404 75.5733C74.6699 78.0748 80.5444 76.7899 85.7498 72.1623C91.165 67.3136 94.562 64.2613 99.9273 63.7473C102.505 63.5136 103.727 65.7591 111.535 68.9758C121.029 73.4952 134.302 81.0335 143.331 86.3465L144.15 86.912C145.305 85.3563 147.99 81.506 152.545 77.7076C156.554 74.3508 161.882 71.6005 165.836 68.9957C170.153 66.2775 170.859 62.627 169.271 57.5416Z" fill="#FFC7A8"/>
<path d="M141.479 88.7653C132.368 83.3311 115.703 74.0392 107.277 70.2369C103.452 68.4357 101.117 67.2019 100.489 67.1481C96.6422 67.7566 92.0368 74.4003 85.966 78.222C80.1241 81.9561 72.4507 82.6209 68.5535 78.2348C65.3988 74.672 65.6719 70.4627 68.7626 65.5062C73.1699 58.2463 76.3229 53.6143 81.252 48.5849C76.8564 48.065 70.2515 50.2133 64.7087 53.086C59.9349 55.3996 56.9015 56.9922 51.7344 57.6053C45.2019 58.3686 39.8577 57.5075 32.993 55.8169C28.2434 54.6297 25.2802 55.0684 22.3209 57.7374C16.5446 63.1603 11.5707 78.3877 13.1265 89.5556C13.838 95.3642 16.6471 97.1986 21.9596 98.3088C26.6284 99.387 30.7206 99.7097 34.3953 101.384C38.6813 103.234 41.8754 105.655 42.9658 106.561C46.2799 101.592 49.1087 99.0731 53.5271 98.3298C57.8995 97.589 61.4106 99.2761 63.7444 102.299C66.0145 100.604 69.5336 98.8427 74.3047 100.418C78.0487 101.693 80.2443 104.481 81.0202 107.136C83.4285 106.505 86.4608 106.944 89.1169 108.777C92.5963 111.161 93.5199 114.343 93.6194 117.141C96.8052 117.687 99.4671 119.17 100.915 121.796C103.159 126.082 102.028 130.35 100.258 134.237C103.769 135.712 107.227 136.262 110.095 134.945C114.509 132.763 114.871 128.087 112.162 124.352L112.267 124.207C116.759 126.509 120.2 127.107 123.611 125.298C127.132 123.138 128.546 118.716 125.463 114.454C129.468 115.703 133.535 115.825 136.173 112.626C139.009 109.282 138.385 105.345 135.14 102.448C139.765 103.958 143.474 103.114 145.618 100.178C148.529 96.3221 145.406 91.164 141.479 88.7653Z" fill="#FFC7A8"/>
<path d="M96.5801 123.57C94.3667 119.826 90.4367 120.451 87.6044 122.952L87.4521 122.85C89.5381 118.505 90.127 114.453 86.3659 112.122C82.8798 110.013 79.3155 111.745 76.4929 114.4C78.0224 109.75 77.1169 105.73 72.716 104.008C68.436 102.811 64.0732 106.261 60.6842 111.082C62.2211 106.574 60.4699 103.059 56.1869 101.95C50.7706 101.059 46.4088 107.382 45.0498 111.227C43.0896 115.916 44.7962 119.234 48.5128 120.47C51.2186 121.352 53.8144 120.211 56.2284 118.47C53.9133 123.109 55.1206 127.283 59.0877 129.131C62.5306 130.601 65.9276 128.689 68.1899 126.366L68.3422 126.468C67.0583 130.254 68.8449 133.849 72.5218 135.156C76.323 136.313 79.6649 133.907 82.0255 131.197L82.1766 131.293C80.5544 136.048 83.8122 139.111 87.5334 139.611C92.9535 140.315 99.6847 129.187 96.5801 123.57Z" fill="#FFC7A8"/>
</g>
<defs>
<clipPath id="clip0_478_5112">
<rect width="163" height="153" fill="white" transform="translate(0 30.7679) rotate(-10.8804)"/>
</clipPath>
</defs>
</svg>
