<svg width="142" height="142" viewBox="0 0 142 142" fill="none" xmlns="http://www.w3.org/2000/svg">
<g clip-path="url(#clip0_477_4875)">
<path d="M81.0045 8.69911C70.4776 7.61975 54.7711 6.4196 44.7401 7.32105C36.8499 8.14312 31.104 10.4818 28.1242 19.8311C24.3821 31.4779 21.2808 55.8947 19.6633 70.6821C18.4132 82.1336 16.8941 101.642 18.8283 115.73C19.9208 123.552 24.1848 126.724 31.4091 128.544C38.8761 130.515 48.9477 131.786 58.2684 132.772C69.4884 133.958 84.4078 134.93 95.5094 134.752C105.704 134.53 112.756 130.907 115.075 118.517C117.876 103.354 120.237 85.9129 121.732 70.9863C122.75 60.7621 123.911 44.6413 123.88 30.8144C123.896 18.4613 119.761 15.0689 109.694 12.8109C101.258 10.9581 90.642 9.70754 81.0024 8.71916L81.0045 8.69911Z" fill="#CFB1E9"/>
<path d="M85.4866 33.6703C87.7509 31.4964 90.4563 32.9743 91.5967 34.697L95.2482 39.99L108.128 26.7625C110.592 24.2291 113.274 25.0461 114.55 26.9246C115.996 29.1294 114.898 31.7826 113.661 33.0285C108.269 38.6302 101.643 45.6047 97.4431 49.0644C95.153 50.947 92.4777 50.0648 91.2521 48.3334C88.8798 45.5827 87.1367 42.2786 84.9617 39.4317C83.8042 37.7275 84.0337 35.1929 85.4866 33.6703Z" fill="#F5F9FF"/>
<path d="M41.3352 55.114C44.3828 55.082 57.0462 56.5172 65.0128 57.4202C74.665 58.5821 86.3868 60.0119 94.0195 60.5159C96.1376 60.6571 99.324 60.8521 101.426 61.0981C105.001 61.5052 105.601 63.6637 105.423 64.9524C105.083 67.3744 103.044 67.8997 99.8907 67.6271C94.5026 67.2164 88.9388 66.6916 86.0618 66.2446C75.7291 64.9521 64.7493 63.9428 56.5751 63.2364C53.0956 62.9354 48.3202 62.5268 45.2725 62.2143C40.8913 61.7651 37.5058 61.1393 37.8165 58.0103C38.0341 55.8393 39.5551 55.1341 41.3352 55.114Z" fill="#F5F9FF"/>
<path d="M40.0354 71.5449C42.9239 71.5827 57.5216 73.272 64.0274 74.0454C72.84 75.0959 83.5933 76.4366 90.6454 76.9216C93.0292 77.09 96.166 77.2749 98.7803 77.5176C102.716 77.7691 103.888 79.5761 103.691 81.496C103.452 83.832 101.64 84.4111 98.7806 84.1838C93.8877 83.8341 88.1464 83.3112 85.1972 82.8772C75.6411 81.6187 64.0541 80.6029 56.652 79.925C52.9575 79.5968 48.7962 79.2259 45.5929 78.9481C40.792 78.5419 35.7478 77.9386 36.0926 74.4281C36.2919 72.3363 37.8733 71.536 40.0354 71.5449Z" fill="#F5F9FF"/>
<path d="M38.3834 88.5476C41.1089 88.5941 51.9313 89.8051 59.5791 90.6551C66.9882 91.511 78.0431 92.7762 83.9312 93.3495C87.6292 93.6932 93.1295 94.1458 97.2603 94.468C101.146 94.755 102.244 96.6 102.044 98.2004C101.76 100.577 100.121 101.098 96.9631 100.825C91.575 100.414 85.5753 99.9411 81.947 99.4121C72.2605 98.1403 60.5732 97.1142 54.4738 96.6256C50.5136 96.2702 46.7675 95.9013 43.5637 95.6285C39.0901 95.2407 34.1173 94.7815 34.3937 91.1475C34.5579 89.052 36.1749 88.4478 38.3834 88.5476Z" fill="#F5F9FF"/>
</g>
<defs>
<clipPath id="clip0_477_4875">
<rect width="129" height="129" fill="white" transform="translate(13.1579) rotate(5.85429)"/>
</clipPath>
</defs>
</svg>
