<svg width="215" height="216" viewBox="0 0 215 216" fill="none" xmlns="http://www.w3.org/2000/svg">
<rect x="0.499998" y="0.5" width="214" height="215" transform="matrix(1 -6.00719e-10 -3.65826e-06 1 0.000792013 1.29455e-07)" stroke="#EFF1EB"/>
<path d="M138.658 66.0656C140.942 75.33 142.043 87.5813 137.499 96.12C132.258 106.034 122.802 108.658 112.597 113.721C98.1522 121.103 94.9439 127.845 84.8406 138.552C74.2753 149.951 61.9128 152.938 46.4009 152.938C20.1557 152.938 2.64506 137.692 2.64519 99.8072L2.93077 92.0194L138.482 65.1038L138.633 66.0656L138.658 66.0656Z" fill="#AD4534"/>
<path d="M89.5262 37.0491C47.9119 37.0491 2.60228 58.1428 2.60214 94.8966C2.60207 113.417 13.8223 133.228 41.8983 133.228C66.0018 133.228 75.4585 123.162 87.3255 108.768C95.598 98.6175 104.097 94.4831 114.201 90.9984C127.159 86.2903 138.304 81.0084 138.304 66.7828C138.304 49.8741 119.391 37.0491 89.5094 37.0491L89.5262 37.0491Z" fill="#F9DFD0"/>
<path d="M88.6029 40.7954C74.0568 40.7954 62.5258 42.8542 51.2551 47.3007C49.0127 50.2876 47.1902 54.0339 47.9208 57.5945C48.7355 61.5685 51.8681 64.1335 51.7085 68.6898C51.4649 75.4145 46.535 80.4095 44.385 83.9785C43.2428 86.071 43.2092 88.7626 41.5631 91.1926C44.049 93.3273 48.3406 92.9392 51.3557 92.416C55.3953 91.6988 58.4944 91.5217 61.4758 92.5764C64.1213 93.4876 65.549 95.1413 69.2863 94.7363C73.494 94.2892 77.0549 91.5385 82.3123 91.5385C86.7383 91.5385 90.7443 93.3863 98.5297 92.5764C112.034 86.9654 132.695 83.4048 132.695 67.3482C132.695 52.4645 115.948 40.7954 88.6029 40.7954Z" fill="#C55140"/>
<path d="M41.0854 93.4031C38.4314 96.0693 33.7115 99.3431 33.7115 106.397C33.7115 113.67 29.739 117.07 27.6394 119.002C25.8589 120.698 24.7083 122.124 24.028 124.445C29.403 126.866 34.1649 127.752 41.9167 127.752C57.1598 127.752 67.154 123.398 77.4253 113.332C76.5351 109.536 75.6785 104.709 72.084 102.693C70.1187 101.621 69.9928 99.3431 69.8752 98.0775C65.3484 98.2462 64.5842 96.0271 61.1576 95.445C55.9422 94.7868 53.1203 96.8709 47.6949 96.0946C45.2846 95.7318 43.0422 94.9556 41.0854 93.4031Z" fill="#C55140"/>
<path d="M100.78 57.3919C94.0869 56.8182 87.3094 60.961 87.3094 65.7366C87.3093 70.2929 91.3406 71.5247 95.3802 71.2885C101.662 70.9257 108.28 66.5719 108.28 63.0366C108.28 59.071 105.458 57.7632 100.78 57.3919Z" fill="#F9DFD0"/>
<path d="M46.8551 48.5325C28.9664 55.7803 13.824 66.5972 8.07098 82.7972C13.0009 79.9622 13.6727 78.8147 20.8366 77.9287C27.7233 77.085 28.4792 71.9043 35.7691 71.7947C40.615 71.9043 44.3103 71.879 48.9882 69.12C48.5431 65.3737 44.7302 62.8087 44.7302 57.1978C44.7303 54.0928 45.7381 51.3337 46.8551 48.5325Z" fill="#C55140"/>
<path d="M7.04832 88.6782C4.80589 102.33 11.4994 118.1 21.3003 123.373C22.8037 119.678 24.517 118.361 26.2134 116.851C29.4888 113.999 30.4631 111.198 30.5639 107.004C30.7571 98.9804 36.0061 96.1201 38.8196 92.6016C41.0284 89.7666 41.0284 86.6448 42.1538 83.7001C43.3464 80.9495 47.2769 76.7223 48.4779 71.1113C44.6146 73.2038 42.1538 73.651 37.6943 73.3304C31.8994 73.3304 30.4464 79.0004 22.6023 79.6585C15.0017 80.3166 13.2632 82.232 7.04832 88.6782Z" fill="#C55140"/>
<path d="M157.301 101.419C162.727 96.061 161.383 69.2551 168.656 65.5932C173.141 63.0282 175.652 67.441 174.317 76.1907L173.51 82.3332C180.002 71.9045 191.97 59.2989 202.359 56.3542C209.078 54.4473 210.758 58.1598 210.312 62.6317C209.338 69.3564 199.235 78.6207 192.734 83.177C198.689 81.2701 201.981 80.3504 207.155 80.4348C213.109 80.612 213.621 84.0629 212.983 86.687C211.48 91.2432 201.679 95.7067 189.182 97.4954C193.868 98.8285 195.825 100.516 195.548 103.562C195.052 107.199 189.593 108.532 183.639 108.532C176.038 108.532 172.864 108.658 168.06 110.7L157.301 101.419Z" fill="#A8B790"/>
<path d="M137.567 101.672C126.061 108.692 93.3321 147.926 89.7879 167.248C88.5281 173.77 92.131 178.209 99.0178 177.854C115.176 176.96 137.239 161.452 150.248 149.799C162.216 139.092 169.212 130.967 168.977 121.703C168.616 111.274 157.429 97.7485 145.646 99.0901C142.824 99.4107 140.271 100.128 137.567 101.672Z" fill="#FFC7A8"/>
<path d="M163.687 105.553C166.937 109.612 168.743 114.438 168.986 121.272C169.322 130.494 161.545 140.096 149.938 150.12C136.946 161.663 115.488 176.327 99.027 177.829C92.451 178.428 89.6291 174.429 89.9147 168.818C96.2807 172.749 105.023 169.678 126.465 158.709C122.727 152.736 122.652 150.348 125.205 150.879C126.784 151.276 129.11 153.706 130.454 156.136L146.05 144.475C142.321 137.548 134.804 131.144 134.561 127.929C134.561 125.651 137.744 126.706 140.641 129.187C144.295 131.937 147.847 134.933 150.014 140.079C159.471 131.06 165.593 119.998 163.687 105.553Z" fill="#E78652"/>
<path d="M103.134 143.269C106.746 144.408 111.508 150.221 112.238 152.778C112.767 154.634 111.264 154.634 110.105 153.748C107.006 151.386 103.983 149.335 100.38 146.973L103.134 143.269Z" fill="#E78652"/>
<path d="M132.863 106.059C138.574 107.291 146.847 114.016 148.039 118.201C148.594 120.369 147.292 120.412 146.04 119.281C141.195 114.843 138.255 111.62 131.923 107.654L132.863 106.059Z" fill="#E78652"/>
</svg>
