<svg width="86" height="86" viewBox="0 0 86 86" fill="none" xmlns="http://www.w3.org/2000/svg">
<path d="M45.6369 8.95404C39.8127 8.95404 31.1457 9.17869 25.7042 10.2354C21.4304 11.1284 18.4156 12.7315 17.309 18.0176C15.914 24.6045 15.5867 38.1472 15.5313 46.3344C15.4897 52.6745 15.7531 63.441 17.603 71.0458C18.6403 75.2669 21.153 76.7646 25.2106 77.3553C29.4095 78.0154 34.9952 78.1458 40.1538 78.1624C46.3636 78.1818 54.5868 77.8767 60.6551 77.1556C66.2242 76.4623 69.8823 74.0827 70.4564 67.1685C71.1387 58.7095 71.4521 49.0274 71.4327 40.7709C71.416 35.1159 71.147 26.2242 70.3538 18.6555C69.6688 11.8911 67.2143 10.2659 61.5759 9.5947C56.8527 9.05388 50.9702 8.96513 45.6369 8.96513V8.95404Z" fill="#FFC7A8"/>
<path d="M49.4907 22.3747C50.6084 21.0573 52.1726 21.7146 52.8937 22.5938L55.1901 25.2868L61.4997 17.3215C62.7061 15.7961 64.2204 16.0929 65.0247 17.0497C65.9399 18.1757 65.4879 19.69 64.8805 20.4416C62.2429 23.8114 59.0063 28.002 56.9013 30.132C55.7531 31.2913 54.2388 30.9585 53.4706 30.0793C52.0173 28.7065 50.8774 26.9953 49.5267 25.5586C48.7973 24.6905 48.7807 23.29 49.4907 22.3747Z" fill="#EB5F13"/>
<path d="M26.5217 36.5941C28.1886 36.4055 35.2026 36.4804 39.6151 36.5276C44.9651 36.6219 51.4633 36.7467 55.6706 36.5941C56.8382 36.5525 58.5938 36.4804 59.7586 36.4971C61.7388 36.5192 62.1881 37.6674 62.1632 38.383C62.1133 39.7281 61.0261 40.1303 59.2843 40.158C56.3112 40.2356 53.2355 40.2606 51.6352 40.1774C45.9053 40.0498 39.837 40.1136 35.3218 40.1857C33.3999 40.2162 30.7623 40.2606 29.0761 40.2606C26.6521 40.2606 24.7634 40.1081 24.7578 38.3774C24.755 37.1765 25.5482 36.7051 26.5217 36.5941Z" fill="#EB5F13"/>
<path d="M26.7313 45.6633C28.3149 45.5219 36.4023 45.6272 40.0078 45.6855C44.8918 45.7659 50.8547 45.8963 54.743 45.7659C56.0576 45.7243 57.7855 45.6494 59.2305 45.6356C61.3993 45.5524 62.1426 46.4759 62.1426 47.5381C62.1426 48.8306 61.183 49.2494 59.6049 49.2854C56.9063 49.3686 53.7335 49.4047 52.0944 49.3326C46.7916 49.18 40.3905 49.2743 36.2997 49.3187C34.2584 49.3464 31.9592 49.3769 30.1898 49.4047C27.5384 49.4518 24.7428 49.4047 24.7344 47.4633C24.7261 46.3067 25.5471 45.7798 26.7313 45.6633Z" fill="#EB5F13"/>
<path d="M26.7813 55.0653C28.2762 54.9377 34.2696 54.9931 38.5046 55.0292C42.6093 55.0819 48.7331 55.154 51.9891 55.1374C54.0331 55.118 57.07 55.0569 59.3498 55.0015C61.4937 54.9405 62.1981 55.889 62.1787 56.7765C62.1565 58.0938 61.2884 58.471 59.5439 58.4988C56.5708 58.5764 53.2593 58.6541 51.243 58.5681C45.8681 58.4156 39.4116 58.5099 36.0446 58.5847C33.8564 58.6125 31.7846 58.6208 30.0151 58.6513C27.544 58.6901 24.7955 58.7179 24.7428 56.7127C24.7151 55.5562 25.5666 55.1346 26.7813 55.0653Z" fill="#EB5F13"/>
</svg>
