<svg width="86" height="86" viewBox="0 0 86 86" fill="none" xmlns="http://www.w3.org/2000/svg">
<path d="M39.3823 2.75873L11.5173 15.258C7.84222 16.9281 7 20.096 7 22.5461V32.4804C7 51.2054 13.7856 67.0591 38.7267 81.7692C41.9903 83.6546 46.0243 83.2862 49.0295 81.5252C65.2948 72.1268 79 57.3401 79 32.667V22.7327C79 19.0241 77.1002 16.3969 74.3247 15.2963L46.5364 2.79702C44.1293 1.69639 41.4017 1.77296 39.3823 2.79702V2.75873Z" fill="#5182A6"/>
<path d="M40.2933 11.8604L17.1515 21.8713C15.4096 22.6226 14.7109 24.1826 14.7109 25.8192V33.9638C14.7109 48.9993 19.5585 62.1781 39.5085 73.4571C42.4371 75.0937 45.069 74.3567 47.4234 73.0121C58.8651 66.8868 71.307 55.3877 71.307 34.4902V25.9723C71.307 23.9194 70.393 22.6226 69.0579 21.9479L45.5524 11.7838C43.8823 11.0469 42.0208 11.1952 40.2933 11.8604Z" fill="#D1DDEF"/>
<path d="M27.4655 40.0364C25.159 42.2855 25.159 45.4151 27.3938 47.3627L36.706 56.3112C38.7493 58.278 41.3765 57.3257 42.8886 55.603L61.159 35.5956C63.3411 33.222 62.1209 29.6618 58.5749 28.9392C56.8283 28.6425 55.4597 29.456 54.5457 30.5901L39.4289 45.8601L33.3084 39.7827C31.49 38.0648 29.0064 38.5146 27.4655 40.0364Z" fill="#5182A6"/>
</svg>
