<svg width="86" height="86" viewBox="0 0 86 86" fill="none" xmlns="http://www.w3.org/2000/svg">
<path d="M44.0759 5C23.1972 5 6 20.3796 6 42.7588C6 62.5006 16.364 80.5486 41.1562 80.5486C54.2504 80.5486 80.1758 70.6796 80.1758 44.298C80.1758 29.2432 72.5536 5.00773 44.0759 5.00773V5Z" fill="#CFB1E9"/>
<path d="M43.9988 10.3174C26.4652 10.3174 11.4336 23.8717 11.4336 42.3915C11.4336 56.7696 18.1044 72.8608 39.1378 72.8608C52.5182 72.8608 74.4526 64.2254 74.4526 42.7705C74.4526 31.4475 68.8414 10.3174 43.9988 10.3174Z" fill="#F0DBF5"/>
<path d="M43.0308 12.9083H42.8761C41.3369 12.9083 40.8574 14.2734 40.8574 15.0043C40.8574 16.5279 41.9712 17.3787 42.9225 17.3787C44.2721 17.3787 45.0455 16.2804 45.0455 15.2595C45.0455 14.0645 44.3533 12.9083 43.0308 12.9083Z" fill="#CFB1E9"/>
<path d="M30.0754 17.3749C28.6716 17.3749 28.2617 18.4731 28.2617 18.9179C28.2617 20.0664 29.1434 20.5459 29.9478 20.5459C31.1621 20.5459 31.5063 19.4631 31.5063 18.972C31.5063 18.0942 30.9184 17.3749 30.0754 17.3749Z" fill="#CFB1E9"/>
<path d="M20.6819 26.6521C19.398 26.6521 18.9688 27.6614 18.9688 28.2918C18.9688 29.2702 19.7151 29.9546 20.5543 29.9546C21.7724 29.9546 22.2365 28.926 22.2365 28.2802C22.2365 27.3714 21.6448 26.6521 20.6819 26.6521Z" fill="#CFB1E9"/>
<path d="M16.8933 39.1933C15.2149 39.1933 14.6426 40.9412 14.6426 41.2352C14.6426 42.7511 15.8375 43.451 16.8585 43.451C18.355 43.451 19.0589 42.1594 19.0589 41.297C19.0589 40.1794 18.3125 39.1933 16.8933 39.1933Z" fill="#CFB1E9"/>
<path d="M20.682 52.7515C19.4175 52.7515 18.9805 53.8614 18.9805 54.2945C18.9805 55.4276 19.8506 55.9806 20.5969 55.9806C21.8267 55.9806 22.2366 54.8978 22.2366 54.4105C22.2366 53.5791 21.5212 52.7515 20.682 52.7515Z" fill="#CFB1E9"/>
<path d="M30.18 62.1487C28.9116 62.1487 28.4746 63.0498 28.4746 63.7729C28.4746 64.9099 29.4491 65.3585 30.1375 65.3585C31.2203 65.3585 31.6766 64.4845 31.6766 63.8232C31.6766 63.0072 31.0849 62.1487 30.18 62.1487Z" fill="#CFB1E9"/>
<path d="M43.0308 65.1651H42.8761C41.3369 65.1651 40.8574 66.6888 40.8574 67.2534C40.8574 68.6958 41.9712 69.5234 42.8683 69.5234C44.3379 69.5234 45.0455 68.2975 45.0455 67.408C45.0455 66.128 44.2296 65.1651 43.0308 65.1651Z" fill="#CFB1E9"/>
<path d="M56.0629 62.0327C54.6592 62.0327 54.3691 63.1155 54.3691 63.6182C54.3691 64.6624 55.2741 65.169 56.0165 65.169C57.1458 65.169 57.5557 64.2061 57.5557 63.5602C57.5557 62.8061 57.022 62.0327 56.0629 62.0327Z" fill="#CFB1E9"/>
<path d="M65.3064 52.5582C64.0418 52.5582 63.7324 53.699 63.7324 54.0974C63.7324 55.2072 64.6451 55.8105 65.3914 55.8105C66.5206 55.8105 66.9654 54.7702 66.9654 54.1824C66.9654 53.3239 66.2963 52.5582 65.3064 52.5582Z" fill="#CFB1E9"/>
<path d="M69.2097 39.0657C67.5313 39.0657 66.959 40.6512 66.959 41.2351C66.959 42.7511 68.1539 43.451 69.1749 43.451C70.6714 43.451 71.2244 42.082 71.2244 41.386C71.2244 40.1485 70.3814 39.0657 69.2097 39.0657Z" fill="#CFB1E9"/>
<path d="M65.3064 26.4085C64.0418 26.4085 63.7324 27.3869 63.7324 27.967C63.7324 29.1039 64.6296 29.7459 65.3721 29.7459C66.4278 29.7459 66.8996 28.7713 66.8996 28.0443C66.8996 27.2013 66.1919 26.4085 65.3064 26.4085Z" fill="#CFB1E9"/>
<path d="M55.8694 17.224C54.4656 17.224 54.1523 18.3416 54.1523 18.8211C54.1523 19.9387 55.0225 20.4453 55.7688 20.4453C56.9406 20.4453 57.393 19.4708 57.393 18.767C57.393 17.9897 56.8323 17.224 55.8694 17.224Z" fill="#CFB1E9"/>
<path d="M59.5047 26.8223C57.5711 26.8223 54.5161 28.2454 53.3405 29.3553C50.4788 32.07 45.8382 36.7338 44.5311 37.7625C43.9665 37.4995 43.4638 37.4686 42.9417 37.4686C42.0097 37.4686 41.507 37.6349 41.1203 37.836C39.6778 36.6294 37.1332 33.9456 35.7256 33.149C34.7975 32.6617 32.6783 32.2286 31.5878 32.2286C30.4508 32.2286 30.0293 32.8164 30.0293 33.555C30.0293 35.2334 31.5336 37.3487 33.0147 38.4006C34.2561 39.29 37.8332 41.0457 39.1558 41.6683C39.2099 43.2964 40.633 44.9863 42.8412 44.9863C45.7029 44.9863 46.6464 42.7395 46.6464 41.3087C49.9142 39.4215 55.6762 35.3185 57.4164 33.9804C59.0406 32.7043 61.0516 29.5564 61.0516 28.3615C61.0516 27.2322 60.4831 26.8223 59.5047 26.8223Z" fill="#CFB1E9"/>
</svg>
