<svg width="86" height="86" viewBox="0 0 86 86" fill="none" xmlns="http://www.w3.org/2000/svg">
<g clip-path="url(#clip0_478_6124)">
<path d="M43.1562 38.7248C47.6988 26.4735 58.5898 14.779 73.7966 14.0948C82.1578 13.8004 84.0591 18.7408 83.542 24.1226C82.3407 35.9842 70.5269 48.3111 53.5063 48.9714C50.3122 49.0271 47.663 48.6134 45.1212 48.1799L43.1562 38.7248Z" fill="#DEE4D4"/>
<path d="M43.8741 38.4862C40.2385 27.4321 29.9561 11.4298 11.7143 11.0002C2.76441 10.9644 -0.306389 16.6366 0.0237612 23.6254C0.576664 34.4886 10.8392 48.8641 30.2544 49.1823C33.9497 49.1823 37.0205 48.5976 39.081 48.0287L43.8741 38.4862Z" fill="#DEE4D4"/>
<path d="M44.9469 48.3509C49.1831 40.2721 55.2969 34.6834 64.1553 29.6357C65.7185 28.5975 64.5849 27.2212 63.4711 27.6111C58.4711 29.1067 51.4783 34.8585 44.5014 42.4957L42.9858 41.7797L41.1999 43.0327C36.5539 35.1926 29.8713 29.8028 23.0734 26.8473C21.176 26.1433 20.7981 27.4162 21.1402 28.3748C29.3701 33.2674 34.5411 38.0088 38.8967 47.6071C35.102 56.2665 33.9843 63.3429 34.0956 72.1416C34.1434 75.0533 36.1641 76.2267 38.3637 75.9642C40.6987 75.6937 41.8522 74.2816 41.7567 72.3286C41.3828 64.0947 42.6756 55.6778 46.2356 48.1043L44.9469 48.3509Z" fill="#A8B790" stroke="#6FB04E" stroke-width="0.4" stroke-miterlimit="10"/>
</g>
<defs>
<clipPath id="clip0_478_6124">
<rect width="86" height="86" fill="white"/>
</clipPath>
</defs>
</svg>
