<svg width="86" height="86" viewBox="0 0 86 86" fill="none" xmlns="http://www.w3.org/2000/svg">
<path d="M83.8844 31.6923C83.0445 30.2713 81.3514 29.885 78.1768 29.6062C75.3314 29.3509 72.4759 29.1459 68.0953 29.1459C54.043 29.1459 41.6033 30.9768 32.3516 35.3406C22.082 39.9027 16.1493 46.2955 13.5055 49.7255C10.7306 53.3435 8.44625 56.8373 7.91211 60.9122C10.6298 61.537 13.2401 60.6065 16.072 59.1754C19.1694 57.6334 27.242 52.638 30.2352 50.703C34.6191 47.8476 40.1923 44.2732 46.9245 41.2901C50.3444 39.7716 54.0296 38.5555 56.0755 38.3002C57.7988 38.0752 59.418 38.1491 60.1 39.0225C60.7383 39.9295 59.0317 41.2363 56.5055 42.3382C53.1125 43.7021 51.0431 44.7032 48.6848 45.9227C46.8674 46.8935 43.2057 48.6572 40.9986 49.6818C39.4734 50.3839 37.9584 50.9214 37.7232 51.5866C37.4948 52.2248 38.2271 52.1341 38.8419 52.1005C40.787 51.9897 42.6816 51.3783 45.3859 51.0323C47.0387 50.8173 49.5885 51.7008 49.9379 52.7791C50.1966 53.6627 47.3142 55.1307 42.7052 55.4431C37.7971 55.7858 35.3851 55.7455 32.113 56.2998C26.4895 57.1194 22.4045 59.1888 19.7438 60.9357C15.5715 63.4955 12.6018 66.5022 11.3353 68.847V69.8212C11.3353 73.0698 15.6488 74.4807 20.2175 75.1962C22.6934 75.596 25.1188 75.8009 27.4536 75.8009C35.6135 75.8009 44.3109 73.231 52.7967 66.9322C60.0899 61.6546 65.9587 55.0803 70.3259 50.2932C72.1165 48.328 73.5173 46.7558 74.5923 45.6539C78.2406 41.8712 82.6918 37.0573 83.9348 33.9498C84.2371 33.1537 84.2035 32.3239 83.8676 31.6923H83.8844Z" fill="#A8B790"/>
<path d="M22.098 10.6761C20.9626 9.13411 18.5304 10.8843 15.4364 14.1396C10.4746 19.1316 5.33811 26.3979 3.26538 34.6284C2.20381 38.6832 1.67303 42.8018 1.67975 44.6595C1.68983 46.4803 2.13663 47.7972 2.8992 47.9752C4.47139 48.3951 10.0144 44.0447 13.4342 40.1243C17.3714 35.569 22.3332 27.9634 22.481 17.1697C22.5112 15.4363 22.4676 13.3636 22.098 10.6761Z" fill="#A8B790"/>
</svg>
