<svg width="107" height="75" viewBox="0 0 107 75" fill="none" xmlns="http://www.w3.org/2000/svg">
<path d="M92.733 8.71178C87.19 4.73179 83.8631 2.9902 79.3528 3.17999C76.7572 3.29721 74.4239 4.60899 73.4917 5.70307C67.9488 2.13057 60.547 -0.0855005 52.6372 0.00381203C44.9731 -0.102247 37.8225 2.01334 32.7764 5.27883C31.4032 3.79959 29.4662 3.15208 27.2781 3.08509C24.0014 2.98462 21.3611 4.44711 17.0295 7.42233C11.9889 10.8944 6.552 15.6782 3.14137 19.4516C-1.97177 24.9332 0.199643 32.8262 2.37105 37.5374C5.64771 44.6991 10.839 47.6744 15.5949 47.6744C16.4266 47.6744 17.1913 47.585 17.8779 47.412V47.9814C17.8779 61.0545 30.9399 74.323 53.201 74.323C71.4264 74.323 86.1406 64.6996 89.0544 54.1774C89.8303 52.2126 89.7131 50.0746 89.8582 47.5404C90.4108 47.6297 91.0081 47.6744 91.6556 47.6744C96.4115 47.6744 101.603 43.4041 105.544 34.9641C107.542 29.717 107.52 24.0177 105.253 20.6852C102.395 16.5769 97.3828 12.1559 92.733 8.71178Z" fill="#DEB079"/>
<path d="M18.543 55.037C23.4886 44.4312 35.864 35.0366 51.9905 35.0366C65.566 35.0366 80.5147 41.2885 88.3742 54.9087C84.45 65.4029 71.6504 74.2783 53.2799 74.2783C36.1096 74.2783 22.0038 67.0161 18.543 55.037Z" fill="url(#paint0_linear_488_2347)"/>
<path d="M51.4272 54.3115V61.3784C51.4272 62.7571 53.6377 62.9916 53.7158 61.183V54.4176C55.8202 55.774 58.12 56.6169 61.1678 56.6169L61.313 60.5132C61.0618 65.3639 57.6177 68.4955 52.8953 68.3727C47.8324 68.2387 45.1139 64.0689 45.1809 60.3904L45.2535 57.1751C47.6593 56.9853 49.8642 56.014 51.4272 54.3115Z" fill="#EB5F13"/>
<path d="M39.984 26.0775C36.7241 25.9603 35.6133 29.2871 35.6133 31.0455C35.6133 33.8253 37.6228 35.5055 39.878 35.5055C42.7025 35.5055 44.1705 32.8429 44.1705 30.9673C44.1705 28.6285 42.7415 26.1612 39.984 26.0775Z" fill="#4D2822"/>
<path d="M66.4437 26.0774C63.1783 26.0774 62.3633 29.3317 62.3633 31.0901C62.3633 33.8699 64.2221 35.5892 66.4772 35.5054C69.458 35.405 70.3735 32.6474 70.3735 31.1515C70.3735 28.8126 68.8998 26.0774 66.4437 26.0774Z" fill="#4D2822"/>
<path d="M52.9323 36.728C47.1158 36.728 43.8559 38.5254 43.9452 42.0924C44.0178 45.3634 48.2378 48.4335 51.7768 49.1648V51.8386C49.918 53.8593 46.6134 54.4342 44.9276 54.4342C41.9468 54.4342 39.9317 52.8322 39.8201 51.5818C39.6749 50.3649 39.0442 50.1361 38.4748 50.1528C37.4031 50.1361 36.8672 50.7668 36.8672 51.8274C36.8672 54.6184 40.4285 57.5769 45.1732 57.5769C48.1931 57.5769 51.4084 56.0139 53.0718 54.5012C55.02 56.0586 57.9003 57.5099 61.3388 57.5099C66.0835 57.5099 69.3993 53.5913 69.3993 51.8832C69.3993 50.6664 68.7852 50.1528 67.9368 50.1082C67.1274 50.0635 66.7199 50.5826 66.5357 51.6041C66.1617 53.5411 63.7447 54.6184 61.3667 54.6184C58.5422 54.6184 55.5335 53.0555 54.4115 49.6448C58.7376 48.6457 61.9975 45.0732 62.0701 42.3156C62.0701 38.6762 59.2121 36.728 52.9323 36.728Z" fill="url(#paint1_linear_488_2347)"/>
<path d="M33.5649 6.35628C33.4477 4.58119 30.478 2.96799 26.9613 3.07405C23.6847 3.12987 21.4909 4.31326 16.4783 7.71271C11.4377 11.1847 5.82218 16.1751 2.72416 19.8871C-1.65774 25.0449 0.162005 32.7872 2.33341 37.4984C5.61007 44.5206 10.8014 47.6019 15.5572 47.4568C20.7541 47.2837 24.695 41.724 25.6216 33.6078C26.5538 24.9333 27.6033 19.0498 32.4931 9.88412C33.1686 8.62817 33.6486 7.76853 33.5649 6.35628Z" fill="#886051"/>
<path d="M31.2736 9.77797C30.0567 8.91834 29.225 9.73332 28.6054 10.8832C25.8869 15.7563 24.1286 21.1597 23.3415 29.9235C22.5768 38.0342 21.5776 41.9528 16.8217 44.3698C16.0793 44.7773 16.3193 46.7422 17.8879 46.2845C22.0744 44.9392 24.9771 39.5804 25.6469 32.441C26.4842 23.4763 28.103 17.9054 31.6253 11.5586C32.1276 10.6153 31.9602 10.219 31.2736 9.77797Z" fill="#4C3128"/>
<path d="M72.9719 6.72469C73.1059 4.93844 76.5444 3.07404 80.2453 3.1801C84.002 3.1801 86.8488 4.80447 91.6549 8.1816C96.6955 11.6536 101.719 16.5658 104.996 20.5458C108.094 24.3974 106.911 31.2354 104.996 35.9522C101.44 43.8229 96.4722 47.6745 91.4317 47.4456C87.0107 47.2279 83.0698 41.925 81.9031 34.0599C80.9151 26.3344 80.7867 21.1598 74.0883 9.88412C73.4798 8.79004 72.8714 7.76853 72.9719 6.72469Z" fill="#886051"/>
<path d="M75.3155 10.3193C76.3593 9.05776 77.5818 9.43734 78.5865 11.3743C81.305 16.694 83.2196 22.8398 83.9062 30.7495C84.5593 37.2749 85.5473 41.1377 89.8734 44.4088C90.8893 45.1902 89.6334 46.7644 88.9859 46.502C85.5473 45.0228 82.36 40.4734 81.3887 32.4297C80.7021 25.2345 79.9374 19.9874 75.1815 11.8711C74.6791 10.9445 74.8075 10.8608 75.3155 10.3193Z" fill="#4C3128"/>
<defs>
<linearGradient id="paint0_linear_488_2347" x1="53.2688" y1="35.0534" x2="53.2688" y2="74.2951" gradientUnits="userSpaceOnUse">
<stop stop-color="#FCE3C3"/>
<stop offset="1" stop-color="#F8D9BA"/>
</linearGradient>
<linearGradient id="paint1_linear_488_2347" x1="53.1556" y1="36.728" x2="53.1556" y2="57.549" gradientUnits="userSpaceOnUse">
<stop stop-color="#542A2A"/>
<stop offset="1" stop-color="#47231A"/>
</linearGradient>
</defs>
</svg>
