<svg width="86" height="86" viewBox="0 0 86 86" fill="none" xmlns="http://www.w3.org/2000/svg">
<path d="M63.1737 8.53424H61.0882C54.3592 2.33304 46.1059 0 38.4201 0C30.7342 0 22.481 2.33304 15.752 8.53424L15.5741 8.68594L15.4239 8.60402H13.6603C6.13396 8.60402 0 14.9023 0 22.3959C0 22.8996 0.0276028 23.4092 0.0828085 23.925L4.25697 62.0606C5.31201 68.9869 11.0503 75 18.8865 75H57.7145C64.9249 75 71.381 69.357 72.3961 62.2275L76.9199 23.9098C77.7603 16.5831 71.9054 8.51907 63.1737 8.51907V8.53424Z" fill="#CFB1E9"/>
<path d="M62.7886 14.5269H62.672C62.227 14.5269 61.9231 14.7916 61.6408 15.2718L56.1839 23.8376C54.9286 25.8167 53.3081 26.6262 51.5956 26.6262H26.4871C24.5045 26.6262 22.7919 25.8383 21.5397 23.8746L16.1412 15.241C15.8588 14.7762 15.512 14.5269 15.0823 14.5269H14.4931C9.38605 14.5269 5.40234 19.0576 5.40234 23.6714C5.40234 24.0254 5.42997 24.3916 5.47293 24.7702L10.1963 62.8749C10.893 67.7288 14.8982 71.5208 19.907 71.5208H57.6571C62.4602 71.5208 66.6066 67.5195 67.2941 62.8749L72.3305 24.4932C73.0149 19.664 68.7335 14.5208 62.7763 14.5208L62.7886 14.5269Z" fill="#F0DBF5"/>
<path d="M38.889 4.52075C30.575 4.52075 24.4857 7.54982 19.7083 11.971C19.238 12.4147 19.3679 13.0817 19.7083 13.6049L25.3458 21.7864C25.7048 22.3402 26.2153 22.5208 26.7011 22.5208H51.4698C52.1072 22.5208 52.4476 22.2699 52.791 21.7191L58.1934 13.4213C58.4347 13.0266 58.5338 12.5462 58.1191 12.0689C54.0813 7.83743 47.2648 4.52075 38.889 4.52075Z" fill="#FEFFFE"/>
<path d="M38.9753 6.52075C38.3888 6.52075 38.2288 6.85819 38.2036 7.38663L37.4065 19.668C37.3364 21.005 38.1586 21.5208 39.0707 21.5208C39.9407 21.5208 40.4543 20.6549 40.3982 19.6744L39.6601 7.38663C39.632 6.89321 39.4861 6.52075 38.9753 6.52075Z" fill="#EB5F13"/>
<path d="M34.7044 8.00025L35.3909 10.9304C35.5322 11.5493 34.3208 11.7693 34.1088 11.1592L33.4257 8.22903C33.2137 7.46055 34.5093 7.22003 34.7044 8.00025Z" fill="#CFB1E9"/>
<path d="M31.4242 8.90718L32.3709 11.7632C32.5816 12.4374 31.6739 12.8376 31.393 12.1996L30.4463 9.34356C30.1862 8.59419 31.1537 8.16383 31.4242 8.90718Z" fill="#CFB1E9"/>
<path d="M27.7239 10.894L29.327 13.6911C29.7098 14.4037 28.532 14.8683 28.0936 14.1902L26.4938 11.3932C26.0619 10.6586 27.2757 10.1312 27.7239 10.894Z" fill="#CFB1E9"/>
<path d="M23.603 12.7195L26.2405 15.5901C26.8309 16.2737 25.6536 16.875 25.1445 16.2737L22.507 13.4032C22.0686 12.8461 23.1187 12.1815 23.603 12.7195Z" fill="#CFB1E9"/>
<path d="M42.955 7.54018C42.7556 7.61022 42.7301 7.95738 42.6926 8.35326L42.4115 10.8595C42.316 11.6817 42.9993 11.7426 43.0709 11.0117L43.3878 8.28626C43.4559 7.73508 43.2804 7.43969 42.955 7.54018Z" fill="#CFB1E9"/>
<path d="M46.6323 8.588C46.3628 8.69374 46.3223 8.94752 46.2078 9.37652L45.4445 11.7058C45.1893 12.4974 46.1649 12.8569 46.4153 12.1167L47.3431 9.35235C47.5554 8.6726 47.169 8.37652 46.6323 8.588Z" fill="#CFB1E9"/>
<path d="M50.3819 10.6381C50.0695 10.8333 49.999 11.1186 49.7447 11.5721L48.4979 13.6382C48.0599 14.428 49.2485 14.8484 49.6161 14.2088L51.2764 11.5361C51.6869 10.8484 51.016 10.2628 50.3819 10.6381Z" fill="#CFB1E9"/>
<path d="M53.6363 12.7594L51.5315 15.5999C51.0603 16.2763 51.9999 16.8713 52.4061 16.2763L54.2542 13.3545C54.6915 12.6624 54.0623 12.2239 53.6363 12.7594Z" fill="#CFB1E9"/>
</svg>
