<svg width="60" height="79" viewBox="0 0 60 79" fill="none" xmlns="http://www.w3.org/2000/svg">
<path d="M0.751686 0.75C0.728386 2.028 0.930296 5.96264 2.38684 11.3465C3.49488 15.4421 6.06118 22.0976 10.1767 29.5664C14.2922 37.0352 20.0605 45.0623 25.6835 51.7613C31.3065 58.4603 36.6095 63.588 40.5042 67.036C44.3988 70.484 46.7244 72.097 48.873 73.4207C51.0217 74.7445 52.923 75.7301 54.3527 76.3151C55.7823 76.9001 56.6827 77.0545 57.9053 77.4341" stroke="#86AFCC" stroke-width="1.5" stroke-linecap="round"/>
<path d="M58.775 76.9834C58.7557 76.5358 57.7289 73.2368 56.344 70.2919C55.231 68.4354 53.9312 65.9324 52.9311 63.6284C52.5426 62.7045 52.3958 62.2786 52.2031 61.8252" stroke="#86AFCC" stroke-width="1.5" stroke-linecap="round"/>
<path d="M58.99 78.1727C58.9783 78.1727 58.9667 78.1727 55.8956 78.1727C52.8244 78.1727 46.6942 78.1727 40.3027 77.9692" stroke="#86AFCC" stroke-width="1.5" stroke-linecap="round"/>
</svg>
