<svg width="101" height="63" viewBox="0 0 101 63" fill="none" xmlns="http://www.w3.org/2000/svg">
<path d="M0.75 0.75169C0.75 0.701688 1.62418 1.60614 5.40225 5.19971C13.0174 12.443 20.9037 18.7606 28.456 23.6665C33.2341 26.7703 40.4948 30.2088 50.8936 34.1886C61.2925 38.1685 74.7535 42.3523 83.2957 44.7679C91.838 47.1836 95.0537 47.7043 98.837 48.327" stroke="#86AFCC" stroke-width="1.5" stroke-linecap="round"/>
<path d="M99.2384 48.1016C99.135 48.1016 98.5549 47.6576 96.5473 45.6499C95.0664 44.0862 92.6473 41.4163 91.0209 39.5055C89.3946 37.5947 88.6342 36.524 86.8711 34.2817" stroke="#86AFCC" stroke-width="1.5" stroke-linecap="round"/>
<path d="M99.2819 48.2817C99.2319 48.33 96.9535 50.5774 93.2304 54.1724C91.1401 56.0002 89.5575 57.1563 87.7573 58.6189C86.9012 59.3944 86.1615 60.2376 83.8711 62.2244" stroke="#86AFCC" stroke-width="1.5" stroke-linecap="round"/>
</svg>
