<svg width="112" height="110" viewBox="0 0 112 110" fill="none" xmlns="http://www.w3.org/2000/svg">
<path d="M6.99561 82.501C7.04327 82.4662 7.40521 82.404 10.405 82.5498C13.0762 82.6796 18.0446 83.1659 22.1952 83.1953C26.3457 83.2247 29.5188 82.8447 33.7602 81.9805C38.0015 81.1162 43.215 79.7791 47.1804 78.4899C51.1458 77.2008 53.7051 76 57.0353 73.9946C60.3656 71.9892 64.3893 69.2154 67.5443 66.4873C70.6993 63.7592 72.8635 61.1607 75.9008 56.9935C78.9381 52.8264 82.4744 47.2737 84.7765 43.7062C87.8582 38.9304 89.1638 35.9326 90.3601 31.8856C91.1252 29.2974 92.0487 25.584 92.6631 23.0975C93.513 19.454 94.1178 17.1184 94.691 15.2456C94.9022 14.5163 94.9516 14.2356 94.964 13.7724" stroke="#86AFCC" stroke-width="1.5" stroke-linecap="round"/>
<path d="M6.46883 82.6155C6.48255 82.6007 7.01236 82.0455 8.86971 80.3342C12.3349 77.4071 15.6345 74.3962 17.4249 72.4274C18.111 71.6528 18.3454 71.3339 19.0793 70.4729" stroke="#86AFCC" stroke-width="1.5" stroke-linecap="round"/>
<path d="M6.62177 83.1433C6.63448 83.1583 6.64718 83.1733 7.10235 83.7103C7.55751 84.2472 8.45475 85.3057 9.88749 87.4383C11.3202 89.5708 13.2613 92.7454 15.6771 96.5524" stroke="#86AFCC" stroke-width="1.5" stroke-linecap="round"/>
</svg>
