<svg width="1600" height="99" viewBox="0 0 1600 99" fill="none" xmlns="http://www.w3.org/2000/svg">
<ellipse cx="50" cy="49.5" rx="50" ry="49.5" transform="matrix(1 0 0 -1 0 99)" fill="#5182A6"/>
<ellipse cx="50" cy="49.5" rx="50" ry="49.5" transform="matrix(1 0 0 -1 100 99)" fill="#5182A6"/>
<ellipse cx="50" cy="49.5" rx="50" ry="49.5" transform="matrix(1 0 0 -1 200 99)" fill="#5182A6"/>
<ellipse cx="50" cy="49.5" rx="50" ry="49.5" transform="matrix(1 0 0 -1 300 99)" fill="#5182A6"/>
<ellipse cx="50" cy="49.5" rx="50" ry="49.5" transform="matrix(1 0 0 -1 400 99)" fill="#5182A6"/>
<ellipse cx="50" cy="49.5" rx="50" ry="49.5" transform="matrix(1 0 0 -1 500 99)" fill="#5182A6"/>
<ellipse cx="50" cy="49.5" rx="50" ry="49.5" transform="matrix(1 0 0 -1 600 99)" fill="#5182A6"/>
<ellipse cx="50" cy="49.5" rx="50" ry="49.5" transform="matrix(1 0 0 -1 700 99)" fill="#5182A6"/>
<ellipse cx="50" cy="49.5" rx="50" ry="49.5" transform="matrix(1 0 0 -1 800 99)" fill="#5182A6"/>
<ellipse cx="50" cy="49.5" rx="50" ry="49.5" transform="matrix(1 0 0 -1 900 99)" fill="#5182A6"/>
<ellipse cx="50" cy="49.5" rx="50" ry="49.5" transform="matrix(1 0 0 -1 1000 99)" fill="#5182A6"/>
<ellipse cx="50" cy="49.5" rx="50" ry="49.5" transform="matrix(1 0 0 -1 1100 99)" fill="#5182A6"/>
<ellipse cx="50" cy="49.5" rx="50" ry="49.5" transform="matrix(1 0 0 -1 1200 99)" fill="#5182A6"/>
<ellipse cx="50" cy="49.5" rx="50" ry="49.5" transform="matrix(1 0 0 -1 1300 99)" fill="#5182A6"/>
<ellipse cx="50" cy="49.5" rx="50" ry="49.5" transform="matrix(1 0 0 -1 1400 99)" fill="#5182A6"/>
<ellipse cx="50" cy="49.5" rx="50" ry="49.5" transform="matrix(1 0 0 -1 1500 99)" fill="#5182A6"/>
</svg>
