<svg width="361" height="100" viewBox="0 0 361 100" fill="none" xmlns="http://www.w3.org/2000/svg">
<ellipse cx="30" cy="29.5" rx="30" ry="29.5" transform="matrix(1 0 0 -1 0 79.5)" fill="#5182A6"/>
<ellipse cx="30" cy="29.5" rx="30" ry="29.5" transform="matrix(1 0 0 -1 60 79.5)" fill="#5182A6"/>
<ellipse cx="30" cy="29.5" rx="30" ry="29.5" transform="matrix(1 0 0 -1 120 79.5)" fill="#5182A6"/>
<ellipse cx="30" cy="29.5" rx="30" ry="29.5" transform="matrix(1 0 0 -1 180 79.5)" fill="#5182A6"/>
<ellipse cx="30" cy="29.5" rx="30" ry="29.5" transform="matrix(1 0 0 -1 240 79.5)" fill="#5182A6"/>
<ellipse cx="30" cy="29.5" rx="30" ry="29.5" transform="matrix(1 0 0 -1 300 79.5)" fill="#5182A6"/>
</svg>
