<svg width="124" height="56" viewBox="0 0 124 56" fill="none" xmlns="http://www.w3.org/2000/svg">
<path d="M52.4408 34.6212C50.9511 34.7133 49.446 34.7901 47.9563 34.913C47.4187 34.9591 47.3573 35.1434 47.6184 35.6195C47.8948 36.0956 48.202 36.5563 48.4477 37.0478C48.8317 37.8157 48.4784 38.4146 47.603 38.4607C46.574 38.5222 45.7908 37.9385 45.2072 37.2321C44.5161 36.3874 43.9171 35.4505 43.441 34.4676C42.842 33.239 43.5024 32.1485 44.8386 31.8721C45.3454 31.7799 45.8522 31.7185 46.359 31.6264C46.743 31.5649 46.9733 31.4421 47.0194 30.9506C47.4341 27.1879 47.987 23.4405 48.9545 19.7699C49.2771 18.5566 49.7071 17.328 50.3368 16.2529C51.2122 14.7171 53.0091 14.7632 54.0534 16.1915C54.7753 17.1744 55.1899 18.2802 55.4664 19.4474C55.8811 21.1828 56.3879 22.8876 56.7257 24.6384C57.1251 26.6964 57.4015 28.7851 57.6933 30.8738C57.7701 31.396 58.0005 31.5956 58.4919 31.6417C58.9834 31.6878 59.4749 31.7646 59.951 31.8721C61.2871 32.1639 61.8093 32.9318 61.3639 34.2526C60.7496 36.0495 59.6131 37.4624 57.8776 38.3225C57.6012 38.4607 57.2479 38.4761 56.9408 38.4607C56.0807 38.3993 55.7121 37.6467 56.1729 36.9095C56.4339 36.4949 56.7104 36.0802 56.9868 35.6809C57.294 35.2355 57.2326 35.0205 56.695 34.9744C55.5278 34.8669 54.3452 34.8055 53.178 34.7441C52.9323 34.7287 52.6866 34.7441 52.4408 34.7441C52.4408 34.6673 52.4408 34.6519 52.4408 34.6212ZM52.4101 22.9644C52.3333 22.9644 52.2565 22.9644 52.1797 22.949C52.0876 23.1487 51.9647 23.333 51.9187 23.5326C51.719 24.3927 51.5194 25.2681 51.3504 26.1435C51.074 27.6486 50.8129 29.1537 50.5671 30.6588C50.4443 31.4113 50.5364 31.5035 51.2736 31.5035C52.0262 31.5035 52.7941 31.4881 53.5466 31.5035C54.0381 31.5189 54.2377 31.396 54.1149 30.8431C53.7156 28.9848 53.3777 27.0957 52.9784 25.2374C52.8401 24.4848 52.6098 23.7169 52.4101 22.9644Z" fill="#5182A6"/>
<path d="M83.478 29.0462C83.9541 28.478 84.3227 28.0479 84.6913 27.6025C86.2424 25.7749 87.7936 23.932 89.3755 22.1197C89.8823 21.5361 90.5734 21.2136 91.372 21.4286C92.1707 21.659 92.5393 22.2886 92.616 23.0412C92.7235 24.2084 92.7543 25.391 92.7389 26.5582C92.7082 28.2783 92.6007 30.0138 92.5546 31.7339C92.5239 32.8397 92.57 33.9454 92.5393 35.0359C92.5085 36.3106 91.5256 37.1399 90.4505 36.8174C89.6212 36.5563 89.1297 35.9266 88.8994 35.128C88.5769 33.9762 88.3618 32.8089 88.5154 31.5957C88.6076 30.9199 88.5615 30.2288 88.5615 29.553C88.5615 29.3841 88.4694 29.1998 88.4233 29.0308C88.2697 29.1076 88.07 29.1537 87.9625 29.2919C87.0718 30.367 86.1349 31.4114 85.3209 32.5479C84.5838 33.5769 84.0155 34.7287 83.3397 35.8038C82.9404 36.4335 82.3722 36.9249 81.5736 36.8481C80.8057 36.7867 80.2067 36.372 79.8995 35.6502C79.5617 34.8669 79.3466 34.0376 79.5002 33.1622C79.5156 33.07 79.5156 32.9779 79.5156 32.8857C79.5617 30.3056 79.6384 27.7254 79.6384 25.1452C79.6384 23.7016 79.4849 22.2733 79.4388 20.8296C79.4081 19.8774 79.9302 19.1863 80.7289 19.002C81.7886 18.7409 82.8636 19.4935 83.0633 20.63C83.4472 22.7955 83.478 24.961 83.309 27.1418C83.2629 27.6793 83.2015 28.2783 83.478 29.0462Z" fill="#5182A6"/>
<path d="M64.9427 27.4336C65.726 25.5599 66.7396 23.8398 68.4443 22.6572C69.8573 21.6897 71.3931 21.2904 73.0518 21.92C74.1729 22.3347 74.7872 23.2101 75.079 24.3313C75.0944 24.3927 75.1251 24.4541 75.1405 24.5156C75.1558 24.6077 75.1712 24.6845 75.1866 24.7767C75.1558 24.8227 75.0944 24.8688 75.0944 24.9149C75.248 26.036 75.3862 27.1572 75.5705 28.2629C75.5859 28.3704 75.8777 28.4472 76.0466 28.524C76.2463 28.6162 76.5688 28.6469 76.6149 28.7851C76.7531 29.1844 76.8299 29.6145 76.7992 30.0291C76.7838 30.1673 76.3845 30.3209 76.1388 30.3977C75.463 30.582 75.3862 30.797 75.8469 31.3806C75.8623 31.5342 75.8623 31.6878 75.8777 31.8414C75.893 32.4096 75.8777 32.9932 75.9084 33.5615C75.9545 34.1758 76.0466 34.7901 76.108 35.4198C76.1234 35.5734 76.062 35.7577 75.9698 35.8806C75.8009 36.0956 75.5705 36.2645 75.3094 36.4949C75.079 36.4795 74.7565 36.3874 74.4494 36.4181C73.5279 36.541 72.9903 36.1109 72.6371 35.3123C72.4835 34.9744 72.2224 34.6826 72.0074 34.3601C72.0074 34.2987 71.9921 34.2219 71.9921 34.1605C71.946 33.9915 71.8999 33.8379 71.8538 33.669C71.8385 33.5154 71.8231 33.3618 71.7924 33.2083C71.8385 32.6246 71.8846 32.0564 71.9306 31.396C71.731 31.4881 71.6542 31.5342 71.562 31.5649C71.4085 31.5649 71.2395 31.5803 71.0859 31.5803C70.7788 31.5189 70.4563 31.396 70.1644 31.4267C69.5655 31.4881 68.9665 31.611 68.3829 31.7646C68.1525 31.826 67.7532 31.7339 67.7839 32.1946C67.7686 32.2407 67.7532 32.2714 67.7379 32.3175C67.3386 32.3328 67.3846 32.6246 67.3846 32.8857C67.3693 33.6536 67.4 34.4369 67.2925 35.2048C67.2464 35.5734 66.9392 35.9266 66.7242 36.2645C66.6628 36.3567 66.4939 36.4027 66.371 36.4181C65.9256 36.4642 65.4649 36.541 65.0195 36.5103C64.8045 36.4949 64.528 36.3106 64.4052 36.1263C64.2209 35.8191 64.1594 35.4505 64.0058 35.1127C63.9444 34.9591 63.7908 34.8516 63.6833 34.7287C63.6833 34.5751 63.668 34.4215 63.668 34.268C63.668 33.5461 63.6833 32.8243 63.6833 32.1025C63.6987 32.0257 63.6987 31.9489 63.714 31.8721C63.8062 31.7646 63.9598 31.6878 63.9905 31.5649C64.1901 30.751 64.3437 29.9216 64.528 29.1076C64.6662 28.5394 64.8045 27.9865 64.9427 27.4336ZM71.5313 27.664C71.4852 27.1879 71.4085 26.4353 71.3009 25.6981C71.2088 25.0838 70.917 24.9763 70.4563 25.391C69.5194 26.2357 68.9204 27.2954 68.5672 28.4933C68.4443 28.8926 68.6133 29.0308 68.9819 28.9848C69.5808 28.9233 70.1798 28.8466 70.7788 28.7851C71.5467 28.7083 71.5467 28.7083 71.5313 27.664Z" fill="#5182A6"/>
<path d="M111.768 28.6315C111.937 28.6162 112.182 28.6469 112.274 28.5547C113.288 27.3722 114.271 26.1589 115.3 24.9609C115.822 24.362 116.329 23.7477 116.928 23.2408C117.773 22.519 118.894 22.4883 119.462 23.763C119.431 23.8705 119.355 23.978 119.37 24.0855C119.462 24.7459 119.554 25.4063 119.662 26.0667C119.708 26.3278 119.8 26.5736 119.877 26.8193C119.877 26.9729 119.892 27.1264 119.892 27.2954C119.861 28.0479 119.831 28.8005 119.8 29.553C119.754 30.7663 119.754 31.9796 119.677 33.1775C119.631 33.8533 119.431 34.4983 119.355 35.1741C119.278 35.9881 118.725 36.541 117.926 36.5256C117.819 36.5256 117.619 36.5103 117.604 36.4642C117.45 35.7577 116.544 35.5734 116.529 34.6673C116.498 33.5308 116.222 32.4096 116.559 31.2578C116.636 30.9813 116.375 30.5974 116.283 30.2595C116.283 30.1827 116.283 30.1059 116.283 30.0291C116.329 29.9216 116.375 29.8141 116.421 29.7066C116.099 29.6452 115.607 29.4302 115.5 29.5684C115.146 29.9677 114.931 30.4899 114.67 30.966C113.626 32.5939 112.582 34.2372 111.507 35.8652C111.353 36.0956 111.123 36.2492 110.923 36.4488C110.539 36.4488 110.155 36.4335 109.786 36.4335C109.095 36.4181 108.481 36.0034 108.404 35.343C108.281 34.2987 108.189 33.239 108.174 32.1793C108.159 31.0274 108.235 29.8755 108.281 28.7083C108.297 28.1401 108.389 27.5718 108.374 27.0189C108.327 25.7596 108.205 24.4848 108.189 23.2255C108.174 22.7647 108.251 22.1965 108.512 21.8433C108.788 21.4593 109.326 21.275 109.648 21.0753C110.094 21.3518 110.447 21.5207 110.754 21.7511C110.923 21.874 111.077 22.0583 111.123 22.2426C111.276 22.8722 111.399 23.5019 111.522 24.1316C111.522 24.1623 111.614 24.1777 111.66 24.2084C111.66 24.4848 111.676 24.7459 111.676 25.0224C111.66 25.0531 111.614 25.0838 111.614 25.1145C111.568 26.1896 111.537 27.2647 111.507 28.3551C111.522 28.4319 111.676 28.5394 111.768 28.6315Z" fill="#5182A6"/>
<path d="M100.909 36.971C98.3597 36.8635 96.3171 35.512 95.4109 33.1468C94.0287 29.553 94.7352 26.2357 97.1618 23.3791C98.6976 21.5668 100.756 20.6761 103.228 21.3825C105.087 21.9047 106.254 23.9473 105.655 25.6982C105.378 26.5275 104.841 26.8807 103.904 26.8347C103.182 26.8039 102.752 26.3893 102.537 25.5446C102.445 25.1606 102.522 24.6692 102.046 24.4541C101.508 24.2084 101.001 24.3927 100.541 24.6845C99.788 25.1453 99.4194 25.9285 99.143 26.7118C98.5901 28.263 98.4518 29.8602 99.0047 31.4421C99.573 33.0854 100.679 33.7458 102.291 33.3004C102.814 33.1622 103.29 32.7936 103.75 32.4711C104.395 32.0257 105.163 31.9028 105.578 32.2561C106.023 32.6554 106.146 33.7304 105.778 34.3294C105.163 35.3123 104.257 35.9267 103.213 36.326C102.491 36.6178 101.692 36.7714 100.909 36.971Z" fill="#5182A6"/>
<path d="M88.4534 16.2836C88.607 16.0379 88.6992 15.7768 88.8834 15.6386C89.2213 15.3775 89.5899 15.0703 89.9739 14.9935C91.0336 14.7939 91.8322 15.6232 91.5711 16.6676C91.4329 17.2358 91.1411 17.8194 90.7418 18.2341C90.1582 18.8638 89.421 19.3553 88.7452 19.9081C88.392 20.1999 88.0387 20.1999 87.6702 19.9235C86.6565 19.2017 85.7504 18.3877 85.2129 17.2358C84.7675 16.299 85.0746 15.3621 85.8733 14.9935C86.4876 14.7171 87.1787 14.84 87.6394 15.3468C87.8698 15.5925 88.0695 15.8536 88.4534 16.2836Z" fill="#5182A6"/>
<path d="M86.3811 45.6483C86.1046 45.7405 85.8282 45.8326 85.5518 45.9248C85.5057 45.8633 85.475 45.8019 85.4289 45.7405C85.7053 45.3258 85.9357 44.8651 86.2582 44.4965C86.6575 44.0664 86.6268 43.7439 86.2275 43.3446C85.9357 43.0528 85.69 42.6996 85.3828 42.3156C86.6115 41.9624 86.7343 43.0835 87.3947 43.6211C87.3947 43.1296 87.3947 42.7303 87.3947 42.2695C87.6712 42.2542 87.8862 42.2388 88.1626 42.2235C88.1626 42.7149 88.1626 43.1603 88.1626 43.6825C88.5619 43.191 88.8384 42.761 89.2223 42.4231C89.4066 42.2542 89.7599 42.2542 90.021 42.1774C90.067 42.2235 90.0978 42.2849 90.1438 42.331C89.8827 42.7149 89.6677 43.1296 89.3606 43.4521C88.992 43.8361 89.0534 44.1279 89.3452 44.4965C89.6524 44.8958 89.9288 45.3258 90.2513 45.7866C89.0227 46.1705 88.992 44.819 88.1934 44.4658C88.1934 44.8804 88.2241 45.2183 88.178 45.5408C88.1626 45.679 87.9937 45.848 87.8555 45.8941C87.748 45.9248 87.5944 45.7558 87.4715 45.6637C87.4715 45.2183 87.4715 44.7883 87.4715 44.3429C87.4254 44.3275 87.3794 44.3122 87.3333 44.2815C87.0108 44.7422 86.7036 45.2029 86.3811 45.6483Z" fill="#5182A6"/>
<path d="M44.5283 45.8787C44.4976 46.0937 44.5283 46.2473 44.4669 46.3394C44.3901 46.4623 44.2365 46.6466 44.1444 46.6312C43.9908 46.6005 43.7451 46.4469 43.7451 46.3394C43.7604 45.848 43.484 45.2644 44.1751 44.9418C44.3133 44.8804 44.3748 44.5579 44.4055 44.3429C44.4823 43.6671 44.513 42.9914 44.5744 42.2695C45.3884 42.2695 46.2024 42.2695 47.1085 42.2695C47.1085 43.0528 47.1085 43.8361 47.1085 44.6347C47.1085 44.9572 47.0624 45.2797 47.5539 45.1722C47.5539 45.679 47.5539 46.1244 47.5539 46.6159C47.3235 46.6312 47.1239 46.6312 46.9242 46.6466C46.8781 45.8787 46.8781 45.8787 46.1102 45.8633C45.6034 45.8633 45.0812 45.8787 44.5283 45.8787ZM45.0505 45.1569C45.4805 45.1569 45.9259 45.1569 46.3867 45.1569C46.3867 44.3736 46.3867 43.6364 46.3867 42.9146C46.1102 42.9146 45.8491 42.8685 45.6188 42.9299C45.4498 42.976 45.2348 43.1603 45.2041 43.3139C45.1273 43.9128 45.0966 44.5118 45.0505 45.1569Z" fill="#5182A6"/>
<path d="M76.6434 42.331C76.6741 42.9914 76.7048 43.6057 76.7355 44.2354C76.7355 44.2507 76.7662 44.2507 76.8584 44.2968C77.2577 43.7746 77.6724 43.2524 78.0563 42.6996C78.3942 42.2235 78.3788 42.2235 79.0546 42.3002C79.0546 43.3753 79.07 44.4811 79.0239 45.5715C79.0239 45.7097 78.6553 45.8172 78.4556 45.9401C78.4096 45.894 78.3481 45.848 78.302 45.8019C78.302 45.1261 78.302 44.4657 78.302 43.79C78.256 43.7746 78.2253 43.7746 78.1792 43.7593C77.7492 44.3429 77.2884 44.9111 76.8891 45.5101C76.6894 45.8019 76.4284 45.9862 76.1366 45.8173C75.9983 45.7405 75.9369 45.4026 75.9215 45.1876C75.8908 44.4043 75.9062 43.6364 75.9062 42.8531C75.9062 42.2235 75.9676 42.1927 76.6434 42.331Z" fill="#5182A6"/>
<path d="M97.9751 43.9743C98.0519 44.3583 98.2669 44.7729 98.1594 45.1108C98.0058 45.633 97.5144 45.8787 96.9461 45.8787C96.5468 45.8787 96.1475 45.8633 95.7482 45.8941C95.3489 45.9248 95.1953 45.7405 95.1953 45.3565C95.1953 44.3583 95.1953 43.3446 95.1953 42.3003C95.9939 42.3003 96.7004 42.2081 97.3762 42.331C98.1287 42.4692 98.2669 43.1142 97.8062 43.9589C97.8523 43.9589 97.9137 43.9589 97.9751 43.9743ZM96.6543 45.2029C97.0229 45.1876 97.499 45.2644 97.4837 44.7115C97.4683 44.2507 97.0383 44.2815 96.7004 44.2968C96.3932 44.3122 95.9786 44.1432 95.9632 44.7115C95.9479 45.2644 96.3011 45.2029 96.6543 45.2029ZM95.8404 43.7132C96.3472 43.7132 96.639 43.7439 96.9308 43.6978C97.069 43.6825 97.2226 43.5289 97.2994 43.406C97.3454 43.3293 97.284 43.0682 97.2379 43.0682C96.9001 42.9914 96.5315 42.9146 96.2089 42.9607C96.0707 42.976 95.9939 43.36 95.8404 43.7132Z" fill="#5182A6"/>
<path d="M94.0922 45.8019C93.6161 45.9709 93.4165 45.848 93.4318 45.3566C93.4318 44.8497 93.3704 44.3429 93.3243 43.6825C92.8943 44.2815 92.5257 44.7729 92.1725 45.2951C91.9114 45.6637 91.6503 46.0169 91.082 45.8019C91.082 44.6501 91.082 43.4982 91.082 42.3464C91.7117 42.1313 91.8807 42.2696 91.8039 42.9146C91.7578 43.3754 91.7424 43.8361 91.7117 44.4043C92.6946 43.8054 92.7561 42.3617 94.0922 42.1928C94.0922 43.4675 94.0922 44.604 94.0922 45.8019Z" fill="#5182A6"/>
<path d="M48.5068 45.8019C48.5068 44.7269 48.4915 43.6672 48.5068 42.6074C48.5222 42.116 48.8908 42.2696 49.244 42.2849C49.244 42.976 49.244 43.6364 49.244 44.3122C49.2901 44.3275 49.3362 44.3583 49.3822 44.3736C49.7969 43.8207 50.2116 43.2678 50.6262 42.6996C50.703 42.5921 50.7491 42.4385 50.8566 42.3924C51.0102 42.3156 51.2252 42.2542 51.3788 42.3003C51.4709 42.331 51.5631 42.5614 51.5784 42.6996C51.5938 43.4829 51.5784 44.2508 51.5938 45.034C51.5938 45.2644 51.6399 45.5101 51.6706 45.7559C51.0563 46.063 50.9027 45.9709 50.9027 45.3258C50.9027 44.8804 50.9027 44.4351 50.9027 43.9897C50.8259 43.959 50.7645 43.9282 50.6877 43.9129C50.2884 44.4351 49.8891 44.9572 49.5051 45.4948C49.2594 45.7712 48.9983 45.9862 48.5068 45.8019Z" fill="#5182A6"/>
<path d="M64.5888 42.2542C65.4489 42.2542 66.2168 42.2388 66.9847 42.2696C67.0615 42.2696 67.1997 42.4692 67.1997 42.5921C67.2151 43.575 67.2304 44.5733 67.1844 45.5562C67.1844 45.6944 66.9079 45.8173 66.7697 45.9555C66.6622 45.8173 66.4779 45.6791 66.4625 45.5255C66.4318 44.8497 66.4165 44.1586 66.4472 43.4829C66.4625 43.0989 66.2936 42.9914 65.9404 43.0068C65.6025 43.0068 65.3721 43.0375 65.3568 43.4829C65.326 44.0511 65.2492 44.6194 65.1264 45.1722C65.0189 45.6791 64.681 45.9709 64.1435 45.8941C64.0206 45.8787 63.867 45.7712 63.8363 45.6637C63.8056 45.5408 63.867 45.2951 63.9284 45.2798C64.7117 45.034 64.5121 44.3429 64.5888 43.8054C64.6503 43.3139 64.5888 42.8225 64.5888 42.2542Z" fill="#5182A6"/>
<path d="M79.8555 45.7866C79.9937 45.6023 80.0705 45.4487 80.178 45.3258C80.5312 44.9265 80.6234 44.5886 80.2241 44.1125C79.6558 43.4368 80.0705 42.4539 80.9305 42.3156C81.5141 42.2235 82.1285 42.2389 82.8042 42.1928C82.8042 43.3754 82.8196 44.4658 82.7889 45.5562C82.7889 45.6637 82.5431 45.8173 82.4049 45.8327C82.2974 45.848 82.1131 45.6791 82.0824 45.5562C82.021 45.3873 82.0824 45.1723 82.0517 44.988C82.0363 44.8651 81.9288 44.6347 81.8827 44.6347C81.7138 44.6501 81.5295 44.7115 81.422 44.819C81.2531 44.988 81.1148 45.203 80.992 45.418C80.7462 45.8941 80.393 45.9709 79.8555 45.7866ZM82.021 44.1586C82.0824 44.0818 82.1592 44.005 82.2206 43.9282C82.1285 43.5904 82.1438 43.0989 81.9288 42.9607C81.7138 42.8225 81.2377 42.9607 80.9305 43.0989C80.823 43.145 80.7616 43.6979 80.823 43.7286C81.207 43.9129 81.6217 44.0204 82.021 44.1586Z" fill="#5182A6"/>
<path d="M71.6694 44.0511C71.6694 45.249 71.0551 45.8787 69.8571 45.8633C68.6899 45.8633 68.1217 45.2336 68.137 43.9589C68.137 42.8992 68.8589 42.2234 69.9493 42.2234C71.0858 42.2234 71.6694 42.8378 71.6694 44.0511ZM69.8418 42.8992C69.2735 42.8992 68.8128 43.4214 68.8281 44.0357C68.8435 44.7575 69.2428 45.2029 69.8725 45.2029C70.5636 45.2029 70.9783 44.7422 70.9783 43.9743C70.9629 43.3292 70.5175 42.8992 69.8418 42.8992Z" fill="#5182A6"/>
<path d="M59.6738 44.0818C59.5356 42.9914 60.4724 42.1774 61.3939 42.2081C62.5611 42.2542 63.2062 42.8685 63.2062 44.0511C63.2062 45.1415 62.5304 45.8633 61.486 45.8633C60.2574 45.8787 59.6738 45.3105 59.6738 44.0818ZM60.3649 43.9897C60.3495 44.7115 60.7796 45.2029 61.4246 45.2183C62.0697 45.2337 62.5304 44.7422 62.5304 44.0357C62.5304 43.406 62.085 42.9146 61.5014 42.8992C60.8564 42.8839 60.3649 43.3446 60.3649 43.9897Z" fill="#5182A6"/>
<path d="M107.498 42.1006C107.544 42.4077 107.56 42.4692 107.575 42.546C107.636 43.8668 107.636 43.8668 109.096 43.6364C109.096 43.2064 109.096 42.761 109.096 42.3463C109.833 42.162 109.879 42.1927 109.879 42.8071C109.879 43.79 109.879 44.7729 109.879 45.8326C109.633 45.848 109.418 45.848 109.111 45.8633C109.111 45.5101 109.096 45.2183 109.111 44.9265C109.126 44.5425 108.988 44.3429 108.589 44.3736C108.42 44.3889 108.251 44.3889 108.082 44.3736C107.713 44.3429 107.56 44.5118 107.575 44.8804C107.575 45.0186 107.56 45.1415 107.575 45.2797C107.621 45.8173 107.375 45.9555 106.807 45.7865C106.807 44.7115 106.792 43.621 106.838 42.5306C106.838 42.3924 107.206 42.2849 107.498 42.1006Z" fill="#5182A6"/>
<path d="M102.462 44.0818C102.447 45.2797 101.832 45.8787 100.619 45.8787C99.5287 45.8634 98.899 45.1569 98.9143 43.9897C98.9297 42.9146 99.6515 42.2235 100.757 42.2388C101.894 42.2388 102.477 42.8685 102.462 44.0818ZM100.65 45.2183C101.326 45.2183 101.771 44.7729 101.786 44.0665C101.802 43.3907 101.372 42.8992 100.757 42.8992C100.097 42.8992 99.6362 43.3293 99.6362 43.9897C99.6208 44.7422 100.005 45.2183 100.65 45.2183Z" fill="#5182A6"/>
<path d="M119.186 45.7712C118.05 46.1244 117.942 45.1569 117.466 44.65C116.944 45.0954 116.867 46.1858 115.73 45.7865C115.976 45.4333 116.191 45.0801 116.452 44.7575C116.928 44.1893 116.944 43.8975 116.514 43.3139C116.299 43.0067 116.068 42.7149 115.853 42.4078C115.838 42.3924 115.853 42.377 115.853 42.3463C116.376 42.1467 116.376 42.1467 117.435 43.2524C117.911 42.9146 118.003 41.947 119.032 42.331C118.756 42.7763 118.51 43.2217 118.203 43.6364C117.957 43.9589 117.988 44.1893 118.218 44.4811C118.541 44.8804 118.833 45.2951 119.186 45.7712Z" fill="#5182A6"/>
<path d="M55.2511 42.9146C54.8671 42.9146 54.4985 42.9146 54.1453 42.9146C53.4849 42.9146 53.4542 42.9607 53.5924 43.6979C54.0838 43.6979 54.5907 43.6979 55.1128 43.6979C55.2971 44.1586 55.205 44.389 54.7135 44.3736C54.4524 44.3583 54.176 44.3275 53.9149 44.389C53.7613 44.4197 53.577 44.5733 53.531 44.7269C53.4542 45.0033 53.6231 45.1262 53.9149 45.1262C54.4064 45.1262 54.8825 45.1569 55.42 45.1876C55.3893 45.4026 55.3432 45.6023 55.3125 45.848C54.4985 45.848 53.7153 45.848 52.8398 45.848C52.8398 44.6193 52.8398 43.4368 52.8398 42.2542C53.5463 42.2542 54.176 42.2696 54.821 42.2542C55.2971 42.2235 55.4354 42.4078 55.2511 42.9146Z" fill="#5182A6"/>
<path d="M111.676 24.2084C111.63 24.1777 111.538 24.1623 111.538 24.1316C111.4 23.5019 111.292 22.8723 111.138 22.2426C111.092 22.0583 110.923 21.8586 110.77 21.7511C110.463 21.5207 110.109 21.3364 109.664 21.0754C109.357 21.275 108.804 21.4593 108.528 21.8433C108.266 22.1965 108.205 22.7647 108.205 23.2255C108.22 24.4849 108.359 25.7596 108.389 27.0189C108.405 27.5872 108.313 28.1554 108.297 28.7083C108.251 29.8602 108.174 31.012 108.19 32.1793C108.205 33.239 108.297 34.2987 108.42 35.343C108.497 36.0034 109.111 36.4181 109.802 36.4335C110.186 36.4335 110.555 36.4488 110.939 36.4488C110.079 37.186 108.865 36.7099 108.343 35.7577C107.806 34.7901 107.883 33.7612 107.975 32.7475C108.251 29.6605 108.19 26.5736 107.867 23.5019C107.79 22.734 107.821 21.9815 108.359 21.3518C109.188 20.3842 110.939 20.6607 111.4 22.2733C111.584 22.8723 111.584 23.548 111.676 24.2084Z" fill="#5182A6"/>
<path d="M111.753 42.2849C111.892 43.3293 111.892 43.3139 112.951 43.4982C113.412 43.575 113.842 43.7286 113.888 44.3275C113.919 44.9419 113.842 45.6637 113.12 45.7558C112.521 45.848 111.907 45.848 111.308 45.848C111.216 45.848 111.062 45.633 111.062 45.5101C111.047 44.5579 111.047 43.6057 111.047 42.6535C111.047 42.1313 111.4 42.2388 111.753 42.2849ZM111.615 44.0664C111.738 44.4965 111.723 45.0186 111.938 45.1262C112.199 45.2797 112.659 45.1415 112.997 45.0186C113.105 44.9879 113.197 44.5733 113.12 44.4197C112.828 43.8668 112.276 44.0818 111.615 44.0664Z" fill="#5182A6"/>
<path d="M116.285 30.2441C116.392 30.582 116.653 30.966 116.561 31.2424C116.223 32.3943 116.515 33.5154 116.531 34.6519C116.546 35.5581 117.452 35.7423 117.606 36.4488C117.621 36.4949 117.805 36.5103 117.928 36.5103C118.727 36.5256 119.28 35.9727 119.357 35.1587C119.418 34.483 119.633 33.8379 119.679 33.1622C119.756 31.9489 119.771 30.7356 119.802 29.5377C119.833 28.7851 119.863 28.0326 119.894 27.28C119.925 27.4643 120.002 27.6333 120.002 27.8176C119.971 29.8755 119.971 31.9489 119.879 34.0069C119.848 34.698 119.679 35.4352 119.387 36.0495C119.234 36.372 118.711 36.6024 118.312 36.7099C117.652 36.8788 117.022 36.6024 116.746 35.9727C116.469 35.3123 116.239 34.5751 116.193 33.8533C116.131 32.6707 116.254 31.4574 116.285 30.2441Z" fill="#5182A6"/>
<path d="M57.9839 45.8326C57.6767 45.8326 57.4617 45.8326 57.1852 45.8326C57.1852 45.0033 57.1699 44.22 57.2006 43.4214C57.216 43.0221 57.0777 42.8685 56.6784 42.8992C56.4481 42.9146 56.1562 42.9914 56.1562 42.5767C56.1562 42.1313 56.4788 42.2388 56.7245 42.2388C57.3542 42.2234 57.9839 42.2542 58.5982 42.2235C59.1204 42.1927 59.1664 42.4231 59.0282 42.8685C58.7057 42.8838 58.3985 42.8992 57.9839 42.9299C57.9839 43.8975 57.9839 44.8497 57.9839 45.8326Z" fill="#5182A6"/>
<path d="M105.934 42.8839C105.596 42.8992 105.274 42.9299 104.874 42.9607C104.874 43.9282 104.874 44.8651 104.874 45.8019C104.367 45.9708 104.152 45.8941 104.168 45.3565C104.198 44.6654 104.168 43.9589 104.137 43.2678C104.137 43.1603 103.983 43.0221 103.861 42.9453C103.799 42.8992 103.676 42.9453 103.584 42.9299C103.323 42.9146 103.031 43.0067 103.031 42.5613C103.031 42.1467 103.338 42.2542 103.553 42.2388C104.198 42.2235 104.844 42.2695 105.489 42.2388C105.995 42.2081 106.072 42.4231 105.934 42.8839Z" fill="#5182A6"/>
<path d="M75.0909 42.2388C75.2291 42.7303 75.1216 42.9146 74.6609 42.9146C73.4476 42.9299 73.4476 42.9453 73.4476 44.1432C73.4476 44.6961 73.4476 45.2336 73.4476 45.7712C72.7258 45.9401 72.6797 45.9094 72.6797 45.249C72.6797 44.3889 72.695 43.5442 72.6797 42.6842C72.6797 42.331 72.8026 42.2234 73.1404 42.2234C73.7855 42.2542 74.4305 42.2388 75.0909 42.2388Z" fill="#5182A6"/>
<path d="M72.0039 34.3601C72.2189 34.6673 72.48 34.9591 72.6336 35.3123C72.9868 36.1109 73.509 36.5563 74.4458 36.4181C74.753 36.372 75.0755 36.4642 75.3059 36.4949C75.5516 36.2645 75.782 36.0956 75.9663 35.8806C76.0584 35.7577 76.1199 35.5734 76.1045 35.4198C76.0584 34.8055 75.9509 34.1912 75.9049 33.5615C75.8588 32.9932 75.8742 32.4096 75.8742 31.8414C76.0892 32.8396 76.3656 33.8226 76.5192 34.8208C76.6881 35.9266 75.8588 36.7713 74.7376 36.8635C73.0943 37.0017 72.1575 35.8498 72.0039 34.3601Z" fill="#5182A6"/>
<path d="M114.995 45.8326C114.688 45.8326 114.488 45.8326 114.258 45.8326C114.258 44.65 114.258 43.4982 114.258 42.3463C114.918 42.1313 114.995 42.1774 114.995 42.8378C114.995 43.8207 114.995 44.8036 114.995 45.8326Z" fill="#5182A6"/>
<path d="M63.6953 34.698C63.8028 34.8209 63.9564 34.9437 64.0178 35.082C64.1714 35.4198 64.2328 35.7884 64.4171 36.0956C64.54 36.2799 64.8011 36.4642 65.0315 36.4795C65.4769 36.5103 65.9376 36.4488 66.383 36.3874C66.5058 36.372 66.6748 36.326 66.7362 36.2338C66.9512 35.8959 67.2584 35.5427 67.3045 35.1741C67.412 34.4215 67.3813 33.6383 67.3966 32.855C67.3966 32.5939 67.3505 32.3021 67.7499 32.2868C67.7191 33.1161 67.6731 33.9455 67.6577 34.7748C67.627 35.6809 67.0434 36.6024 66.2908 36.8021C65.2926 37.0631 64.2021 36.7867 63.8335 35.4505C63.7414 35.2355 63.726 34.9591 63.6953 34.698Z" fill="#5182A6"/>
<path d="M75.8307 31.396C75.3699 30.8124 75.4467 30.5974 76.1225 30.4131C76.3682 30.3363 76.7829 30.198 76.7829 30.0445C76.8136 29.6298 76.7368 29.1998 76.5986 28.8005C76.5525 28.6622 76.2146 28.6315 76.0303 28.5394C75.8614 28.4626 75.5696 28.3858 75.5542 28.2783C75.3699 27.1725 75.2317 26.0514 75.0781 24.9302C75.0781 24.8841 75.1396 24.8381 75.1703 24.792C75.3239 25.7596 75.4774 26.7271 75.6003 27.6947C75.6464 28.0172 75.6924 28.2015 76.0764 28.2629C76.8289 28.3704 77.1975 28.7851 77.2283 29.4455C77.259 30.152 77.0132 30.5052 76.23 30.7202C75.846 30.8124 75.8614 31.0888 75.8307 31.396Z" fill="#5182A6"/>
<path d="M64.9399 27.4336C64.8016 27.9865 64.6634 28.5394 64.5405 29.0923C64.3562 29.9063 64.2027 30.7356 64.003 31.5496C63.9723 31.6724 63.8187 31.7492 63.7266 31.8567C63.8494 30.3056 64.2334 28.8312 64.9399 27.4336Z" fill="#5182A6"/>
<path d="M119.876 26.8346C119.799 26.5889 119.692 26.3432 119.661 26.0821C119.553 25.4217 119.446 24.7613 119.369 24.1009C119.354 23.9934 119.431 23.8859 119.461 23.7784C119.876 24.7459 119.937 25.7749 119.876 26.8346Z" fill="#5182A6"/>
<path d="M67.7829 32.1792C67.7522 31.7185 68.1515 31.8107 68.3819 31.7492C68.9655 31.5956 69.5645 31.4728 70.1634 31.4113C70.4552 31.3806 70.7778 31.5035 71.0849 31.5649C70.2863 31.6878 69.4877 31.8107 68.6891 31.9335C68.3819 32.0103 68.0901 32.1025 67.7829 32.1792Z" fill="#5182A6"/>
<path d="M111.767 28.6315C111.69 28.524 111.521 28.4319 111.536 28.3244C111.551 27.2493 111.598 26.1742 111.644 25.0838C111.644 25.0531 111.69 25.0224 111.705 24.9917C111.72 26.2203 111.736 27.4183 111.767 28.6315Z" fill="#5182A6"/>
<path d="M114.672 30.9506C114.933 30.4745 115.148 29.9523 115.501 29.553C115.609 29.4302 116.1 29.6452 116.423 29.6912C116.377 29.7988 116.331 29.9063 116.284 30.0138C116.223 29.9063 116.146 29.7988 116.008 29.5684C115.547 30.0445 115.117 30.4899 114.672 30.9506Z" fill="#5182A6"/>
<path d="M63.699 32.0871C63.699 32.809 63.6836 33.5308 63.6836 34.2526C63.6836 33.5308 63.6836 32.809 63.699 32.0871Z" fill="#5182A6"/>
<path d="M71.5742 31.5649C71.651 31.5342 71.7432 31.4881 71.9428 31.396C71.8967 32.0564 71.8507 32.6246 71.8046 33.2082C71.7124 32.6707 71.6357 32.1178 71.5742 31.5649Z" fill="#5182A6"/>
<path d="M71.8359 33.6843C71.882 33.8533 71.9281 34.0068 71.9742 34.1758C71.9434 34.0068 71.882 33.8379 71.8359 33.6843Z" fill="#5182A6"/>
<path d="M75.1396 24.5155C75.1242 24.4541 75.0935 24.3927 75.0781 24.3312C75.0935 24.408 75.1242 24.4541 75.1396 24.5155Z" fill="#5182A6"/>
<path d="M4 42.7457C4.07679 42.8225 4.15358 42.9146 4.23037 42.9914C4.15358 42.8992 4.07679 42.8225 4 42.7457Z" fill="#BCCBA1"/>
<path d="M32.7687 18.9252C33.1373 19.217 33.2602 19.5856 33.3216 19.9849C33.3984 20.3689 33.2602 20.5532 33.3062 20.8143C33.2909 20.9064 33.2602 21.0139 33.2448 21.1061C33.1373 21.3364 33.0451 21.4593 32.9376 21.6897C32.9223 21.7357 32.7994 21.7972 32.7841 21.8432C32.7841 21.8432 32.6305 21.874 32.4001 21.9968C32.2465 22.0736 32.0008 22.0736 31.9701 22.0736C31.2329 21.92 30.6493 21.5361 30.2193 20.9218C29.8046 20.3074 30.035 19.7545 30.7414 19.601C30.895 19.5702 31.0639 19.5395 31.2175 19.5088C31.1254 19.3552 31.0486 19.3092 30.9411 19.2784C30.081 19.0327 29.2363 18.7716 28.3763 18.5259C27.5162 18.2802 26.8712 17.8501 26.564 16.944C26.2261 15.9765 25.8115 15.0396 25.0436 14.3178C23.4463 12.8127 21.4498 12.3059 19.3457 12.2137C18.4549 12.1676 17.5488 12.3827 16.6427 12.4441C15.7058 12.4902 14.7229 12.8588 14.0932 13.2734C14.0779 13.2734 14.0625 13.2888 14.0472 13.2888C13.3407 13.7035 12.5728 14.0567 11.9124 14.5481C9.99262 15.9611 8.6411 17.8348 7.8732 20.1078C7.59675 20.9371 7.76569 21.6282 8.44145 22.1658C9.20935 22.7801 9.97726 23.3944 10.8066 23.932C11.3902 24.3159 12.0045 24.6691 12.6649 24.8995C14.0318 25.3603 15.368 24.9917 15.9209 23.5019C16.228 22.6419 16.4277 21.7357 16.5198 20.8296C16.6427 19.7392 16.5966 18.6334 16.658 17.5276C16.6888 17.0976 16.8116 16.6676 16.8884 16.2375L17.1188 16.2683C17.5949 18.9252 17.9481 21.5822 17.1802 24.2698C17.1495 24.3466 17.0881 24.4695 17.042 24.5463C16.658 25.0531 16.3355 25.6367 15.8441 25.9899C14.5386 26.9575 13.095 26.7271 11.7127 26.1435C10.9141 25.8056 10.1923 25.2988 9.36294 24.8381C9.14792 25.4985 8.90219 26.1128 8.74861 26.7578C8.44145 28.0172 8.38002 29.2766 8.87148 30.5206C9.65474 32.4864 11.252 33.6536 13.0028 34.6519C13.3253 34.8669 13.6478 35.0973 13.9704 35.3123C14.0625 35.3737 14.1547 35.4505 14.2622 35.512C15.798 36.6945 17.1802 38 18.1171 39.7201C18.3014 40.0887 18.4703 40.4266 18.3167 40.8873C18.1939 41.2713 18.3167 41.6859 18.7007 41.8702C19.1307 42.0699 19.1307 42.377 19.0078 42.7303C18.9003 43.0374 19.0539 43.2217 19.2689 43.4214C19.4686 43.6057 19.6375 43.8514 19.7297 44.0971C19.8679 44.4965 19.914 44.9111 19.9908 45.3258C20.0061 45.464 20.0215 45.5869 20.0368 45.7251C20.0368 45.8633 20.0368 46.0169 20.0522 46.1551C20.0368 46.7848 20.0215 47.4299 20.0215 48.0595C19.96 48.336 19.8986 48.6124 19.8372 48.8735C19.8986 48.9196 19.8986 48.9196 19.96 48.9657C20.1597 48.8274 20.344 48.7046 20.5436 48.5664C20.5897 48.551 20.6511 48.5356 20.6972 48.5356C20.7894 48.4742 20.8969 48.4281 20.989 48.3667C23.3695 47.2302 25.7654 46.1398 28.1152 44.9572C29.0367 44.4965 29.866 43.8668 30.7261 43.2985C30.9872 43.1296 31.2175 42.9146 31.4633 42.7303C31.5554 42.6535 31.6476 42.5921 31.7397 42.5153C32.1544 42.162 32.569 41.8088 32.9837 41.4556C34.0741 40.3958 35.0878 39.2901 35.9325 38.0307C37.0229 36.4181 37.8983 34.7133 38.4512 32.855C38.958 31.1195 39.2038 29.3687 38.6509 27.5872C38.3744 26.6811 37.9751 25.8364 37.2226 25.2067C37.0075 25.0224 36.8232 24.792 36.6236 24.5924C36.0093 24.0702 36.0093 24.0702 35.3949 23.6862C35.3335 23.6709 34.7653 23.3944 34.7038 23.3791C34.2431 23.164 34.7038 23.2255 35.011 23.2255C35.61 23.2255 36.5314 23.4251 37.0229 23.763C37.499 24.0855 37.7754 24.2084 38.2669 24.5002C38.3437 24.577 38.3898 24.6231 38.4819 24.6845C38.5126 24.6845 38.528 24.6999 38.5434 24.7152C38.5741 24.8534 38.8812 25.1145 38.958 25.2374C39.173 25.5753 39.173 25.5446 39.4188 25.8517C39.4648 25.9131 39.5109 26.1896 39.6031 26.2357C39.6184 26.251 39.6184 26.2664 39.6184 26.2971C39.7566 26.5735 39.8949 26.8346 40.0177 27.1111C40.7088 29.0155 40.586 30.9353 40.1099 32.855C39.5877 35.0051 38.6355 36.971 37.3608 38.7525C35.3949 41.5477 32.953 43.8361 29.9889 45.5715C27.4548 47.0459 24.721 48.0595 22.0641 49.2575C21.0965 49.6875 20.1136 50.1329 19.1307 50.5476C18.931 50.6397 18.716 50.7011 18.4089 50.824C18.9618 48.4742 19.1153 46.2166 18.4396 43.9589C17.9788 41.9009 16.9652 40.1348 15.6137 38.5682C14.4311 37.1706 12.9567 36.1109 11.4363 35.1127C11.0216 34.8362 10.6069 34.5598 10.1769 34.2833C10.0848 34.1912 10.008 34.0837 9.91583 33.9915C9.3015 33.285 8.59503 32.64 8.07285 31.8721C6.921 30.1673 6.76741 28.2783 7.36638 26.3432C7.58139 25.6674 7.85784 25.007 8.13429 24.2698C7.8732 24.0855 7.58139 23.8859 7.28959 23.6709C5.92272 22.7187 5.72306 21.49 6.13773 20.0463C7.04386 16.944 8.90219 14.5481 11.682 12.9355C13.4789 11.8912 15.4294 11.2922 17.5027 11.0772C19.5607 10.8622 21.5573 11.0926 23.477 11.8144C25.2279 12.4748 26.6255 13.5959 27.4241 15.3468C27.5777 15.7 27.7312 16.0532 27.8695 16.4065C28.0691 16.8672 28.3609 17.2205 28.8524 17.3894C29.1595 17.4969 29.4513 17.6198 29.7432 17.7273C29.8814 17.7887 30.0196 17.8348 30.1578 17.8962C30.1732 17.8809 30.1885 17.8809 30.2039 17.8962" fill="#5182A6"/>
<path d="M21.1405 35.7577C21.1405 35.8038 21.1558 35.8345 21.1558 35.8805C21.1405 35.9113 21.1405 35.942 21.1405 35.9727C21.0944 36.1263 21.0483 36.2799 21.0023 36.4334C20.7719 36.6331 20.5415 36.8174 20.3265 37.0324C19.8658 37.5239 19.4204 38.046 19.5432 38.86C19.7736 38.6911 19.9426 38.5682 20.1115 38.4607C20.1576 38.4914 20.219 38.5221 20.2651 38.5528C20.1269 38.8907 20.0193 39.244 19.8658 39.5665C19.6507 40.0272 19.4357 40.4726 19.7275 41.0101C19.9272 40.8412 20.0961 40.703 20.3419 40.488C20.3111 41.302 19.8811 42.0084 20.3879 42.7303C20.5722 42.5613 20.7105 42.4385 20.8948 42.2542C20.9562 42.8685 20.9715 43.4214 21.6166 43.6825C21.6473 43.575 21.6473 43.4674 21.6934 43.3907C21.7702 43.2678 21.8623 43.1603 21.9391 43.0528C22.0159 43.1603 22.1234 43.2678 22.1541 43.3753C22.277 43.8514 22.5688 44.1278 23.0142 44.3275C23.2138 44.4196 23.3828 44.5886 23.6439 44.7729C23.8589 44.6039 24.12 44.4043 24.3964 44.1893C24.4886 44.0971 24.5961 44.005 24.6882 43.8975C24.7957 43.79 24.8879 43.6978 24.9954 43.5903C25.0722 43.7285 25.149 43.8668 25.2257 44.005C25.2411 44.0511 25.2565 44.0971 25.3025 44.2046C25.4868 44.0511 25.6558 43.9282 25.8094 43.79C25.9322 43.4982 26.0551 43.2064 26.1779 42.9299C26.2701 42.8685 26.3776 42.8224 26.4698 42.761C26.5465 42.9146 26.6233 43.0528 26.7155 43.2217C27.3912 42.7456 27.0534 42.0238 27.1762 41.4402C27.6677 41.4709 27.7905 41.348 27.6677 40.918C27.5755 40.5648 27.3912 40.2422 27.2684 39.9044C27.1916 39.6586 27.1609 39.4129 27.0994 39.0597C27.3452 39.1672 27.468 39.2133 27.6216 39.29C27.852 38.5375 27.5602 37.9692 27.2223 37.3856C27.0073 37.017 26.8537 36.587 26.6848 36.1877C26.6694 36.157 26.7155 36.1109 26.7462 36.0495C26.8691 36.0956 26.9766 36.1416 27.1455 36.2184C27.1301 36.0188 27.1301 35.8959 27.1148 35.7577C27.0687 35.1434 26.5312 34.8362 26.2087 34.3908C26.1779 34.3294 26.1319 34.2679 26.1012 34.2065C26.0397 34.1297 25.9936 34.0529 25.9322 33.9761C25.8094 33.1314 25.7172 32.2867 26.1319 31.4881C26.3776 31.012 26.6387 30.4898 27.422 30.367C27.3144 30.6281 27.2684 30.8277 27.1762 30.9659C26.654 31.7338 26.5158 33.285 27.2377 34.0069C27.3452 34.1144 27.468 34.2219 27.5909 34.314C27.8673 34.5137 27.9902 34.744 27.8366 35.0973C27.7598 35.2662 27.8213 35.4966 27.8366 35.6809C27.8827 36.2031 27.7905 36.756 28.2513 37.1706C28.2974 37.2167 28.2974 37.3242 28.3127 37.401C28.3895 37.8464 28.4663 38.3071 28.5124 38.7525C28.5277 38.9675 28.5431 39.2286 28.4509 39.3975C28.2206 39.7661 28.2666 40.0887 28.3895 40.4726C28.5892 41.0562 28.5585 41.6245 28.0977 42.1313C27.9748 42.2542 27.9441 42.4999 27.9288 42.6995C27.8981 43.4982 27.4527 44.0971 26.7001 44.3429C26.5158 44.4043 26.3315 44.5118 26.1779 44.6193C25.7326 44.9418 25.3486 45.3872 24.6729 45.1722C24.5039 45.1261 24.2735 45.3258 24.0585 45.3872C23.6439 45.4947 23.2138 45.5869 22.6763 45.7097C22.8452 45.2336 22.707 45.0493 22.3538 45.0033C22.3077 45.0033 22.2463 44.9879 22.2309 44.9418C21.8623 44.4504 21.2941 44.5118 20.7872 44.4504C20.603 44.1739 20.4647 43.7746 20.2036 43.6364C19.6354 43.3292 19.405 42.9146 19.405 42.3002C19.405 42.1467 19.3743 41.9316 19.2668 41.8395C18.7293 41.348 18.5296 40.8105 18.8061 40.1808C18.9596 39.8276 18.8828 39.6126 18.6525 39.3822C18.6525 39.075 18.6218 38.7679 18.6371 38.4761C18.6525 38.2764 18.7293 38.0768 18.7907 37.8925C18.8675 37.6314 18.9136 37.3549 19.0671 37.1245C19.2361 36.8788 19.5125 36.7099 19.6968 36.4795C19.789 36.372 19.8965 36.157 19.8658 36.0495C19.6507 35.4966 19.835 35.1126 20.2651 34.7594C20.3726 34.6673 20.434 34.4369 20.4033 34.2987C20.1883 33.454 20.4187 32.8396 21.0791 32.2867C21.3401 32.0717 21.5398 31.7338 21.7087 31.4267C22.0159 30.8431 22.2616 30.2288 22.5381 29.6298C23.0756 28.8772 23.736 28.3397 24.6882 28.2015C24.9647 28.1554 25.2257 27.9711 25.4715 27.8175C26.1933 27.3721 27.038 27.065 27.8366 27.2186C28.712 27.3721 29.6028 27.2032 30.4475 27.4489C31.5379 27.7715 32.2905 28.4165 32.5362 29.5837C32.6744 30.2441 33.1812 30.6741 33.8877 30.8124C34.3638 30.9045 34.8399 31.0427 35.316 31.181C35.7614 31.3038 35.8689 31.6878 35.8382 32.041C35.8075 32.3789 35.6693 32.7475 35.4542 33.0086C35.3621 33.1161 34.9474 33.0393 34.7171 32.9471C34.3638 32.7936 34.0413 32.5478 34.0874 32.0871C34.1027 31.9642 34.1334 31.8414 34.1642 31.6878C33.6881 31.5496 33.212 31.4113 32.7512 31.2885C32.2444 31.1502 31.9219 30.797 31.8297 30.3363C31.5994 29.1383 30.8007 28.5086 29.741 28.1401C28.5738 27.7407 27.3912 27.8329 26.224 28.2322C26.0858 28.2783 25.9783 28.3704 25.8861 28.4165C25.9476 28.6162 25.9936 28.7697 26.0551 28.9387C25.8708 28.954 25.6865 29.0155 25.5175 28.9847C24.3964 28.739 23.3367 29.5376 22.876 30.6434C22.707 31.0427 22.6609 31.5035 22.5534 31.9335C22.1695 32.3789 21.7702 32.8243 21.3862 33.2697C21.1405 33.5615 20.9408 33.8686 21.0637 34.314C21.2019 34.2679 21.3094 34.2372 21.4323 34.2065C21.4169 34.3754 21.4169 34.5444 21.4016 34.7287C21.1866 35.1741 20.5876 35.343 20.5569 35.9573C20.8026 35.8805 20.9715 35.8191 21.1405 35.7577Z" fill="#5182A6"/>
<path d="M30.6322 25.6213C29.8029 26.3432 28.7892 26.6657 27.7449 26.7271C26.7005 26.7732 25.6408 26.681 24.6118 26.5275C23.9668 26.42 23.5368 26.635 23.2296 27.1111C22.7689 27.8483 22.4463 28.6469 22.4617 29.5377C22.3081 29.6452 22.1545 29.7373 21.9702 29.8602C21.2484 28.6315 21.7552 27.5257 22.3081 26.3739C21.9856 26.4046 21.7552 26.466 21.5248 26.4507C21.402 26.4507 21.2791 26.3585 21.1562 26.2971C21.7399 25.7135 22.4463 25.2988 23.2603 25.2835C23.9668 25.2681 24.6733 25.437 25.3797 25.5445C26.5009 25.7288 27.622 25.8824 28.7278 25.4831C29.1732 25.3295 29.6186 25.176 30.064 25.0224C30.2636 25.1913 30.7551 25.1145 30.6322 25.6213Z" fill="#5182A6"/>
<path d="M34.8586 35.4045C34.7818 35.9113 34.4285 36.2031 34.0139 36.3567C33.4303 36.587 32.8159 36.7406 32.2016 36.8942C31.5719 37.0478 31.3416 37.57 31.787 38.0461C32.0788 38.3532 32.1863 38.645 32.1709 39.0597C32.1555 39.3669 32.3398 39.6894 32.432 39.9965C32.432 40.1194 32.432 40.2576 32.432 40.3805C32.432 40.5955 32.432 40.8259 32.432 41.0409C32.1863 41.3327 31.9252 41.6091 31.6794 41.901C31.5412 41.3941 31.403 40.872 31.2648 40.3344C31.3569 40.3037 31.4644 40.2576 31.618 40.1962C31.5412 39.9965 31.5105 39.7815 31.3876 39.6587C30.6812 38.9061 30.4354 38.0614 30.804 37.0017C30.4815 37.0478 30.2051 37.0785 29.8672 37.1092C30.0515 36.5256 30.5122 36.3567 30.9576 36.2492C31.6948 36.0649 32.4781 36.0188 33.1845 35.7731C33.6299 35.6195 33.9832 35.2048 34.3671 34.8977C34.3671 34.8362 34.3825 34.7287 34.3671 34.7287C34.1982 34.7134 34.0139 34.698 33.8603 34.698C34.3057 34.4216 34.7511 34.1605 35.2425 33.8533C35.2425 33.9455 35.2579 34.1144 35.2579 34.268C35.2579 34.3908 35.2272 34.5137 35.1965 34.6366C35.135 34.698 35.0582 34.7594 34.9968 34.8209C34.9814 35.0205 34.92 35.2048 34.8586 35.4045Z" fill="#5182A6"/>
<path d="M25.8406 39.7201C26.0863 39.3054 26.3321 38.8908 26.5778 38.4915C26.7314 38.6604 26.7621 39.244 26.6085 39.6894C26.5317 39.9198 26.501 40.1655 26.501 40.4112C26.501 40.7952 26.5317 41.1638 26.2246 41.4863C26.1017 41.6092 26.0864 41.8395 26.0249 42.0085C25.5335 42.5921 25.5335 42.5921 25.2109 42.6228C25.2877 42.116 25.3645 41.5938 25.4567 41.0716C25.4567 41.0255 25.472 40.9488 25.5027 40.9488C26.2092 40.7491 25.856 40.2423 25.8406 39.8276C25.8406 39.7815 25.8406 39.7508 25.8406 39.7201Z" fill="#5182A6"/>
<path d="M22.1852 39.9044C22.1238 40.0887 22.0316 40.2883 22.0316 40.4726C22.0316 40.9027 22.1699 41.0102 22.6767 40.9027C22.4617 41.5016 22.5077 42.0545 23.0453 42.546C22.3235 42.4846 22.0009 42.1774 21.9241 41.6245C21.9088 41.517 21.8473 41.3634 21.7706 41.3173C21.3252 41.0716 21.2945 40.6723 21.3559 40.2423C21.4173 39.6894 22.047 39.0904 22.5845 39.0443C22.431 39.3361 22.3081 39.6126 22.1852 39.9044Z" fill="#5182A6"/>
<path d="M22.8453 36.541C22.5535 36.9403 22.2771 37.3703 21.9392 37.7543C21.6167 38.1382 21.4938 38.5375 21.5092 39.029C21.5092 39.1519 21.4017 39.2901 21.3556 39.4129C21.2327 39.3208 21.0177 39.244 20.9717 39.1211C20.7413 38.4761 20.987 37.9078 21.3863 37.401C21.5245 37.2321 21.6935 37.0785 21.8778 36.9403C22.3385 36.6024 22.3692 36.0802 22.4768 35.5888C22.5382 35.5888 22.5996 35.5888 22.6611 35.5888C22.7225 35.7731 22.7839 35.9574 22.8607 36.1417C22.8607 36.2952 22.8453 36.4181 22.8453 36.541Z" fill="#5182A6"/>
<path d="M30.34 31.9182C29.9561 32.0103 29.5721 32.1025 29.1728 32.1793C29.0807 32.1946 28.9578 32.1946 28.881 32.1486C28.8503 32.1332 28.8657 31.9796 28.881 31.8875C28.9732 31.4882 29.2189 31.2424 29.6182 31.181C29.9868 31.1349 30.4015 31.0735 30.6472 31.4728C30.724 31.5957 30.7701 31.78 30.724 31.9028C30.6933 31.9796 30.4936 32.0103 30.3708 32.0564C30.3708 32.0257 30.3554 31.9643 30.34 31.9182Z" fill="#5182A6"/>
<path d="M35.2385 34.6366C35.2538 34.5137 35.2845 34.3909 35.2999 34.268C35.2999 34.1144 35.2845 33.9455 35.2845 33.8533C34.7777 34.1605 34.3477 34.4216 33.9023 34.698C34.0559 34.698 34.2402 34.7134 34.4091 34.7287C34.4091 34.7287 34.4091 34.8362 34.4091 34.8977C33.8102 34.9745 33.4569 34.6827 33.2266 34.099C33.3341 34.099 33.4262 34.0683 33.4723 34.099C34.0866 34.4523 34.3784 34.3909 34.8084 33.8533C34.9006 33.7458 34.9467 33.6076 35.0542 33.5001C35.2385 33.3004 35.4535 33.3004 35.5917 33.5462C35.7453 33.8687 35.561 34.4062 35.2385 34.6366Z" fill="#5182A6"/>
<path d="M26.0254 36.2492C26.2558 36.4949 26.5015 37.6775 26.3479 37.9386C26.3172 38 26.1944 38.0307 26.1176 38.0768C25.964 37.8003 25.7336 37.5239 25.7029 37.2475C25.6722 36.971 25.8411 36.6638 25.9333 36.372C25.964 36.326 25.9947 36.2953 26.0254 36.2492Z" fill="#5182A6"/>
<path d="M17.7475 46.6619C17.9164 46.8462 14.0308 46.278 11.2356 44.8036C7.67257 42.2388 6.39784 40.488 6.16747 40.0887C5.33813 38.6143 4.83132 37.0324 4.6163 35.3584C4.49344 34.4062 4.41665 33.4386 4.3245 32.471C4.30914 32.3175 4.33986 32.1639 4.35521 31.9182C4.93882 32.3175 5.44564 32.6861 5.98317 33.0086C7.18111 33.7611 8.36368 34.5137 9.59233 35.2048C10.8978 35.942 12.2339 36.6331 13.3397 37.6467C14.5376 38.7525 15.5666 39.9965 16.2424 41.5016C16.3345 41.7013 16.4267 41.9009 16.5188 42.1006C16.5342 42.5152 18.285 45.7865 17.7628 45.4947C17.7014 45.464 16.826 44.4043 16.7492 44.4043L14.9677 42.162C11.635 39.1365 12.3261 38.5989 8.83978 37.4317" fill="#A8B790"/>
<path d="M21.34 18.7409C21.9236 18.188 22.584 17.8501 23.3673 18.1726C23.6744 18.2955 23.9202 18.6027 24.1505 18.8791C24.2427 18.9866 24.2273 19.2938 24.1505 19.3859C24.0584 19.4781 23.7973 19.4934 23.6437 19.4474C23.0448 19.2323 22.4612 19.2631 21.8622 19.4627C21.7547 19.4934 21.6779 19.5702 21.5857 19.6317C21.4322 19.5856 21.2939 19.5395 21.1404 19.4934C21.1404 19.432 21.125 19.3706 21.125 19.3091C21.1864 19.1095 21.2632 18.9252 21.34 18.7409Z" fill="#5182A6"/>
</svg>
