<svg width="39" height="56" viewBox="0 0 39 56" fill="none" xmlns="http://www.w3.org/2000/svg">
<path d="M3.30355 47.4015C3.31768 47.3789 3.45891 47.292 4.74058 46.8487C5.88188 46.454 8.04579 45.8225 9.79016 45.137C11.5345 44.4516 12.8004 43.7589 14.4326 42.6836C16.0648 41.6083 18.0249 40.1714 19.47 38.9645C20.915 37.7576 21.7857 36.8241 22.8442 35.4237C23.9027 34.0234 25.1227 32.1845 25.9862 30.5108C26.8497 28.837 27.3199 27.3842 27.8922 25.1272C28.4644 22.8701 29.0129 19.9486 29.3779 18.0664C29.8665 15.5469 29.9096 14.0711 29.7306 12.1739C29.6161 10.9606 29.3788 9.24911 29.2182 8.1038C28.9619 6.43396 28.8227 5.35349 28.748 4.47227C28.7139 4.13109 28.6874 4.00515 28.6147 3.80899" stroke="#86AFCC" stroke-width="1.5" stroke-linecap="round"/>
<path d="M3.1026 47.5382C3.10586 47.5297 3.23455 47.2079 3.72522 46.1784C4.68533 44.3692 5.56191 42.5526 5.98126 41.4265C6.13855 40.9865 6.18316 40.8135 6.34597 40.3293" stroke="#86AFCC" stroke-width="1.5" stroke-linecap="round"/>
<path d="M3.2545 47.7334C3.26234 47.7375 3.27019 47.7417 3.55122 47.8902C3.83224 48.0387 4.38621 48.3315 5.34518 48.9843C6.30416 49.6371 7.65134 50.6412 9.30382 51.8305" stroke="#86AFCC" stroke-width="1.5" stroke-linecap="round"/>
</svg>
