<svg width="41" height="41" viewBox="0 0 41 41" fill="none" xmlns="http://www.w3.org/2000/svg">
<path d="M38.4145 10.8922L26.5073 18.5234L40.6505 18.5335L26.7307 21.0089L39.7877 26.438L25.9737 23.4141L35.9625 33.4171L24.3692 25.3288L29.7591 38.3995L22.1257 26.4997L22.1133 40.6354L19.6372 26.7137L14.2033 39.7645L17.2211 25.959L7.22253 35.9521L15.3057 24.3557L2.23684 29.7432L14.1441 22.112L0.000861411 22.1018L13.9207 19.6264L0.863728 14.1974L14.6777 17.2213L4.68894 7.2183L16.2822 15.3066L10.902 2.23436L18.5257 14.1357L18.5381 -8.11272e-06L21.0142 13.9217L26.4481 0.870867L23.4303 14.6764L33.4289 4.68327L25.3457 16.2796L38.4145 10.8922Z" fill="white"/>
</svg>
