<svg width="48" height="48" viewBox="0 0 48 48" fill="none" xmlns="http://www.w3.org/2000/svg">
<path d="M44.9647 12.7498L31.0267 21.6825L47.5821 21.6944L31.2882 24.5919L46.5607 30.9487L30.3907 27.4092L42.0945 39.1163L28.5127 29.6503L34.8218 44.9502L25.8978 31.0192L25.8834 47.5657L22.9736 31.2715L16.6129 46.5481L20.1568 30.3863L8.453 42.0837L17.9147 28.5095L2.61701 34.8158L16.5437 25.885L-0.000308869 25.8712L16.2936 22.9737L1.00971 16.6188L17.1797 20.1583L5.48729 8.44935L19.0577 17.9171L12.7486 2.61725L21.6839 16.5464L21.6983 -2.61986e-05L24.5968 16.296L30.9575 1.01937L27.4136 17.1812L39.1288 5.48197L29.6557 19.0579L44.9647 12.7498Z" fill="white"/>
</svg>
