<svg width="573" height="264" viewBox="0 0 573 264" fill="none" xmlns="http://www.w3.org/2000/svg">
<path d="M486.99 61.3106C463.838 57.5462 441.22 61.9414 422.092 72.3429C407.244 56.4173 387.211 45.0876 364.031 41.3187C340.85 37.5499 318.26 41.9495 299.132 52.3511C284.285 36.4255 264.252 25.0958 241.072 21.3269C217.891 17.558 195.301 21.9577 176.173 32.3592C161.325 16.4337 141.293 5.10396 118.112 1.33508C62.63 -7.68573 10.3546 29.9602 1.33559 85.4312C-7.68338 140.902 29.9731 193.17 85.4554 202.191C108.636 205.96 131.226 201.56 150.354 191.158C165.202 207.084 185.234 218.414 208.415 222.183C231.595 225.952 254.185 221.552 273.313 211.15C288.161 227.076 308.194 238.406 331.374 242.174C354.554 245.943 377.144 241.544 396.273 231.142C411.12 247.068 431.153 258.397 454.333 262.166C509.816 271.187 562.091 233.541 571.11 178.07C580.129 122.599 542.472 70.3314 486.99 61.3106Z" fill="#86AFCC"/>
</svg>
