<svg width="56" height="45" viewBox="0 0 56 45" fill="none" xmlns="http://www.w3.org/2000/svg">
<path d="M9.38371 0.75115C9.39134 0.727734 9.66265 1.28473 10.8834 3.54431C13.3439 8.09878 16.0726 12.2611 18.8605 15.7114C20.6243 17.8943 23.4996 20.6129 27.7618 24.064C32.0241 27.5151 37.6892 31.5292 41.3208 33.9644C44.9524 36.3996 46.3788 37.1343 48.0555 38.0035" stroke="#86AFCC" stroke-width="1.5" stroke-linecap="round"/>
<path d="M48.277 37.9593C48.2285 37.9435 48.0247 37.647 47.391 36.4004C46.9362 35.442 46.2109 33.8224 45.7409 32.6794C45.271 31.5363 45.0783 30.9188 44.5949 29.5996" stroke="#86AFCC" stroke-width="1.5" stroke-linecap="round"/>
<path d="M48.2708 38.0502C48.24 38.0652 46.83 38.7698 44.5377 39.885C43.2798 40.4219 42.3622 40.7217 41.2959 41.1319C40.7766 41.3643 40.3015 41.6463 38.9256 42.2271" stroke="#86AFCC" stroke-width="1.5" stroke-linecap="round"/>
</svg>
