<svg width="286" height="287" viewBox="0 0 286 287" fill="none" xmlns="http://www.w3.org/2000/svg">
<mask id="mask0_478_4890" style="mask-type:alpha" maskUnits="userSpaceOnUse" x="0" y="0" width="286" height="287">
<path d="M48 287C21.4903 287 1.87874e-06 265.51 4.19629e-06 239C6.24491e-06 215.567 16.7923 196.055 39 191.843L39 190.158C16.7922 185.946 1.05403e-05 166.434 1.25889e-05 143C1.46375e-05 119.567 16.7926 100.059 39 95.8457L39 95.1553C16.7925 90.9425 1.88454e-05 71.4334 2.0894e-05 48C2.32116e-05 21.4903 21.4904 1.87874e-06 48 4.19629e-06C72.1502 6.30757e-06 92.134 17.8353 95.5 41.0527C98.8661 17.8353 118.85 1.03902e-05 143 1.25015e-05C167.15 1.46127e-05 187.134 17.8353 190.5 41.0528C193.866 17.8353 213.85 1.86953e-05 238 2.08066e-05C264.51 2.31242e-05 286 21.4904 286 48C286 71.0803 269.71 90.3533 248 94.9541L248 96.0469C269.71 100.648 286 119.92 286 143C286 166.08 269.71 185.353 248 189.954L248 192.047C269.71 196.648 286 215.92 286 239C286 265.51 264.51 287 238 287C213.85 287 193.866 269.165 190.5 245.948C187.134 269.165 167.15 287 143 287C118.85 287 98.8665 269.165 95.5 245.948C92.1335 269.165 72.1499 287 48 287Z" fill="#D9D9D9"/>
</mask>
<g mask="url(#mask0_478_4890)">
<path d="M293 31C293 14.4315 279.569 1.00002 263 1.00002L29 1C12.4315 1 -1 14.4315 -1 31L-1.00002 284C-1.00003 300.569 12.4314 314 29 314L263 314C279.569 314 293 300.569 293 284L293 31Z" fill="#CFB1E9"/>
<path d="M132.5 128.5C131.977 118.729 130.121 112.257 125.877 103.29C123.132 97.5481 119.93 94.4801 116.021 93.3012C112.112 92.1223 108.619 93.3156 105.278 101.327C100.698 112.283 101.539 129.465 104.752 145.359C107.37 158.778 113.357 179.444 121.693 184.089C130.1 188.774 140.633 183.018 150.923 174.47C159.876 166.714 167.504 158.136 175.111 138.887C179.454 127.8 179.624 116.039 171.592 112.549C163.46 109.012 150.905 112.741 132.5 128.5Z" fill="#F0DBF5"/>
</g>
</svg>
