<svg width="245" height="140" viewBox="0 0 245 140" fill="none" xmlns="http://www.w3.org/2000/svg">
<path d="M185.921 49.0197C188.818 59.2596 189.728 70.2409 188.406 80.8927C187.048 89.6909 184.584 98.3326 180.531 106.002C171.983 121.877 157.453 130.321 141.984 134.448C140.77 134.786 139.542 135.083 138.321 135.379C136.449 136.121 134.549 136.747 132.62 137.274C125.676 139.144 118.559 140.174 111.421 139.976C107.866 139.885 104.304 139.515 100.821 138.683C97.31 137.834 93.8924 136.549 90.5399 135.099C86.8044 133.476 83.0111 131.936 79.5719 129.571C75.5691 126.803 72.036 123.236 68.7629 119.43C58.9944 108.432 54.652 95.0456 52.5422 79.8382C50.8587 67.8189 53.1925 57.2083 58.1996 46.6142C60.2371 42.3139 62.7804 38.3432 65.5838 34.6525C70.3742 28.2022 75.9448 22.5344 81.9779 17.6492C89.0876 11.8249 96.7681 6.65143 105.236 3.89169C108.083 2.96079 111.009 2.40884 113.943 1.99694C118.249 1.4038 122.562 0.901283 126.89 0.571761C131.276 0.275191 135.676 0.0280512 140.069 0.00333712C142.88 -0.013139 145.741 0.00333662 148.494 0.736522C149.917 1.10723 151.319 1.54385 152.713 2.02166C158.096 3.80108 163.176 6.93153 167.417 11.1247C171.123 14.9471 174.201 19.5522 176.788 24.4209C178.927 28.5564 181.109 32.7001 182.648 37.1816C183.963 41.0453 184.822 45.0819 185.906 49.0279L185.921 49.0197Z" fill="#E5EBF3"/>
<path d="M180.518 95.0529C179.473 101.399 177.585 107.256 177.838 113.876C177.996 117.935 178.738 121.475 180.273 125.129C181.347 127.69 184.806 131.419 181.225 132.182C179.43 132.558 177.448 132.323 175.611 132.323C172.389 132.323 171.207 129.234 169.759 125.647C167.028 118.886 166.494 110.326 168.022 103.029C169.312 96.8608 175.474 87.8682 180.526 95.0529H180.518Z" fill="#DEB079"/>
<g opacity="0.5" style="mix-blend-mode:multiply">
<path d="M180.518 95.0529C179.473 101.399 177.585 107.256 177.838 113.876C177.996 117.935 178.738 121.475 180.273 125.129C181.347 127.69 184.806 131.419 181.225 132.182C179.43 132.558 177.448 132.323 175.611 132.323C172.389 132.323 171.207 129.234 169.759 125.647C167.028 118.886 166.494 110.326 168.022 103.029C169.312 96.8608 175.474 87.8682 180.526 95.0529H180.518Z" fill="#DEB079"/>
</g>
<path d="M87.0361 92.8399C83.4689 95.467 80.2187 97.6704 77.437 101.691C75.8876 103.932 74.4103 106.559 73.3797 109.262C71.643 113.801 70.2521 119.272 71.4772 124.29C72.169 127.125 73.1203 127.53 74.9003 129.055C77.5451 131.324 74.6625 132.2 72.8176 132.341C70.4683 132.52 68.1478 132.85 65.7624 132.699C62.8294 132.52 62.9735 129.799 62.3321 126.626C61.4962 122.473 60.9196 117.906 60.5377 113.641C59.9468 107.068 58.4334 99.8645 60.8043 93.5743C64.2635 84.4028 72.8032 80.1749 79.8872 84.8548C80.5791 85.3162 88.499 91.6628 86.7911 93.7626C86.6325 93.612 86.6253 93.4237 87.0505 92.8399H87.0361Z" fill="#DEB079"/>
<g opacity="0.5" style="mix-blend-mode:multiply">
<path d="M87.0361 92.8399C83.4689 95.467 80.2187 97.6704 77.437 101.691C75.8876 103.932 74.4103 106.559 73.3797 109.262C71.643 113.801 70.2521 119.272 71.4772 124.29C72.169 127.125 73.1203 127.53 74.9003 129.055C77.5451 131.324 74.6625 132.2 72.8176 132.341C70.4683 132.52 68.1478 132.85 65.7624 132.699C62.8294 132.52 62.9735 129.799 62.3321 126.626C61.4962 122.473 60.9196 117.906 60.5377 113.641C59.9468 107.068 58.4334 99.8645 60.8043 93.5743C64.2635 84.4028 72.8032 80.1749 79.8872 84.8548C80.5791 85.3162 88.499 91.6628 86.7911 93.7626C86.6325 93.612 86.6253 93.4237 87.0505 92.8399H87.0361Z" fill="#DEB079"/>
</g>
<path d="M45.3857 64.977C45.3857 64.977 46.5171 53.9034 54.9848 52.0577C63.4524 50.2121 72.2156 57.9618 84.3586 60.5419C96.5016 63.1219 123.05 68.2915 138.299 64.2331C153.549 60.1746 163.155 56.8507 172.473 35.0801C181.791 13.3095 177.842 12.5656 189.134 5.92705C200.434 -0.711478 204.664 -1.82261 210.595 5.19257C216.526 12.2078 218.782 19.2135 226.976 21.0591C235.163 22.9047 238.557 22.1703 241.382 24.3831C244.207 26.5959 242.513 37.3023 235.451 41.3608C228.388 45.4192 216.815 49.1104 208.059 42.4719C199.303 35.8334 197.609 40.2591 197.89 47.6415C198.171 55.0239 199.526 82.642 192.81 94.5066C185.185 107.972 173.323 117.756 159.487 118.49C145.65 119.225 119.663 113.32 109.214 109.629C98.7645 105.938 71.6535 90.4388 69.9599 91.9171C68.2664 93.3955 64.5911 101.88 60.6419 105.571C56.6855 109.262 52.167 110.74 52.7363 116.644C53.2984 122.549 53.6299 126.842 55.9504 127.699C58.2709 128.556 58.9772 130.694 57.3629 131.984C55.7486 133.274 49.2267 133.255 46.8774 132.031C44.5281 130.807 45.955 121.07 44.5425 117.379C43.13 113.688 39.7429 109.262 40.5861 101.88C41.4293 94.4972 46.236 92.6516 45.6667 84.1675C45.1046 75.6834 45.3857 64.977 45.3857 64.977Z" fill="#DEB079"/>
<path d="M45.3857 64.977C45.3857 64.977 46.5171 53.9034 54.9848 52.0577C63.4524 50.2121 72.2156 57.9618 84.3586 60.5419C96.5016 63.1219 123.05 68.2915 138.299 64.2331C153.549 60.1746 163.155 56.8507 172.473 35.0801C181.791 13.3095 177.842 12.5656 189.134 5.92705C200.434 -0.711478 204.664 -1.82261 210.595 5.19257C216.526 12.2078 218.782 19.2135 226.976 21.0591C235.163 22.9047 238.557 22.1703 241.382 24.3831C244.207 26.5959 242.513 37.3023 235.451 41.3608C228.388 45.4192 216.815 49.1104 208.059 42.4719C199.303 35.8334 197.609 40.2591 197.89 47.6415C198.171 55.0239 199.526 82.642 192.81 94.5066C185.185 107.972 173.323 117.756 159.487 118.49C145.65 119.225 119.663 113.32 109.214 109.629C98.7645 105.938 71.6535 90.4388 69.9599 91.9171C68.2664 93.3955 64.5911 101.88 60.6419 105.571C56.6855 109.262 52.167 110.74 52.7363 116.644C53.2984 122.549 53.6299 126.842 55.9504 127.699C58.2709 128.556 58.9772 130.694 57.3629 131.984C55.7486 133.274 49.2267 133.255 46.8774 132.031C44.5281 130.807 45.955 121.07 44.5425 117.379C43.13 113.688 39.7429 109.262 40.5861 101.88C41.4293 94.4972 46.236 92.6516 45.6667 84.1675C45.1046 75.6834 45.3857 64.977 45.3857 64.977Z" fill="black"/>
<path d="M158.067 49.2894C153.397 51.408 149.52 60.4383 146.609 65.3442C143.697 70.2501 140.844 74.3086 137.557 78.3388C131.482 85.7871 125.004 90.7778 116.55 91.3616C107.088 92.0207 97.6331 88.5743 92.394 77.5195C89.9077 72.2746 89.7204 65.815 87.335 60.3724C83.6741 52.0201 81.8364 47.8769 90.8302 45.5228C102.498 42.4719 115.664 44.3364 127.569 44.3081C139.69 44.2704 148.886 46.3515 158.074 49.2894H158.067Z" fill="#6A3925"/>
<path d="M168.37 95.7873C167.325 102.134 165.437 107.991 165.689 114.611C165.848 118.669 166.59 122.21 168.125 125.863C169.199 128.424 172.658 132.153 169.076 132.916C167.282 133.293 165.3 133.057 163.462 133.057C160.241 133.057 159.059 129.969 157.611 126.381C154.879 119.62 154.346 111.061 155.874 103.763C157.164 97.5952 163.325 88.6026 168.377 95.7873H168.37Z" fill="#DEB079"/>
<path d="M55.1284 60.3629C51.0999 58.1595 43.9511 60.8714 40.1965 63.5739C37.285 65.6643 35.3969 68.3197 33.0548 71.1447C26.6049 78.9226 19.9749 84.3558 11.8243 88.8568C8.71833 90.5706 0.553324 93.3955 0.0344535 95.5142C-0.606928 98.1696 7.88958 94.6479 10.2749 93.4332C14.8151 91.1262 19.2543 89.111 23.6286 86.2956C27.2824 83.9415 31.2387 81.239 34.8132 78.6401C39.5263 75.2219 43.5331 74.77 48.8659 74.478C55.0275 74.1391 53.6294 66.6625 55.1284 60.3629Z" fill="#DEB079"/>
<path d="M235.023 22.4433C235.888 22.2174 239.412 20.7861 240.392 20.5507C242.374 20.061 244.032 21.304 244.767 23.8276C245.358 25.8521 244.767 28.3945 243.534 29.9576C241.524 32.4906 235.204 23.6675 235.023 22.4433Z" fill="#231F20"/>
<path d="M208.478 23.5733C210.086 23.5733 211.389 21.8701 211.389 19.7691C211.389 17.6681 210.086 15.9648 208.478 15.9648C206.87 15.9648 205.566 17.6681 205.566 19.7691C205.566 21.8701 206.87 23.5733 208.478 23.5733Z" fill="#231F20"/>
<path d="M207.314 19.7032C207.664 19.7032 207.948 19.3322 207.948 18.8745C207.948 18.4169 207.664 18.0459 207.314 18.0459C206.964 18.0459 206.68 18.4169 206.68 18.8745C206.68 19.3322 206.964 19.7032 207.314 19.7032Z" fill="white"/>
<path d="M186.447 10.5505C188.602 10.268 191.117 11.3697 192.803 12.9517C194.857 14.882 195.643 18.2342 195.765 21.4452C196.09 29.9858 193.048 37.8014 191.809 46.0689C191.182 50.2592 190.678 55.0239 189.445 58.9411C188.321 62.5193 187.139 66.9638 183.687 67.3781C177.972 68.0655 177.389 60.4665 176.452 54.9862C175.205 47.6885 174.657 40.0236 174.715 32.5282C174.794 23.0836 178.52 10.7294 186.433 10.5505H186.447Z" fill="#6A3925"/>
</svg>
