<svg width="190" height="182" viewBox="0 0 190 182" fill="none" xmlns="http://www.w3.org/2000/svg">
<path d="M185.35 76.6432C189.36 87.917 190.62 100.007 188.79 111.734C186.91 121.421 183.5 130.935 177.89 139.379C166.06 156.856 145.95 166.153 124.54 170.697C122.86 171.069 121.16 171.395 119.47 171.722C116.88 172.538 114.25 173.227 111.58 173.808C101.97 175.867 92.1204 177 82.2404 176.783C77.3204 176.683 72.3904 176.275 67.5704 175.359C62.7104 174.424 57.9804 173.01 53.3404 171.413C48.1704 169.627 42.9204 167.93 38.1604 165.327C32.6204 162.28 27.7304 158.353 23.2004 154.163C9.6804 142.054 3.67039 127.316 0.750392 110.573C-1.57961 97.3404 1.65041 85.6586 8.58041 73.9949C11.4004 69.2604 14.9204 64.8888 18.8004 60.8256C25.4304 53.7239 33.1404 47.4839 41.4904 42.1056C51.3304 35.6932 61.9604 29.9974 73.6804 26.959C77.6204 25.9342 81.6704 25.3265 85.7304 24.873C91.6904 24.22 97.6604 23.6667 103.65 23.3039C109.72 22.9774 115.81 22.7053 121.89 22.6781C125.78 22.66 129.74 22.6781 133.55 23.4853C135.52 23.8935 137.46 24.3742 139.39 24.9002C146.84 26.8593 153.87 30.3058 159.74 34.9223C164.87 39.1307 169.13 44.2007 172.71 49.5609C175.67 54.1139 178.69 58.676 180.82 63.61C182.64 67.8637 183.83 72.3079 185.33 76.6523L185.35 76.6432Z" fill="#E5EBF3"/>
<path d="M130.221 116.09C129.057 117.82 129.445 120.763 129.238 122.832C129.01 125.107 128.575 127.304 128.201 129.561C127.505 133.796 127.117 138.335 127.124 142.637C127.13 149.888 127.538 157.158 127.953 164.397C128.094 166.897 128.02 169.36 128.154 171.793C128.214 172.837 128.04 174.026 128.515 174.931C128.99 175.835 129.893 175.895 130.422 176.569C132.128 178.747 128.455 179.245 126.903 177.971C124.568 176.053 125.19 171.223 125.05 168.699C124.086 150.932 122.287 132.832 123.223 114.998C126.267 114.707 127.211 115.113 130.215 116.09H130.221Z" fill="#D4C8B5"/>
<path d="M126.263 150.259C130.277 150.21 134.833 152.303 136.532 155.975C137.971 159.087 137.094 162.886 134.666 165.404C127.955 172.376 112.782 168.28 114.608 158.141C115.418 153.651 118.817 150.344 126.263 150.259Z" fill="#61686C"/>
<path d="M117.834 119.088C116.67 120.817 117.058 123.76 116.851 125.829C116.624 128.105 116.189 130.301 115.814 132.559C115.118 136.794 114.73 141.333 114.737 145.635C114.744 152.886 115.152 160.155 115.566 167.394C115.707 169.894 115.633 172.358 115.767 174.791C115.827 175.835 115.653 177.024 116.128 177.928C116.603 178.832 117.507 178.893 118.035 179.566C119.741 181.745 116.068 182.242 114.516 180.968C112.181 179.051 112.803 174.221 112.663 171.696C111.7 153.93 109.9 135.829 110.837 117.996C113.881 117.704 114.824 118.111 117.828 119.088H117.834Z" fill="#DCD3C3"/>
<path d="M113.88 153.256C117.894 153.208 122.45 155.301 124.149 158.972C125.588 162.085 124.711 165.883 122.283 168.402C115.573 175.374 100.399 171.278 102.226 161.138C103.035 156.648 106.434 153.341 113.88 153.256Z" fill="#71777B"/>
<path d="M38.1509 116.09C36.9868 117.82 37.3748 120.763 37.1674 122.832C36.94 125.107 36.5051 127.304 36.1304 129.561C35.4347 133.796 35.0466 138.335 35.0533 142.637C35.06 149.888 35.4681 157.158 35.8829 164.397C36.0234 166.897 35.9498 169.36 36.0836 171.793C36.1438 172.837 35.9699 174.026 36.4449 174.931C36.9199 175.835 37.8231 175.895 38.3516 176.569C40.0576 178.747 36.3847 179.245 34.8325 177.971C32.4976 176.053 33.1198 171.223 32.9793 168.699C32.0159 150.932 30.2163 132.832 31.1529 114.998C34.197 114.707 35.1403 115.113 38.1442 116.09H38.1509Z" fill="#D4C8B5"/>
<path d="M34.1925 150.259C38.2066 150.21 42.7627 152.303 44.462 155.975C45.9004 159.087 45.024 162.886 42.5954 165.404C35.8851 172.376 20.7117 168.28 22.5381 158.141C23.3476 153.651 26.7463 150.344 34.1925 150.259Z" fill="#61686C"/>
<path d="M25.7603 119.088C24.5962 120.817 24.9842 123.76 24.7768 125.829C24.5493 128.105 24.1145 130.301 23.7398 132.559C23.044 136.794 22.656 141.333 22.6627 145.635C22.6694 152.886 23.0775 160.155 23.4923 167.394C23.6328 169.894 23.5592 172.358 23.693 174.791C23.7532 175.835 23.5793 177.024 24.0543 177.928C24.5293 178.832 25.4324 178.893 25.961 179.566C27.667 181.745 23.994 182.242 22.4419 180.968C20.107 179.051 20.7292 174.221 20.5887 171.696C19.6253 153.93 17.8257 135.829 18.7623 117.996C21.8063 117.704 22.7497 118.111 25.7536 119.088H25.7603Z" fill="#DCD3C3"/>
<path d="M21.8058 153.256C25.8199 153.208 30.3759 155.301 32.0753 158.972C33.5137 162.085 32.6372 165.883 30.2087 168.402C23.4984 175.374 8.32494 171.278 10.1514 161.138C10.9609 156.648 14.3595 153.341 21.8058 153.256Z" fill="#71777B"/>
<path d="M84.5914 86.3213C80.4434 87.1222 77.2321 93.0324 74.061 95.4959C70.6958 98.1112 67.2503 100.933 63.3633 102.796C55.7899 106.436 46.2296 106.175 37.5256 106.163C35.0435 106.163 32.7755 105.563 31.4174 107.662C30.0593 109.762 31.8255 111.849 33.2037 113.05C36.7562 116.163 45.2261 117.692 49.9226 118.439C62.7344 120.471 75.0244 119.058 87.7826 117.486C95.5366 116.527 111.827 118.499 104.448 106.879C101.056 101.54 95.7239 95.5566 90.5992 91.4304C88.7393 89.9317 84.8991 89.0276 84.5914 86.3213Z" fill="#DCD3C3"/>
<path d="M19.5678 105.605C13.7875 101.424 14.8579 91.4304 17.2463 86.1756C18.0558 84.4038 19.0326 82.6987 20.1566 81.1271C17.728 78.9912 14.8245 90.8175 14.4766 93.3782C14.1488 95.8296 14.597 98.7847 15.2995 101.115C15.7745 102.692 17.9154 108.712 19.5678 105.611V105.605Z" fill="#B0B3B5"/>
<path d="M46.4477 116.885C43.4304 124.318 34.5993 126.909 27.0259 126.133C20.416 125.453 12.6085 122.025 11.1233 115.168C8.60772 103.548 19.6667 95.775 30.4179 96.1573C42.9018 96.6002 50.5019 106.91 46.4477 116.885Z" fill="#71777B"/>
<path d="M21.2178 71.904C25.0446 72.4926 27.1788 75.1564 27.2056 77.5957C27.2256 79.6405 25.6333 81.9524 23.4925 82.814C18.5885 84.7861 13.2564 81.5276 14.3001 76.7583C15.0427 73.3663 18.3343 71.455 21.2245 71.8979L21.2178 71.904Z" fill="#71777B"/>
<path d="M138.541 32.7722C147.593 34.5379 156.163 38.8947 165.101 40.7818C168.078 41.4129 187.727 44.3558 186.175 48.5123C185.178 51.1822 173.785 52.8994 170.955 53.3059C164.532 54.2282 157.675 53.7428 151.132 53.7428C146.776 53.7428 141.344 52.6931 137.872 55.4964C135.476 57.4321 134.794 60.4235 132.192 62.1832C122.765 68.5484 122.016 50.7877 122.29 45.9516C122.885 35.5513 132.513 30.4543 138.534 32.7783L138.541 32.7722Z" fill="#DCD3C3"/>
<path d="M127.538 48.312C152.693 48.7732 163.511 80.0228 157.517 97.9837C154.065 108.329 148.913 117.747 137.58 122.443C127.625 126.57 115.924 126.121 105.848 122.534C86.721 115.72 75.0733 94.61 77.9501 76.5034C80.7667 58.7791 107.842 40.5937 127.545 48.3181C121.417 45.9152 132.542 48.4091 127.545 48.3181L127.538 48.312Z" fill="#71777B"/>
<path d="M178.598 43.7611C180.886 43.5426 185.341 44.3679 186.432 46.5341C186.927 47.511 186.485 49.0644 185.281 49.5498C183.883 50.1081 182.09 48.7731 181.1 47.96C179.922 46.9892 178.678 45.6421 178.604 43.7671L178.598 43.7611Z" fill="#231F20"/>
<path d="M147.219 35.1447C148.457 30.3997 151.515 26.3584 154.117 21.31C155.95 17.7481 156.178 12.1717 153.977 8.67056C150.946 3.84052 142.543 1.32235 136.876 0.563864C125.61 -0.94704 111.072 0.151248 103.813 9.18026C99.6987 14.3016 99.7455 21.5163 100.548 27.5174C101.612 35.4906 106.77 43.0694 114.21 47.4625C121.883 52.0013 130.48 51.5098 137.291 45.8728C139.345 44.1737 145.353 36.4615 147.219 35.1447Z" fill="#71777B"/>
<path d="M124.024 39.1374C130.152 39.7078 130.246 50.2659 130.628 54.0219C131.263 60.2475 131.076 66.9161 128.814 72.802C126.553 78.6878 119.937 81.3274 115.762 74.9864C111.647 68.7304 112.838 62.0133 114.471 55.2901C115.414 51.4066 116.752 48.4091 118.585 44.8837C119.896 42.3716 121.362 38.8947 124.024 39.1434V39.1374Z" fill="#DCD3C3"/>
<path d="M152.155 38.9493C152.683 40.6119 151.318 41.8922 149.545 42.056C147.351 42.2623 146.889 40.9517 146.715 39.3134C146.655 38.7308 145.665 38.8886 145.725 39.4711C145.966 41.7102 147.003 43.2453 149.719 42.9541C152.161 42.6932 153.774 40.8485 153.091 38.6338C152.917 38.0694 151.974 38.391 152.148 38.9493H152.155Z" fill="#231F20"/>
</svg>
