<svg width="190" height="221" viewBox="0 0 190 221" fill="none" xmlns="http://www.w3.org/2000/svg">
<path d="M188.428 124.032C191.578 138.835 188.958 154.39 182.958 168.27C178.678 177.875 173.148 187.103 165.758 194.909C156.878 203.902 145.848 211.143 133.558 215.333C119.208 220.154 103.768 221.077 88.6377 220.955C84.6677 220.879 80.6878 220.832 76.7178 220.531C72.6277 220.201 68.5777 219.561 64.5377 218.845C58.6177 217.819 52.7577 216.256 47.4277 213.582C42.0977 211.039 37.3777 207.555 32.8877 203.873C29.8077 201.378 26.6877 198.901 23.8677 196.133C19.7877 191.999 15.8777 187.649 12.6277 182.894C8.52773 176.641 5.46771 169.796 3.73771 162.63C0.797711 151.923 -0.342252 140.821 0.0877479 129.776C0.177748 125.981 0.377721 122.168 1.24772 118.458C2.42772 113.071 4.4477 107.883 6.5377 102.761C8.7077 97.8546 10.4777 92.6757 13.8477 88.363C13.8077 88.2311 13.9077 88.0993 13.9577 87.9769C14.5677 86.9034 15.3477 85.9147 16.1677 84.9637C18.6577 82.0917 21.4478 79.4645 24.2178 76.8373C28.4378 72.8354 32.9678 69.0971 38.0278 66.065C45.8078 61.4604 54.2177 57.7128 63.0577 55.3116C73.7077 52.4584 84.6077 49.9443 95.7377 49.9066C102.598 49.9066 109.548 50.0196 116.208 51.6863C120.058 52.6279 123.848 53.7955 127.588 55.0573C130.428 55.999 133.228 57.063 135.858 58.4284C142.958 62.2044 149.518 66.8937 155.518 72.0727C163.458 79.2103 170.318 87.3931 176.138 96.1503C177.988 98.9375 179.518 101.894 181.048 104.842C184.268 110.943 186.968 117.337 188.388 124.023L188.428 124.032Z" fill="#E5EBF3"/>
<path d="M54.5363 2.63019C47.1963 5.47392 44.3863 7.95984 44.3863 7.95984C44.3863 7.95984 39.1963 3.28933 31.1663 3.07275C23.1363 2.85618 20.7763 3.74134 21.0163 8.18585C21.2563 12.6304 21.9563 22.4139 25.0263 27.7436C28.0963 33.0732 28.8063 34.1844 31.3963 33.0732C33.9863 31.9621 39.8963 25.5213 42.0163 22.6305C44.1363 19.7397 44.6163 17.7434 44.6163 17.7434C44.6163 17.7434 49.0963 27.301 49.3363 34.1938C49.5763 41.0866 49.3363 47.0848 48.3963 51.3033C47.4563 55.5218 37.4363 75.3526 34.2363 83.526C29.6363 95.2682 26.9363 117.472 28.0963 133.753C29.4663 152.821 32.7063 169.94 36.5963 181.089C41.0063 193.726 42.7363 197.539 44.1463 199.093C45.5563 200.647 60.1963 201.758 65.1563 200.873C70.1163 199.987 74.1263 199.319 74.5963 196.428C75.0663 193.537 78.1363 191.315 77.1964 189.093C76.2564 186.87 67.2863 178.424 66.1063 160.862C64.9263 143.301 65.3963 131.305 72.7163 132.416C80.0363 133.527 84.5163 151.305 86.4063 159.751C88.2963 168.198 86.6463 179.535 86.1663 181.974C85.6863 184.413 82.1564 193.085 83.3364 195.533C84.5164 197.982 86.1663 199.093 88.0563 198.867C89.9463 198.641 107.886 198.867 111.656 198.641C115.426 198.415 117.556 197.304 119.206 193.085C120.856 188.867 124.636 170.863 124.866 161.522C125.096 152.181 125.106 140.627 125.106 140.627C125.106 140.627 134.546 138.404 137.376 138.404H140.206C140.206 138.404 146.816 154.629 146.576 169.074C146.336 183.518 144.686 193.518 146.106 194.413C147.526 195.307 158.856 196.861 163.576 196.635C168.296 196.409 173.966 195.75 175.616 194.639C177.266 193.528 178.686 190.863 179.626 190.194C180.566 189.526 182.226 177.077 182.456 168.188C182.696 159.299 181.516 141.738 177.736 130.627C173.956 119.515 169.716 103.508 166.876 98.4039L164.046 93.2908C164.046 93.2908 171.126 91.2945 173.256 82.1795C175.386 73.0645 169.716 67.5088 166.646 63.7329C163.576 59.9569 160.036 57.7347 160.036 57.7347C160.036 57.7347 162.396 67.2922 158.616 78.4035C154.836 89.5148 141.886 92.9424 128.406 89.5148C117.356 86.7088 111.646 83.5166 106.456 81.2943C101.266 79.0721 91.3463 50.1827 90.8763 42.3954C90.4063 34.6175 91.5863 25.2859 92.9963 20.8414C94.4063 16.3969 95.1163 15.2858 95.1163 15.2858C95.1163 15.2858 98.8964 28.1767 101.956 31.7361C105.016 35.2955 106.676 37.5178 109.506 34.401C112.336 31.2936 118.946 16.1803 119.416 12.395C119.886 8.61901 120.836 3.50591 115.636 2.16879C110.446 0.831672 101.006 3.72249 97.6964 6.17074C94.3963 8.61899 93.2163 10.1727 93.2163 10.1727C93.2163 10.1727 89.0864 4.39104 81.6464 1.95221C74.9464 -0.251218 64.5363 -1.26816 54.5063 2.62079L54.5363 2.63019Z" fill="#818689"/>
<path d="M57.6882 55.1358C54.2082 55.1358 50.7982 54.9663 47.3282 54.9663C42.2482 54.9663 37.0182 54.4861 34.0582 59.0059C30.1082 65.023 29.7882 74.3545 30.5182 81.1437C30.9482 85.1739 30.6182 89.4207 31.2382 93.4132C31.7182 96.5395 34.2782 99.2984 37.8282 99.4774C41.9182 99.6939 43.9082 94.4678 47.5082 93.2908C50.3182 92.368 52.0782 94.9481 53.6282 96.7466C55.5482 98.9783 59.0282 101.408 62.1682 99.4774C65.2382 97.5941 66.3882 93.3191 70.7782 93.6298C75.1682 93.9405 76.3782 98.4227 80.4782 99.1478C86.4482 100.193 86.7382 94.0535 91.3182 92.6317C95.5582 91.3134 97.5782 96.9726 100.758 98.4039C104.968 100.297 109.428 98.9877 111.168 94.7221C112.448 91.5676 112.128 87.5374 112.128 84.2323C112.128 80.6164 111.868 77.0853 111.558 73.4882C111.148 68.8366 111.988 64.0248 109.128 59.9664C105.308 54.5614 97.2182 54.2507 90.9982 54.825C85.1982 55.3618 61.5482 55.1169 57.6982 55.1264L57.6882 55.1358Z" fill="#E1D9CB"/>
<path d="M74.7245 52.1696C70.9145 52.1696 63.4345 51.4916 60.2545 53.8645C56.1045 56.9625 61.1345 62.0756 62.9845 64.6745C64.7945 67.2169 69.0045 71.9063 72.8645 70.6351C77.0245 69.2697 81.7245 63.0172 83.3145 59.3354C86.1545 52.7722 78.1645 51.9813 74.7145 52.1602L74.7245 52.1696Z" fill="#231F20"/>
<path d="M75.4861 104.816C70.4661 104.289 66.8561 106.784 64.1361 108.413C60.8361 110.391 57.8962 113.574 55.4762 116.446C53.8162 118.414 45.5162 129.205 53.5362 128.32C57.5062 127.877 62.3262 123.037 64.8162 120.335C65.9662 123.065 66.5962 125.89 69.8162 127.284C73.7362 128.969 77.6361 125.222 78.5361 121.822C80.0861 124.873 92.6062 135.89 93.8762 127.811C95.0162 120.579 87.7061 113.122 82.9161 108.31C80.9561 106.342 78.1261 105.118 75.4861 104.826V104.816Z" fill="#E1D9CB"/>
<path d="M53.7145 16.1332C50.3745 17.4609 49.6445 21.8207 49.6445 24.8057C49.6445 26.3029 50.1545 32.932 52.9045 31.8115C54.2945 31.2465 54.5245 28.3368 54.4645 27.1504C55.6245 28.1862 56.8745 30.7098 58.9445 30.4743C60.8745 30.2484 61.2445 27.6777 61.3745 26.1899C62.7745 28.5063 66.8245 29.834 68.2545 26.7643C69.2845 24.5515 68.6845 20.9544 67.3645 18.977C64.6045 14.8338 57.9945 14.2971 53.7345 16.1427L53.7145 16.1332Z" fill="#E1D9CB"/>
<path d="M85.9248 17.6305C89.2648 18.9582 89.9948 23.3179 89.9948 26.3029C89.9948 27.8001 89.4848 34.4292 86.7348 33.3087C85.3448 32.7437 85.1148 29.834 85.1748 28.6476C84.0148 29.6834 82.7648 32.2069 80.6948 31.9715C78.7648 31.7455 78.3948 29.1749 78.2648 27.6871C76.8648 30.0035 72.8148 31.3312 71.3848 28.2615C70.3548 26.0487 70.9547 22.4516 72.2747 20.4742C75.0347 16.331 81.6447 15.7943 85.9047 17.6399L85.9248 17.6305Z" fill="#E1D9CB"/>
<path d="M61.6764 44.2975C63.5321 44.2975 65.0364 42.881 65.0364 41.1336C65.0364 39.3863 63.5321 37.9697 61.6764 37.9697C59.8207 37.9697 58.3164 39.3863 58.3164 41.1336C58.3164 42.881 59.8207 44.2975 61.6764 44.2975Z" fill="#231F20"/>
<path d="M77.9655 43.7985C79.8211 43.7985 81.3255 42.382 81.3255 40.6346C81.3255 38.8872 79.8211 37.4707 77.9655 37.4707C76.1098 37.4707 74.6055 38.8872 74.6055 40.6346C74.6055 42.382 76.1098 43.7985 77.9655 43.7985Z" fill="#231F20"/>
<path d="M71.0656 57.81C74.6831 57.81 77.6156 56.9879 77.6156 55.9738C77.6156 54.9597 74.6831 54.1376 71.0656 54.1376C67.4482 54.1376 64.5156 54.9597 64.5156 55.9738C64.5156 56.9879 67.4482 57.81 71.0656 57.81Z" fill="white"/>
<path d="M61.6772 42.1318C62.2626 42.1318 62.7372 41.6849 62.7372 41.1337C62.7372 40.5824 62.2626 40.1356 61.6772 40.1356C61.0918 40.1356 60.6172 40.5824 60.6172 41.1337C60.6172 41.6849 61.0918 42.1318 61.6772 42.1318Z" fill="white"/>
<path d="M77.9662 41.6327C78.5517 41.6327 79.0262 41.1859 79.0262 40.6346C79.0262 40.0834 78.5517 39.6365 77.9662 39.6365C77.3808 39.6365 76.9062 40.0834 76.9062 40.6346C76.9062 41.1859 77.3808 41.6327 77.9662 41.6327Z" fill="white"/>
</svg>
