<svg width="340" height="161" viewBox="0 0 340 161" fill="none" xmlns="http://www.w3.org/2000/svg">
<path d="M255.35 56.0311C259.36 67.7356 260.62 80.2876 258.79 92.4629C256.91 102.52 253.5 112.397 247.89 121.164C236.06 139.309 215.95 148.961 194.54 153.679C192.86 154.065 191.16 154.404 189.47 154.743C186.88 155.59 184.25 156.306 181.58 156.908C171.97 159.046 162.12 160.223 152.24 159.997C147.32 159.893 142.39 159.47 137.57 158.519C132.71 157.549 127.98 156.08 123.34 154.422C118.17 152.567 112.92 150.807 108.16 148.104C102.62 144.94 97.7304 140.863 93.2004 136.513C79.6804 123.942 73.6704 108.64 70.7504 91.2576C68.4204 77.5192 71.6504 65.3909 78.5804 53.2815C81.4004 48.3662 84.9204 43.8275 88.8004 39.609C95.4304 32.236 103.14 25.7575 111.49 20.1736C121.33 13.5163 131.96 7.6028 143.68 4.44833C147.62 3.38428 151.67 2.75339 155.73 2.28257C161.69 1.60459 167.66 1.03019 173.65 0.653541C179.72 0.314553 185.81 0.0320635 191.89 0.00381444C195.78 -0.0150183 199.74 0.00381386 203.55 0.841869C205.52 1.2656 207.46 1.76467 209.39 2.31082C216.84 4.34475 223.87 7.92296 229.74 12.7159C234.87 17.0851 239.13 22.3488 242.71 27.9139C245.67 32.6409 248.69 37.3773 250.82 42.4998C252.64 46.9161 253.83 51.5301 255.33 56.0405L255.35 56.0311Z" fill="#E5EBF3"/>
<path d="M250.49 104.053C249.04 110.399 246.42 116.256 246.77 122.876C246.99 126.935 248.02 130.475 250.15 134.129C251.64 136.69 256.44 140.419 251.47 141.182C248.98 141.558 246.23 141.323 243.68 141.323C239.21 141.323 237.57 138.234 235.56 134.647C231.77 127.886 231.03 119.326 233.15 112.029C234.94 105.861 243.49 96.8682 250.5 104.053H250.49Z" fill="#DEB079"/>
<g opacity="0.5" style="mix-blend-mode:multiply">
<path d="M250.49 104.053C249.04 110.399 246.42 116.256 246.77 122.876C246.99 126.935 248.02 130.475 250.15 134.129C251.64 136.69 256.44 140.419 251.47 141.182C248.98 141.558 246.23 141.323 243.68 141.323C239.21 141.323 237.57 138.234 235.56 134.647C231.77 127.886 231.03 119.326 233.15 112.029C234.94 105.861 243.49 96.8682 250.5 104.053H250.49Z" fill="#DEB079"/>
</g>
<path d="M120.778 101.84C115.828 104.467 111.318 106.67 107.458 110.691C105.308 112.932 103.258 115.559 101.828 118.262C99.4181 122.801 97.4881 128.272 99.1881 133.29C100.148 136.125 101.468 136.53 103.938 138.055C107.608 140.324 103.608 141.2 101.048 141.341C97.7881 141.52 94.5681 141.85 91.2581 141.699C87.1881 141.52 87.3881 138.799 86.4981 135.626C85.3381 131.473 84.5381 126.906 84.0081 122.641C83.1881 116.068 81.0881 108.864 84.3781 102.574C89.1781 93.4028 101.028 89.1749 110.858 93.8548C111.818 94.3162 122.808 100.663 120.438 102.763C120.218 102.612 120.208 102.424 120.798 101.84H120.778Z" fill="#DEB079"/>
<g opacity="0.5" style="mix-blend-mode:multiply">
<path d="M120.778 101.84C115.828 104.467 111.318 106.67 107.458 110.691C105.308 112.932 103.258 115.559 101.828 118.262C99.4181 122.801 97.4881 128.272 99.1881 133.29C100.148 136.125 101.468 136.53 103.938 138.055C107.608 140.324 103.608 141.2 101.048 141.341C97.7881 141.52 94.5681 141.85 91.2581 141.699C87.1881 141.52 87.3881 138.799 86.4981 135.626C85.3381 131.473 84.5381 126.906 84.0081 122.641C83.1881 116.068 81.0881 108.864 84.3781 102.574C89.1781 93.4028 101.028 89.1749 110.858 93.8548C111.818 94.3162 122.808 100.663 120.438 102.763C120.218 102.612 120.208 102.424 120.798 101.84H120.778Z" fill="#DEB079"/>
</g>
<path d="M62.9773 73.977C62.9773 73.977 64.5473 62.9034 76.2973 61.0578C88.0473 59.2121 100.207 66.9618 117.057 69.5419C133.907 72.1219 170.747 77.2915 191.907 73.2331C213.067 69.1746 226.397 65.8507 239.327 44.0801C252.257 22.3095 246.777 21.5656 262.447 14.927C278.127 8.28852 283.997 7.17739 292.227 14.1926C300.457 21.2078 303.587 28.2135 314.957 30.0591C326.317 31.9047 331.027 31.1703 334.947 33.3831C338.867 35.5959 336.517 46.3023 326.717 50.3608C316.917 54.4192 300.857 58.1104 288.707 51.4719C276.557 44.8334 274.207 49.2591 274.597 56.6415C274.987 64.0239 276.867 91.642 267.547 103.507C256.967 116.972 240.507 126.756 221.307 127.49C202.107 128.225 166.047 122.32 151.547 118.629C137.047 114.938 99.4273 99.4388 97.0773 100.917C94.7273 102.396 89.6273 110.88 84.1473 114.571C78.6573 118.262 72.3873 119.74 73.1773 125.644C73.9573 131.549 74.4173 135.842 77.6373 136.699C80.8573 137.556 81.8373 139.694 79.5973 140.984C77.3573 142.274 68.3073 142.255 65.0473 141.031C61.7873 139.807 63.7673 130.07 61.8073 126.379C59.8473 122.688 55.1473 118.262 56.3173 110.88C57.4873 103.497 64.1573 101.652 63.3673 93.1675C62.5873 84.6834 62.9773 73.977 62.9773 73.977Z" fill="#DEB079"/>
<path d="M62.9773 73.977C62.9773 73.977 64.5473 62.9034 76.2973 61.0578C88.0473 59.2121 100.207 66.9618 117.057 69.5419C133.907 72.1219 170.747 77.2915 191.907 73.2331C213.067 69.1746 226.397 65.8507 239.327 44.0801C252.257 22.3095 246.777 21.5656 262.447 14.927C278.127 8.28852 283.997 7.17739 292.227 14.1926C300.457 21.2078 303.587 28.2135 314.957 30.0591C326.317 31.9047 331.027 31.1703 334.947 33.3831C338.867 35.5959 336.517 46.3023 326.717 50.3608C316.917 54.4192 300.857 58.1104 288.707 51.4719C276.557 44.8334 274.207 49.2591 274.597 56.6415C274.987 64.0239 276.867 91.642 267.547 103.507C256.967 116.972 240.507 126.756 221.307 127.49C202.107 128.225 166.047 122.32 151.547 118.629C137.047 114.938 99.4273 99.4388 97.0773 100.917C94.7273 102.396 89.6273 110.88 84.1473 114.571C78.6573 118.262 72.3873 119.74 73.1773 125.644C73.9573 131.549 74.4173 135.842 77.6373 136.699C80.8573 137.556 81.8373 139.694 79.5973 140.984C77.3573 142.274 68.3073 142.255 65.0473 141.031C61.7873 139.807 63.7673 130.07 61.8073 126.379C59.8473 122.688 55.1473 118.262 56.3173 110.88C57.4873 103.497 64.1573 101.652 63.3673 93.1675C62.5873 84.6834 62.9773 73.977 62.9773 73.977Z" fill="black"/>
<path d="M219.339 58.2894C212.859 60.408 207.479 69.4383 203.439 74.3442C199.399 79.2501 195.439 83.3086 190.879 87.3388C182.449 94.7871 173.459 99.7778 161.729 100.362C148.599 101.021 135.479 97.5743 128.209 86.5195C124.759 81.2746 124.499 74.815 121.189 69.3724C116.109 61.0201 113.559 56.8769 126.039 54.5228C142.229 51.4719 160.499 53.3364 177.019 53.3081C193.839 53.2704 206.599 55.3515 219.349 58.2894H219.339Z" fill="#6A3925"/>
<path d="M233.638 104.787C232.188 111.134 229.568 116.991 229.918 123.611C230.138 127.669 231.168 131.21 233.298 134.863C234.788 137.424 239.588 141.153 234.618 141.916C232.128 142.293 229.378 142.057 226.828 142.057C222.358 142.057 220.718 138.969 218.708 135.381C214.918 128.62 214.178 120.061 216.298 112.763C218.088 106.595 226.638 97.6026 233.648 104.787H233.638Z" fill="#DEB079"/>
<path d="M76.4978 69.3629C70.9078 67.1595 60.9878 69.8714 55.7778 72.5739C51.7378 74.6643 49.1178 77.3197 45.8678 80.1447C36.9178 87.9226 27.7178 93.3558 16.4078 97.8568C12.0978 99.5706 0.767809 102.395 0.0478086 104.514C-0.842191 107.17 10.9478 103.648 14.2578 102.433C20.5578 100.126 26.7178 98.111 32.7878 95.2956C37.8578 92.9415 43.3478 90.239 48.3078 87.6401C54.8478 84.2219 60.4078 83.77 67.8078 83.478C76.3578 83.1391 74.4178 75.6625 76.4978 69.3629Z" fill="#DEB079"/>
<path d="M326.129 31.4433C327.329 31.2174 332.219 29.7861 333.579 29.5507C336.329 29.061 338.629 30.304 339.649 32.8276C340.469 34.8521 339.649 37.3945 337.939 38.9576C335.149 41.4906 326.379 32.6675 326.129 31.4433Z" fill="#231F20"/>
<path d="M289.286 32.5733C291.517 32.5733 293.326 30.8701 293.326 28.7691C293.326 26.6681 291.517 24.9648 289.286 24.9648C287.055 24.9648 285.246 26.6681 285.246 28.7691C285.246 30.8701 287.055 32.5733 289.286 32.5733Z" fill="#231F20"/>
<path d="M287.677 28.7032C288.163 28.7032 288.557 28.3322 288.557 27.8745C288.557 27.4169 288.163 27.0459 287.677 27.0459C287.191 27.0459 286.797 27.4169 286.797 27.8745C286.797 28.3322 287.191 28.7032 287.677 28.7032Z" fill="white"/>
<path d="M258.719 19.5505C261.709 19.268 265.199 20.3697 267.539 21.9517C270.389 23.882 271.479 27.2342 271.649 30.4452C272.099 38.9858 267.879 46.8014 266.159 55.0689C265.289 59.2592 264.589 64.0239 262.879 67.9411C261.319 71.5193 259.679 75.9638 254.889 76.3781C246.959 77.0655 246.149 69.4665 244.849 63.9862C243.119 56.6885 242.359 49.0236 242.439 41.5282C242.549 32.0836 247.719 19.7294 258.699 19.5505H258.719Z" fill="#6A3925"/>
</svg>
