<svg width="175" height="122" viewBox="0 0 175 122" fill="none" xmlns="http://www.w3.org/2000/svg">
<path d="M69.4416 5.23682C36.1968 6.99903 0.894212 25.7886 2.45229 55.1843C3.2374 69.9969 13.0409 85.3669 35.4702 84.178C54.726 83.1573 61.854 74.7061 70.7241 62.6909C76.9024 54.2223 83.517 50.5557 91.4406 47.3408C101.594 43.0265 110.273 38.3301 109.67 26.9524C108.953 13.4287 93.3 3.97216 69.4282 5.23754L69.4416 5.23682Z" fill="#F9DFD0"/>
<path d="M110.559 54.8882C101.665 60.99 77.182 93.7557 75.1698 109.36C74.4399 114.629 77.5063 118.026 82.993 117.451C95.8638 116.052 112.832 102.714 122.731 92.8437C131.837 83.7732 137.082 76.9784 136.501 69.5786C135.771 61.253 126.26 50.9091 116.904 52.4811C114.663 52.857 112.654 53.5387 110.559 54.8882Z" fill="#FFC7A8"/>
<path d="M109.921 26.3634C112.139 33.6764 113.537 43.4284 110.269 50.4501C106.503 58.6013 99.0594 61.1005 91.1222 65.5816C79.8951 72.0981 77.6179 77.6259 70.0005 86.6174C62.0434 96.1818 52.2939 99.0942 39.9018 99.7511C18.9351 100.862 4.29982 89.4097 2.69381 59.1097L2.59179 52.8689L109.739 25.6016L109.901 26.3645L109.921 26.3634Z" fill="#AD4534"/>
<path d="M68.8622 8.27196C57.2416 8.88793 48.117 11.0228 39.3015 15.0565C37.6368 17.5403 36.3397 20.6138 37.0743 23.4306C37.8936 26.5746 40.5049 28.4934 40.5706 32.1443C40.6611 37.533 36.9345 41.7368 35.3682 44.6824C34.5444 46.4044 34.6317 48.5585 33.4197 50.5717C35.4961 52.1738 38.9081 51.6816 41.2946 51.1356C44.4914 50.3909 46.9596 50.118 49.3861 50.8352C51.5382 51.452 52.7489 52.7143 55.7174 52.2321C59.0598 51.6962 61.788 49.3455 65.988 49.1228C69.5238 48.9354 72.8025 50.2437 78.9877 49.2662C89.5385 44.2066 105.892 40.484 105.212 27.6419C104.581 15.7378 90.7077 7.11399 68.8622 8.27196Z" fill="#C55140"/>
<path d="M79.2953 21.03C73.9236 20.8546 68.6848 24.455 68.8873 28.2746C69.0804 31.9187 72.3531 32.7332 75.5703 32.3732C80.5735 31.817 85.6759 28.0546 85.526 25.2271C85.3579 22.0554 83.0481 21.1289 79.2953 21.03Z" fill="#F9DFD0"/>
<path d="M35.8392 16.228C21.8555 22.7823 10.2172 32.0749 6.30803 45.2754C10.1262 42.7992 10.6143 41.8529 16.2998 40.841C21.7657 39.8745 22.1499 35.699 27.969 35.3026C31.8449 35.1851 34.7959 35.0084 38.4161 32.6036C37.9017 29.6262 34.7469 27.7362 34.509 23.2485C34.3774 20.7651 35.0656 18.5157 35.8392 16.228Z" fill="#C55140"/>
<path d="M33.1306 52.36C31.1234 54.6048 27.4916 57.423 27.7906 63.0647C28.0989 68.8817 25.0696 71.7695 23.4741 73.4038C22.1237 74.8356 21.2649 76.0248 20.8198 77.9094C25.2165 79.6186 29.0582 80.1255 35.2509 79.7972C47.4284 79.1518 55.2279 75.2464 63.0067 66.7607C62.1345 63.7616 61.2456 59.9378 58.2885 58.4772C56.6731 57.7034 56.4759 55.8867 56.3283 54.8794C52.7191 55.2061 52.0145 53.4636 49.2524 53.1431C45.058 52.8376 42.892 54.6239 38.5249 54.2328C36.5839 54.0447 34.7596 53.5188 33.1306 52.36Z" fill="#C55140"/>
<path d="M5.73815 50.0226C4.52549 61.0364 10.5413 73.3656 18.5947 77.1683C19.639 74.1488 20.9519 73.0235 22.2431 71.7437C24.7389 69.3241 25.3984 67.0424 25.3012 63.6842C25.1153 57.2584 29.1874 54.7484 31.2859 51.8152C32.9302 49.4542 32.7979 46.9573 33.5721 44.5545C34.4082 42.304 37.369 38.7567 38.0906 34.2182C35.093 36.0554 33.1461 36.5172 29.5699 36.4496C24.9404 36.695 24.0201 41.2915 17.7815 42.15C11.7374 42.9982 10.4298 44.6037 5.73815 50.0226Z" fill="#C55140"/>
<path d="M126.315 53.8497C130.422 49.3347 128.212 27.9522 133.867 24.7154C137.341 22.474 139.534 25.897 138.839 32.9516L138.455 37.8986C143.199 29.2827 152.225 18.6939 160.4 15.8988C165.687 14.0892 167.186 16.9873 167.02 20.5828C166.527 26.0024 158.848 33.84 153.848 37.7593C158.524 35.9821 161.115 35.1071 165.252 34.9555C170.016 34.845 170.572 37.5834 170.173 39.7092C169.165 43.4169 161.525 47.4019 151.617 49.3617C155.418 50.2295 157.052 51.4963 156.96 53.9442C156.718 56.8737 152.414 58.1711 147.657 58.4232C141.585 58.7451 139.054 58.9808 135.303 60.8173L126.315 53.8497Z" fill="#A8B790"/>
<path d="M131.589 56.8862C134.358 59.9945 136.005 63.7781 136.489 69.2339C137.148 76.5956 131.343 84.6046 122.495 93.1131C112.605 102.895 96.0845 115.532 82.9979 117.431C77.7699 118.188 75.346 115.109 75.3363 110.609C80.5886 113.484 87.4428 110.658 104.107 100.977C100.868 96.3574 100.706 94.4508 102.768 94.7678C104.047 95.0181 106.008 96.8631 107.185 98.7498L119.15 88.7631C115.877 83.3806 109.601 78.577 109.27 76.0162C109.173 74.1941 111.761 74.9029 114.181 76.7642C117.216 78.8094 120.181 81.0547 122.13 85.0794C129.302 77.465 133.724 68.3586 131.589 56.8862Z" fill="#E78652"/>
</svg>
