<svg width="149" height="145" viewBox="0 0 149 145" fill="none" xmlns="http://www.w3.org/2000/svg">
<path d="M145.606 84.2237C143.522 82.0757 141.065 81.9392 137.25 82.837L128.792 84.9252L127.741 80.579L125.275 78.7353L120.293 79.4614L118.029 83.7791L121.431 99.0191L124.411 101.052C128.879 99.9752 138.733 98.0066 144.242 94.8165C148.265 92.4672 148.019 87.0129 145.606 84.2237Z" fill="#A8B790"/>
<path d="M7.62257 81.193C2.87088 80.6369 0.7849 85.5175 0.489312 88.4141C0.1205 91.9483 2.30558 94.8123 8.82626 97.1139C12.6309 98.5 16.7714 99.6122 18.1343 99.9315L21.1382 84.3082L20.1946 83.7233C17.9458 83.2042 11.4041 81.6484 7.62257 81.193Z" fill="#A8B790"/>
<path d="M128.765 84.4636C127.445 77.6082 126.939 75.4429 125.301 71.4839C116.161 63.6154 103.553 59.8851 85.418 58.6757L64.7878 58.4216C50.9383 59.2254 35.3924 61.6295 24.6454 70.2268C22.0887 70.2894 16.1409 71.3687 15.8771 76.0343C15.7433 78.6093 17.643 80.1328 19.7068 81.0349C17.9781 88.7408 16.1293 97.2608 16.0312 109.879C15.8709 130.51 26.6529 143.76 71.411 144.145L74.7407 144.173C112.384 144.497 130.471 137.316 130.676 110.864C130.743 102.268 130.185 92.0274 128.765 84.4636Z" fill="#DEE4D4"/>
<path d="M126.21 71.3687C125.112 71.167 125.987 72.7663 125.089 74.1889C123.375 77.0041 103.237 80.8376 74.7707 80.5929C50.5523 80.3848 28.9992 76.8853 24.5686 75.0323C22.5877 74.2079 23.2215 71.7064 24.8331 70.2745C22.616 70.5631 16.0849 71.5528 15.9138 75.9961C15.7737 79.3785 18.8113 80.8888 22.4063 81.9271C28.8305 83.9509 48.6352 86.9664 72.9728 87.4523C90.7727 87.8206 110.589 85.4609 118.242 83.5273C123.677 82.0821 131.866 80.4991 131.899 76.3314C131.921 73.494 129.052 71.7622 126.21 71.3687Z" fill="#A8B790"/>
<path d="M75.0685 54.2267C67.0058 54.1574 62.4202 55.6637 62.6812 57.2116C63.5082 62.0711 66.7798 63.7218 74.2433 63.786C81.4337 63.8477 85.0812 62.0258 86.5557 57.7475C87.6594 54.3349 85.3785 51.1086 79.8697 50.3692C77.1872 50.0154 75.9734 50.0435 73.2877 50.0973C67.4991 50.2244 63.0318 52.1162 62.6848 56.7503C62.5569 58.564 63.0594 59.2989 63.4754 59.4562L75.0685 54.2267Z" fill="#A8B790"/>
<path opacity="0.7" d="M75.7848 1.11852C69.6933 4.10372 65.5927 11.5201 66.8689 18.106C68.0329 24.491 73.2716 28.7501 74.0789 31.264C75.2174 35.0803 71.6318 38.6868 71.6198 40.2324C71.6016 42.5777 73.8471 43.5198 74.706 43.2965C77.8148 42.4773 82.7805 35.9912 82.8116 31.9926C82.8659 25.0029 75.9405 20.1141 75.4447 15.5881C74.8108 10.292 80.043 6.60731 80.6885 5.53626C82.7008 2.33145 79.5221 -0.541156 75.7848 1.11852Z" fill="#DEE4D4"/>
<path opacity="0.7" d="M52.6163 15.2376C48.2103 17.053 45.6718 22.568 45.8041 27.0139C45.9848 33.0444 52.0692 36.8263 52.4263 39.6824C52.8563 42.9159 49.8066 45.8887 49.9045 47.9274C50.0021 50.0123 52.3338 51.578 53.8571 50.7759C55.1519 50.095 59.2434 43.8551 59.2724 40.1257C59.3184 34.2048 53.2316 30.7382 53.3738 27.079C53.517 23.289 56.6704 21.6166 56.915 19.4194C57.2383 16.8614 55.0873 14.4898 52.6163 15.2376Z" fill="#DEE4D4"/>
<path opacity="0.7" d="M98.8044 16.1808C94.4351 18.1503 91.161 23.6513 91.2679 28.4431C91.3765 33.9808 96.3651 37.2457 96.8362 40.0643C97.5257 44.069 93.6538 46.4581 94.0421 49.1914C94.3153 51.1239 96.3248 52.187 97.6958 51.4606C100.849 49.7959 103.712 44.5451 103.74 40.8926C103.783 35.3639 98.5335 31.5123 98.7115 28.1302C98.8916 24.4867 102.507 21.8955 102.707 20.5438C103.183 17.8794 101.002 15.4614 98.8044 16.1808Z" fill="#DEE4D4"/>
</svg>
