<svg width="20" height="20" viewBox="0 0 20 20" fill="none" xmlns="http://www.w3.org/2000/svg">
<rect width="20" height="20" rx="6" fill="#5182A6"/>
<path d="M5.12562 9.75953C4.7438 10.153 4.45532 10.6272 4.28151 11.1472C4.1077 11.6671 4.053 12.2195 4.12147 12.7635C4.18994 13.3074 4.37981 13.829 4.67705 14.2897C4.9743 14.7504 5.3713 15.1383 5.8387 15.4249C7.02322 16.1822 8.59229 16.1635 9.76433 15.3808C10.7805 14.7056 11.3302 13.6702 11.4127 12.6071C11.4765 11.836 11.7568 11.1141 12.285 10.569L12.3022 10.5513C12.9682 9.86407 12.952 8.8317 12.3064 8.21175L11.7199 7.64337C11.4095 7.34278 10.9925 7.17774 10.5605 7.18451C10.1285 7.19128 9.71683 7.36933 9.41603 7.6795C8.85914 8.25414 8.11741 8.57497 7.30805 8.67518C6.51035 8.7752 5.73427 9.13741 5.12562 9.75953ZM13.1677 5.47374C13.0051 5.14958 13.0514 4.75214 13.3213 4.47954C13.4382 4.35716 13.5882 4.27154 13.753 4.23319C13.9178 4.19484 14.0902 4.20542 14.249 4.26363C14.4079 4.32184 14.5463 4.42516 14.6473 4.5609C14.7483 4.69665 14.8075 4.85892 14.8176 5.02781C14.9867 5.03262 15.1508 5.08669 15.2896 5.18338C15.4285 5.28007 15.5361 5.41518 15.5993 5.57215C15.6624 5.72911 15.6784 5.9011 15.6452 6.06701C15.6121 6.23293 15.5312 6.38555 15.4125 6.50617C15.1484 6.77868 14.7469 6.84331 14.4236 6.69086L12.9994 8.13087C12.916 8.02133 12.8207 7.89448 12.714 7.79114L12.1275 7.22276C12.0032 7.10803 11.885 7.01071 11.732 6.92559L13.1677 5.47374Z" fill="#EEF5FF"/>
</svg>
