<svg width="20" height="20" viewBox="0 0 20 20" fill="none" xmlns="http://www.w3.org/2000/svg">
<rect width="20" height="20" rx="6" fill="#5182A6"/>
<g clip-path="url(#clip0_458_1109)">
<path d="M15.9818 11.6244L11.6389 15.9357C11.6215 15.953 11.5954 15.9616 11.5779 15.953L5.64514 14.3721C5.61899 14.3632 5.60164 14.3459 5.60164 14.3286L4.0033 8.43589C3.99486 8.41011 4.0033 8.39277 4.02074 8.37542L8.36408 4.06414C8.38133 4.0468 8.40749 4.03827 8.42492 4.0468L14.3574 5.6277C14.3835 5.63661 14.4008 5.65395 14.4008 5.6712L15.9906 11.5639C16.008 11.5896 15.9991 11.6071 15.9818 11.6244ZM10.1618 6.93242L4.33349 8.47911C4.32458 8.47911 4.31614 8.49645 4.32458 8.50536L8.58974 12.7387C8.59817 12.7476 8.61599 12.7476 8.61599 12.7303L10.1793 6.94142C10.1882 6.94142 10.1708 6.92408 10.162 6.93261L10.1618 6.93242Z" fill="#EEF5FF"/>
</g>
<defs>
<clipPath id="clip0_458_1109">
<rect width="12" height="12" fill="white" transform="translate(4 4)"/>
</clipPath>
</defs>
</svg>
