<svg width="20" height="20" viewBox="0 0 20 20" fill="none" xmlns="http://www.w3.org/2000/svg">
<rect width="20" height="20" rx="6" fill="#5182A6"/>
<path d="M12.4459 5.71208L12.9818 6.24853L14.1236 5.1072C13.9211 5.07326 13.6939 5.10392 13.4355 5.19041C13.1016 5.30262 12.7612 5.4964 12.4459 5.71208ZM14.8943 5.88506L13.7557 7.02255L14.2878 7.55462C14.5035 7.23987 14.6967 6.90103 14.8083 6.56821C14.8948 6.31148 14.926 6.0865 14.8943 5.88506ZM13.6156 8.43046L12.9812 7.79603L12.1202 8.65709L12.8526 9.38951L13.6156 8.43046ZM12.1651 10.2511L11.3456 9.43056L10.2181 10.5571C10.7632 10.5281 11.3095 10.579 11.8065 10.7011L12.1651 10.2511ZM12.8821 11.1083C13.0736 11.2081 13.2583 11.3204 13.435 11.4444C13.8948 11.7674 14.2703 12.19 14.6666 12.5858L13.6238 12.7593C13.5943 12.7661 13.5651 12.7741 13.5362 12.7834C13.4007 12.8271 13.2681 12.8796 13.1394 12.9405C12.7683 13.1102 12.1859 13.4315 11.3922 14.0271C11.3101 14.0884 11.2143 14.1639 11.1059 14.2482C10.5563 14.6785 9.69585 15.3523 8.77571 15.7191C8.21246 15.9435 7.57368 16.0782 6.92504 15.9506C6.28296 15.8247 5.69508 15.4552 5.19861 14.8011C4.54504 14.3052 4.17556 13.7172 4.04912 13.0751C3.92213 12.4259 4.05624 11.7877 4.28121 11.2244C4.64795 10.3048 5.32122 9.44315 5.75146 8.89411C5.8363 8.78572 5.91184 8.68993 5.97315 8.60782C6.56869 7.81409 6.88946 7.23111 7.05969 6.86052C7.14453 6.6755 7.19106 6.54303 7.21624 6.46366C7.23211 6.4133 7.23868 6.38374 7.24087 6.37607L7.41439 5.33382C7.8085 5.72795 8.23053 6.10237 8.55293 6.56055C8.65693 6.70944 8.77353 6.89282 8.88683 7.10795L11.2707 5.22325C11.7222 4.86197 12.3796 4.38956 13.0879 4.15254C13.8149 3.90894 14.6934 3.88979 15.4033 4.60414C16.1106 5.31576 16.0903 6.1916 15.8467 6.9169C15.6086 7.6236 15.1368 8.27938 14.7761 8.73044H14.775L14.7739 8.73317L12.8821 11.1083ZM11.5684 6.38319L10.6067 7.14243L11.3456 7.88252L12.2072 7.022L11.5684 6.38319ZM10.5711 8.65654L9.74183 7.82613L9.29518 8.17975C9.41943 8.68172 9.47198 9.2335 9.44187 9.78473L10.5711 8.65654Z" fill="#F5F9FF"/>
</svg>
