<svg width="86" height="86" viewBox="0 0 86 86" fill="none" xmlns="http://www.w3.org/2000/svg">
<g clip-path="url(#clip0_490_5782)">
<path d="M30.7578 3.19198C31.7591 3.00024 32.7888 2.87241 33.8363 2.81915L34.0352 6.3344C33.1546 6.38411 32.2598 6.48708 31.3685 6.67527C26.2626 7.85057 22.6408 11.096 22.5165 18.3395C22.3745 26.105 24.8884 35.44 29.0002 45.7585L25.9501 46.9018C21.9058 36.3454 19.2037 26.5595 19.4203 17.8744C19.6724 8.91225 24.2457 4.40634 30.7578 3.19198Z" fill="#F0DBF5"/>
<path d="M57.8518 3.27399C65.7487 3.55805 71.1281 8.77411 71.1636 17.9422C71.1991 26.1515 69.2071 34.684 64.932 46.2843L62.1873 45.3611C66.2103 34.3893 68.2484 25.9243 68.0957 18.1055C67.9324 10.4323 64.3248 6.92061 57.9903 6.30278L57.8518 3.27399Z" fill="#F0DBF5"/>
<path d="M53.0914 -0.0534058L52.6937 -0.0534058C49.6365 -0.0534058 48.6814 2.46763 48.6814 4.29272C48.6814 7.41739 51.1456 8.81283 52.9707 8.81283H53.1731C56.138 8.81283 57.9453 7.2718 57.9453 4.58743C57.9453 2.13031 56.2161 -0.0534058 53.0914 -0.0534058Z" fill="#CFB1E9"/>
<path d="M37.6123 0.0211182L37.2146 0.0211182C34.1574 0.0211182 33.2023 2.31136 33.2023 4.32108C33.2023 7.39959 35.2866 8.79504 37.4987 8.79504H37.7011C40.5062 8.79504 41.9727 6.70719 41.9727 4.66551C41.9727 2.20838 40.2434 0.0211182 37.6123 0.0211182Z" fill="#CFB1E9"/>
<path d="M12.2574 76.1744C16.6994 78.7274 23.4139 81.4509 29.1093 81.4509C37.4856 81.4509 42.9502 76.7887 42.7975 68.5652V68.0361C33.8673 66.7791 28.9069 59.635 24.6993 48.3401C24.1809 46.9375 25.6686 46.1634 27.3268 45.6592C29.0951 45.1195 30.2988 44.9491 30.732 46.9375C33.0613 57.7318 37.6524 62.4117 45.3327 62.4117C53.1231 62.4117 57.5225 58.2893 60.4128 46.5398C60.7679 45.0734 61.9361 45.2828 63.4984 45.8013C65.3483 46.4262 66.3852 46.5469 65.8099 48.3578C62.2237 59.5924 57.1106 66.3069 48.0206 68.1675C48.0206 78.312 42.3252 86.5 29.6277 86.5C23.0056 86.5 16.7669 83.5351 10.4892 80.5987C7.04137 78.9476 8.28769 73.8593 12.2574 76.1744Z" fill="#CFB1E9"/>
<path d="M6.46009 68.702H6.44496C2.77019 68.702 0.449447 71.7374 0.449447 74.9319C0.449447 78.3584 3.21044 81.2876 6.63558 81.2876H6.71576C10.0063 81.236 12.793 78.4979 12.793 75.0168C12.793 71.7237 10.1379 68.702 6.46009 68.702Z" fill="#F0DBF5"/>
</g>
<defs>
<clipPath id="clip0_490_5782">
<rect width="86" height="86" fill="white"/>
</clipPath>
</defs>
</svg>
