<svg width="134" height="87" viewBox="0 0 134 87" fill="none" xmlns="http://www.w3.org/2000/svg">
<path d="M13.5171 48.1736C13.6045 41.4737 16.6342 36.7113 22.8157 34.7864C24.4866 34.2443 26.235 33.8767 27.7918 33.4311C28.2209 33.2978 28.4082 33.0866 28.6185 32.5814C33.4835 21.4036 41.8776 14.9322 55.2245 13.5666C58.511 13.2263 61.5784 12.9826 65.2891 13.0096C70.7022 13.0594 76.6582 13.449 81.7138 15.5607C89.1054 18.765 93.5235 24.7112 98.5568 31.9937C99.3181 33.1921 99.6604 33.2058 100.459 33.3527C104.635 34.1695 109.244 35.0368 113.177 36.9466C118.643 39.6048 122.103 44.1689 122.163 50.0468L122.16 53.2107C122.156 59.1897 118.314 63.1486 111.458 63.3378L111.048 63.3562C110.568 63.3884 110.724 62.9521 110.724 62.5388C110.959 54.1995 104.625 46.6371 95.6198 46.6245C87.427 46.6256 80.0465 52.7341 80.0708 62.6255C80.0703 63.2959 79.9605 63.6036 79.3854 63.5853L54.5468 63.5886C53.958 63.607 53.8578 63.3453 53.9133 62.3626C54.1756 53.7569 47.2982 46.6125 38.8955 46.6136C30.7758 46.5504 23.3953 52.5348 23.3376 62.2701L23.369 63.0278C23.3869 63.4457 23.177 63.3355 22.9671 63.3034C17.4313 62.4546 13.5137 58.4646 13.5184 52.4213L13.5217 48.1736L13.5171 48.1736ZM114.659 50.3784C117.73 51.6408 119.922 49.5787 119.828 47.3745C119.703 44.0544 116.957 41.1479 114.168 41.7085C111.794 42.191 111.095 44.0417 111.399 46.1495C111.694 48.1149 113.158 49.7265 114.659 50.3784ZM67.5697 32.6544C67.5684 34.3535 68.6222 34.9595 69.6446 34.9777L89.4625 34.9751C91.3886 34.9749 92.4442 33.3675 91.7793 31.5216C90.9322 29.097 86.733 23.2702 82.5449 20.8461C78.6854 18.5735 74.0166 18.0323 69.2517 17.8216C68.1654 17.7896 67.5487 18.4097 67.5797 19.6954L67.5697 32.6544ZM40.7484 34.9815L59.5531 34.9469C61.0137 34.8962 61.8133 33.771 61.7868 32.5909L61.7967 19.8661C61.7977 18.5068 61.0681 17.7217 59.612 17.8229C53.0392 18.182 47.4062 19.1792 43.6478 21.7742C39.8301 24.383 37.8649 27.6345 37.1006 30.445C36.3681 33.2003 38.3614 34.8992 40.7484 34.9815Z" fill="url(#paint0_linear_490_5773)"/>
<path d="M95.6684 49.3571C102.423 49.9623 107.339 55.9406 107.334 62.2226C107.329 68.5689 101.783 74.4843 95.5075 74.4851L95.4619 74.4851C88.8027 74.486 83.1886 68.6548 83.1936 62.1799C83.1988 55.4938 88.2744 49.3259 95.6684 49.3571ZM95.513 67.4179C99.2238 67.3209 100.961 63.9363 100.93 62.0122C100.755 58.3432 97.8175 56.1026 95.2843 56.1672C91.2997 56.2183 89.2706 59.5202 89.3234 62.1102C89.4164 65.7839 92.5142 67.4642 95.513 67.4179Z" fill="#86AFCC"/>
<path d="M38.6663 49.3643C45.4212 49.5471 50.8664 55.406 50.8611 62.2482C50.8563 68.5302 45.5298 74.4639 38.8523 74.4648L38.7428 74.4648C32.079 74.4336 26.5471 68.5793 26.5521 62.1045C26.5573 55.4183 31.8793 49.3009 38.6663 49.3643ZM38.6067 67.4435C42.3175 67.3466 44.1959 64.1686 44.1975 62.1021C44.0726 58.254 41.1212 56.1787 38.5834 56.2433C34.6033 56.3449 32.7386 59.6101 32.7868 62.1679C32.8798 65.837 35.891 67.4898 38.6067 67.4435Z" fill="#86AFCC"/>
<defs>
<linearGradient id="paint0_linear_490_5773" x1="67.8588" y1="12.8578" x2="67.8655" y2="63.596" gradientUnits="userSpaceOnUse">
<stop stop-color="#3E88B6"/>
<stop offset="1" stop-color="#4086B3"/>
</linearGradient>
</defs>
</svg>
