<svg width="86" height="86" viewBox="0 0 86 86" fill="none" xmlns="http://www.w3.org/2000/svg">
<path d="M22.7617 61.6781C22.7617 63.902 23.8468 66.3409 26.5444 67.557C29.7156 69.0049 36.6595 69.7507 43.002 69.7608C49.3444 69.7709 56.2614 69.0385 60.3901 67.4059C62.2209 66.6466 63.0373 66.1696 64.1156 63.8113C64.596 62.6725 64.6363 61.6042 64.5557 60.5225L64.3609 59.77L42.9348 57.1866L23.0607 60.3512L22.7617 61.6781Z" fill="#A8B790"/>
<path d="M43.2684 15.957C35.8845 15.9436 30.5095 16.2123 23.6026 16.7532C15.8727 17.1731 5.68704 18.2716 2.33438 23.1494C0.359067 25.6656 1.16196 29.8514 1.5718 32.5221C2.99954 41.2766 5.77438 50.4544 15.6039 57.2404C21.2409 61.0264 28.729 64.369 42.3378 64.4798C55.9433 64.5873 66.6966 60.3109 73.5531 54.8653C79.6067 50.0513 82.4152 45.3952 84.7231 34.2858C85.5259 30.6005 85.7208 26.3879 83.7186 23.5727C81.6056 20.808 74.3426 19.0443 68.4435 17.8316C62.4806 16.6659 54.1292 15.9772 43.2684 15.957Z" fill="#DEE4D4"/>
<path d="M43.1008 18.3287C27.3655 18.3287 7.55859 20.294 7.55859 24.1505C7.55859 27.473 21.8158 31.4404 43.9742 31.4404C57.0388 31.4404 70.1975 28.6924 75.5859 26.8481C77.5008 26.0116 78.6799 25.155 78.5825 24.4394C78.5825 20.7273 67.3084 18.3287 43.0739 18.3287H43.1008Z" fill="#A8B790"/>
</svg>
