<svg width="89" height="58" viewBox="0 0 89 58" fill="none" xmlns="http://www.w3.org/2000/svg">
<path d="M37.2321 8.67561C36.7508 6.02307 36.6679 2.35424 40.8774 0.682669C42.3844 0.0744679 43.9783 0.223576 44.4004 0.251043C48.3613 0.498247 50.5193 3.3823 50.4483 6.45862C50.4246 7.54161 50.3773 7.88299 50.3773 8.78548L47.7183 8.4441C47.8327 7.21593 47.813 6.70582 47.6709 5.50512C47.3987 3.25673 44.0572 3.35091 43.7061 3.40977C41.6467 3.60988 40.262 4.49276 40.1673 6.44685C40.1357 7.18846 40.2225 8.02032 40.3488 8.66384L37.2321 8.67561Z" fill="#EB5F13" stroke="#FFC7A8" stroke-width="0.43" stroke-miterlimit="10"/>
<path d="M2.48633 51.8579C2.48633 30.7043 18.6653 8.77372 43.9103 8.53829C68.4727 8.30678 85.5709 28.4912 85.5709 51.6617V51.854H2.48633V51.8579Z" fill="#FFC7A8" stroke="#FFC7A8" stroke-width="0.43" stroke-miterlimit="10"/>
<path d="M86.0334 51.8187H1.96254C0.589631 51.8187 0.214844 53.3372 0.214844 54.4084C0.214844 56.08 1.07094 57.2061 2.34522 57.2061H85.7849C87.1893 57.2061 87.9941 55.8406 87.9941 54.6635C87.9941 53.2313 87.501 51.8854 86.0452 51.8187H86.0334Z" fill="#EB5F13" stroke="#FFC7A8" stroke-width="0.43" stroke-miterlimit="10"/>
</svg>
