<svg width="58" height="58" viewBox="0 0 58 58" fill="none" xmlns="http://www.w3.org/2000/svg">
<circle cx="29" cy="29" r="29" fill="#F0DBF5"/>
<path d="M13.2225 20.0561L15.4726 16.6592L18.0492 13.0572C19.3375 11.1878 21.2065 11.8033 23.6743 14.8582C24.9626 16.1805 25.7066 17.0468 25.9243 17.4571C26.8861 18.7794 27.7933 19.395 28.6462 19.2582L30.8962 17.4571C32.5112 16.2489 34.1624 15.1318 35.8681 14.0603L38.4448 13.2624C39.7331 13.2624 40.9125 14.0603 41.9831 15.6562L44.5598 19.6458C45.086 21.1048 45.1404 22.5183 44.7231 23.8406C44.088 25.8468 42.4731 29.1752 39.8964 33.8259C35.3963 41.9419 31.5495 46 28.3377 46C27.7934 46 26.9405 45.8632 25.761 45.6124C23.511 44.8145 20.9525 41.5544 18.0492 35.8321C13.9665 27.5794 12.3697 22.3359 13.2225 20.0561Z" fill="#5182A6"/>
</svg>
