<svg width="85" height="123" viewBox="0 0 85 123" fill="none" xmlns="http://www.w3.org/2000/svg">
<path d="M7.31606 104.975C7.34735 104.925 7.6601 104.733 10.4985 103.751C13.026 102.877 17.8182 101.479 21.6813 99.9606C25.5444 98.4425 28.3479 96.9085 31.9625 94.5271C35.5771 92.1458 39.918 88.9638 43.1182 86.2909C46.3185 83.618 48.2467 81.5507 50.5909 78.4495C52.9351 75.3483 55.6368 71.2759 57.5491 67.5692C59.4615 63.8626 60.5026 60.6451 61.77 55.6467C63.0374 50.6483 64.2521 44.1782 65.0604 40.01C66.1424 34.4302 66.2379 31.1619 65.8414 26.9604C65.5878 24.2734 65.0624 20.4831 64.7068 17.9467C64.139 14.2487 63.8307 11.8559 63.6654 9.9043C63.5899 9.14873 63.5312 8.86982 63.3703 8.43539" stroke="#86AFCC" stroke-width="1.5" stroke-linecap="round"/>
<path d="M6.87036 105.278C6.87756 105.259 7.16256 104.547 8.2492 102.267C10.3755 98.26 12.3167 94.2371 13.2454 91.7432C13.5938 90.7688 13.6926 90.3856 14.0531 89.3133" stroke="#86AFCC" stroke-width="1.5" stroke-linecap="round"/>
<path d="M7.20842 105.711C7.2258 105.72 7.24318 105.729 7.86554 106.058C8.4879 106.387 9.71473 107.035 11.8385 108.481C13.9622 109.927 16.9457 112.15 20.6053 114.784" stroke="#86AFCC" stroke-width="1.5" stroke-linecap="round"/>
</svg>
