<svg width="436" height="269" viewBox="0 0 436 269" fill="none" xmlns="http://www.w3.org/2000/svg">
<path fill-rule="evenodd" clip-rule="evenodd" d="M26.9337 27.728C29.3751 14.6071 41.9908 5.94978 55.1117 8.39122C59.9773 9.29662 64.2283 11.6019 67.5279 14.8125C71.8295 4.54086 82.8401 -1.70782 94.2327 0.412029C106.715 2.73477 115.157 14.2665 113.847 26.6806L113.999 26.7093C117.242 14.6541 129.268 6.93075 141.751 9.2535C154.233 11.5763 162.675 23.1078 161.365 35.5221L161.513 35.5489C164.756 23.4948 176.781 15.7726 189.264 18.0953C201.746 20.4182 210.188 31.949 208.877 44.3629L209.03 44.3916C212.272 32.3364 224.298 24.613 236.781 26.9358C249.264 29.2586 257.706 40.7902 256.395 53.2044L256.538 53.2305C259.782 41.177 271.807 33.4556 284.289 35.7781C296.77 38.1006 305.212 49.6302 303.903 62.0436L304.056 62.072C307.3 50.0184 319.324 42.2963 331.806 44.6186C344.288 46.9412 352.73 58.4716 351.421 70.885L351.574 70.9135C354.817 58.8596 366.842 51.1376 379.324 53.4601C391.423 55.7113 399.726 66.6128 399.033 78.5845C403.921 75.6382 409.866 74.401 415.919 75.5272C429.04 77.9686 437.697 90.5843 435.256 103.705C433.286 114.289 424.697 121.967 414.562 123.26C414.611 124.112 414.635 124.961 414.633 125.807C423.319 130.764 428.342 140.834 426.409 151.22C424.521 161.37 416.544 168.847 406.955 170.583L406.38 173.668C414.706 178.736 419.462 188.584 417.573 198.736C415.66 209.02 407.496 216.56 397.738 218.165C397.45 219.03 397.132 219.888 396.784 220.739C405.576 225.661 410.678 235.795 408.733 246.251C406.292 259.372 393.675 268.029 380.554 265.588C374.063 264.38 368.666 260.681 365.163 255.664C360.349 264.758 350.033 270.088 339.384 268.107C329.239 266.219 321.765 258.249 320.024 248.666L316.923 248.09C311.851 256.404 302.01 261.153 291.866 259.265C281.721 257.378 274.247 249.407 272.506 239.825L269.405 239.248C264.333 247.563 254.493 252.312 244.348 250.424C234.203 248.536 226.729 240.566 224.988 230.983L221.897 230.408C216.825 238.722 206.985 243.47 196.841 241.583C186.697 239.695 179.222 231.725 177.48 222.143L174.379 221.567C169.307 229.881 159.467 234.629 149.323 232.741C139.179 230.853 131.704 222.884 129.962 213.301L126.866 212.726C121.794 221.04 111.954 225.788 101.81 223.9C91.6661 222.013 84.1911 214.043 82.4494 204.461L79.3483 203.884C74.2764 212.199 64.4366 216.946 54.2925 215.059C44.3769 213.214 37.0117 205.558 35.0579 196.265C30.4936 198.574 25.1638 199.46 19.7469 198.452C6.62609 196.01 -2.03116 183.395 0.410105 170.274C2.33496 159.929 10.584 152.359 20.4188 150.815C20.3962 149.817 20.4084 148.822 20.4583 147.834C12.1237 142.768 7.3611 132.915 9.25112 122.758C11.1176 112.728 18.9299 105.306 28.3683 103.457L28.9884 100.129C20.8462 95.0092 16.2259 85.2737 18.0924 75.2429C20.0019 64.9813 28.1345 57.4503 37.8649 55.8231C38.1905 54.9639 38.5449 54.1109 38.9297 53.2666C30.1083 48.3551 24.9847 38.2024 26.9337 27.728Z" fill="#FFC7A8"/>
</svg>
