<svg width="495" height="244" viewBox="0 0 495 244" fill="none" xmlns="http://www.w3.org/2000/svg">
<path d="M494.869 75.9697L467.629 66.867L466.278 33.4693L440.901 46.6161L429.287 14.8569L407.572 34.901L391.916 5.35242L372.621 28.6224L354.679 0.927052L337.23 26.1965L317.688 -5.31691e-05L301.771 26.7414L281.007 1.90884L266.455 29.7957L244.675 6.28878L231.433 35.1687L208.711 12.9416L196.781 42.684L173.217 21.848L162.709 52.4652L138.28 33.1872L129.428 64.6359L104.068 47.2856L97.2465 79.5616L70.9045 64.7335L66.8543 97.9274L39.4004 86.9461L39.922 120.79L11.521 117.591L22.2066 149.262L-0.0010483 167.512L27.2712 176.641L28.6163 210.007L53.9995 196.892L65.5873 228.656L87.328 208.607L102.979 238.124L122.273 214.854L140.221 242.581L157.67 217.311L177.212 243.508L193.129 216.767L213.893 241.599L228.439 213.681L250.225 237.219L263.467 208.339L286.163 230.571L298.087 200.797L321.657 221.665L332.165 191.048L356.594 210.326L365.472 178.872L390.806 196.227L397.648 163.915L423.99 178.743L428.046 145.58L455.494 156.53L454.978 122.718L483.347 125.89L472.667 94.2509L494.869 75.9697Z" fill="#CFB1E9"/>
</svg>
