<svg width="27" height="29" viewBox="0 0 27 29" fill="none" xmlns="http://www.w3.org/2000/svg">
<path d="M12.1496 11.3841C10.5727 8.56385 8.97571 5.95221 6.41294 3.91157C4.76378 2.60913 3.36831 2.16561 2.03808 2.385C0.707851 2.60438 -0.154023 3.46644 0.0215108 6.32716C0.25835 10.2413 3.00763 15.2118 6.27305 19.4555C9.00148 23.0522 13.7833 28.3066 16.9303 28.4705C20.104 28.636 22.3883 25.397 24.1948 21.3658C25.7198 17.7641 26.7326 14.1116 26.1865 7.29896C25.8606 3.38054 24.1995 -0.130283 21.3109 0.00376435C18.3856 0.138813 15.3075 4.0267 12.1451 11.3761L12.1496 11.3841Z" fill="white"/>
</svg>
