<svg width="163" height="163" viewBox="0 0 163 163" fill="none" xmlns="http://www.w3.org/2000/svg">
<path d="M140.97 115.189C138.169 107.198 131.639 103.148 125.335 99.2326C119.85 95.823 114.67 92.6012 111.283 86.8166C101.946 70.7936 96.8168 61.125 81.5197 61.125C66.2225 61.125 61.0778 70.7968 51.718 86.8134C48.3275 92.6107 43.1223 95.8389 37.6306 99.2549C31.3271 103.174 24.8103 107.214 21.9992 115.189C20.9054 118.065 20.3549 121.118 20.3756 124.195C20.3756 137.165 30.7063 147.719 42.1513 147.719C53.5964 147.719 68.6739 141.947 81.5515 141.947C94.4291 141.947 109.297 147.719 120.885 147.719C132.473 147.719 142.626 137.165 142.626 124.195C142.635 121.117 142.073 118.063 140.97 115.189Z" fill="#EEF5FF"/>
<path d="M22.9219 91.6875C32.7681 91.6875 40.75 81.425 40.75 68.7656C40.75 56.1062 32.7681 45.8438 22.9219 45.8438C13.0757 45.8438 5.09375 56.1062 5.09375 68.7656C5.09375 81.425 13.0757 91.6875 22.9219 91.6875Z" fill="#EEF5FF"/>
<path d="M58.5781 61.125C68.4243 61.125 76.4062 50.8625 76.4062 38.2031C76.4062 25.5437 68.4243 15.2812 58.5781 15.2812C48.7319 15.2812 40.75 25.5437 40.75 38.2031C40.75 50.8625 48.7319 61.125 58.5781 61.125Z" fill="#EEF5FF"/>
<path d="M104.422 61.125C114.268 61.125 122.25 50.8625 122.25 38.2031C122.25 25.5437 114.268 15.2812 104.422 15.2812C94.5757 15.2812 86.5938 25.5437 86.5938 38.2031C86.5938 50.8625 94.5757 61.125 104.422 61.125Z" fill="#EEF5FF"/>
<path d="M140.078 91.6875C149.924 91.6875 157.906 81.425 157.906 68.7656C157.906 56.1062 149.924 45.8438 140.078 45.8438C130.232 45.8438 122.25 56.1062 122.25 68.7656C122.25 81.425 130.232 91.6875 140.078 91.6875Z" fill="#EEF5FF"/>
<path d="M48.946 124.153C47.722 124.153 46.6793 123.904 45.818 123.405C44.9567 122.906 44.2937 122.198 43.829 121.28C43.3757 120.351 43.149 119.257 43.149 117.999C43.149 116.741 43.3757 115.653 43.829 114.735C44.2937 113.817 44.9567 113.109 45.818 112.61C46.6793 112.111 47.722 111.862 48.946 111.862C49.796 111.862 50.5553 111.987 51.224 112.236C51.8927 112.485 52.4763 112.848 52.975 113.324L52.363 114.735C51.819 114.27 51.2863 113.936 50.765 113.732C50.255 113.528 49.66 113.426 48.98 113.426C47.688 113.426 46.702 113.823 46.022 114.616C45.342 115.409 45.002 116.537 45.002 117.999C45.002 119.461 45.342 120.594 46.022 121.399C46.702 122.192 47.688 122.589 48.98 122.589C49.66 122.589 50.255 122.487 50.765 122.283C51.2863 122.079 51.819 121.739 52.363 121.263L52.975 122.674C52.4763 123.15 51.8927 123.518 51.224 123.779C50.5553 124.028 49.796 124.153 48.946 124.153ZM55.0757 124V115.432H56.5037L59.5977 120.906L62.6917 115.432H64.1197V124H62.6067V117.353H62.9807L60.0057 122.623H59.1897L56.2147 117.353H56.5887V124H55.0757ZM70.4368 124.153C69.5868 124.153 68.8501 123.977 68.2268 123.626C67.6035 123.263 67.1218 122.753 66.7818 122.096C66.4418 121.427 66.2718 120.634 66.2718 119.716C66.2718 118.798 66.4418 118.01 66.7818 117.353C67.1218 116.684 67.6035 116.174 68.2268 115.823C68.8501 115.46 69.5868 115.279 70.4368 115.279C71.2868 115.279 72.0235 115.46 72.6468 115.823C73.2815 116.174 73.7688 116.684 74.1088 117.353C74.4601 118.01 74.6358 118.798 74.6358 119.716C74.6358 120.634 74.4601 121.427 74.1088 122.096C73.7688 122.753 73.2815 123.263 72.6468 123.626C72.0235 123.977 71.2868 124.153 70.4368 124.153ZM70.4368 122.81C71.1848 122.81 71.7798 122.549 72.2218 122.028C72.6638 121.507 72.8848 120.736 72.8848 119.716C72.8848 118.696 72.6638 117.931 72.2218 117.421C71.7798 116.9 71.1848 116.639 70.4368 116.639C69.7001 116.639 69.1108 116.9 68.6688 117.421C68.2268 117.931 68.0058 118.696 68.0058 119.716C68.0058 120.736 68.2211 121.507 68.6518 122.028C69.0938 122.549 69.6888 122.81 70.4368 122.81ZM78.5933 124V116.809H75.5673V115.432H83.3363V116.809H80.2933V124H78.5933ZM84.7775 127.672V117.489C84.7775 117.16 84.7605 116.826 84.7265 116.486C84.7038 116.135 84.6755 115.783 84.6415 115.432H86.3075L86.4775 117.37H86.2905C86.4718 116.724 86.8345 116.214 87.3785 115.84C87.9338 115.466 88.5911 115.279 89.3505 115.279C90.1098 115.279 90.7728 115.46 91.3395 115.823C91.9061 116.174 92.3425 116.679 92.6485 117.336C92.9658 117.993 93.1245 118.787 93.1245 119.716C93.1245 120.634 92.9658 121.427 92.6485 122.096C92.3425 122.765 91.9061 123.275 91.3395 123.626C90.7728 123.977 90.1098 124.153 89.3505 124.153C88.6025 124.153 87.9508 123.972 87.3955 123.609C86.8515 123.235 86.4888 122.731 86.3075 122.096H86.4945V127.672H84.7775ZM88.9255 122.81C89.6735 122.81 90.2685 122.549 90.7105 122.028C91.1638 121.507 91.3905 120.736 91.3905 119.716C91.3905 118.696 91.1638 117.931 90.7105 117.421C90.2685 116.9 89.6735 116.639 88.9255 116.639C88.1775 116.639 87.5768 116.9 87.1235 117.421C86.6815 117.931 86.4605 118.696 86.4605 119.716C86.4605 120.736 86.6815 121.507 87.1235 122.028C87.5768 122.549 88.1775 122.81 88.9255 122.81ZM99.2971 124.153C97.9144 124.153 96.8264 123.762 96.0331 122.98C95.2397 122.198 94.8431 121.116 94.8431 119.733C94.8431 118.838 95.0131 118.056 95.3531 117.387C95.7044 116.718 96.1861 116.203 96.7981 115.84C97.4214 115.466 98.1411 115.279 98.9571 115.279C99.7617 115.279 100.436 115.449 100.98 115.789C101.524 116.129 101.938 116.611 102.221 117.234C102.504 117.846 102.646 118.571 102.646 119.41V119.954H96.1861V118.968H101.473L101.184 119.189C101.184 118.339 100.991 117.682 100.606 117.217C100.232 116.741 99.6881 116.503 98.9741 116.503C98.1807 116.503 97.5687 116.781 97.1381 117.336C96.7074 117.88 96.4921 118.634 96.4921 119.597V119.767C96.4921 120.776 96.7357 121.535 97.2231 122.045C97.7217 122.555 98.4244 122.81 99.3311 122.81C99.8297 122.81 100.294 122.742 100.725 122.606C101.167 122.459 101.586 122.221 101.983 121.892L102.544 123.065C102.147 123.416 101.666 123.688 101.099 123.881C100.532 124.062 99.9317 124.153 99.2971 124.153ZM106.584 124V116.809H103.558V115.432H111.327V116.809H108.284V124H106.584ZM112.7 124V115.432H114.4V118.424H116.831C117.953 118.424 118.797 118.662 119.364 119.138C119.93 119.603 120.214 120.283 120.214 121.178C120.214 121.756 120.083 122.26 119.823 122.691C119.562 123.11 119.177 123.433 118.667 123.66C118.168 123.887 117.556 124 116.831 124H112.7ZM114.4 122.827H116.644C117.278 122.827 117.766 122.697 118.106 122.436C118.446 122.164 118.616 121.75 118.616 121.195C118.616 120.64 118.446 120.237 118.106 119.988C117.777 119.727 117.29 119.597 116.644 119.597H114.4V122.827Z" fill="#5182A6"/>
</svg>
