<svg width="8" height="6" viewBox="0 0 8 6" fill="none" xmlns="http://www.w3.org/2000/svg">
<path d="M6.83417 6H1.20603C1.00503 6 0.844221 5.87279 0.80402 5.66078L0 1.42049C0 1.25088 0.040201 1.08127 0.201005 0.954064C0.361809 0.869258 0.522613 0.869258 0.643216 0.954064L2.29146 2.35336L3.65829 0.190813C3.8191 -0.0636042 4.1809 -0.0636042 4.34171 0.190813L5.70854 2.35336L7.35678 0.954064C7.47739 0.826855 7.67839 0.826855 7.79899 0.954064C7.9598 1.03887 8 1.20848 8 1.42049L7.19598 5.66078C7.19598 5.87279 6.99497 6 6.79397 6H6.83417Z" fill="#BEA36B"/>
</svg>
