<svg width="180" height="169" viewBox="0 0 180 169" fill="none" xmlns="http://www.w3.org/2000/svg">
<path d="M179.587 73.5005C180.39 82.2948 180.122 91.2142 177.893 99.8168C176.048 108.144 173.008 116.272 168.167 123.516C164.967 128.384 161.909 133.469 157.326 137.337C155.329 139.079 153.19 140.671 150.943 142.113C149.392 143.338 147.778 144.522 146.013 145.489C141.752 147.898 137.054 149.499 132.436 151.182C128.237 152.691 124.154 154.142 119.839 155.192C116.005 156.134 112.127 156.901 108.24 157.618C100.868 158.968 93.3968 160.118 85.8547 160.077C76.3959 159.943 66.8479 158.71 58.031 155.384C52.6195 153.391 47.1903 151.382 42.1355 148.673C38.7745 146.931 35.583 144.914 32.4449 142.847C29.7614 141.071 27.0513 139.329 24.5283 137.353C21.1585 134.752 18.4215 131.543 15.8273 128.275C13.2063 124.924 10.5763 121.582 8.26734 118.031C4.54977 112.229 2.41909 105.677 1.1175 99.0582C-0.915128 89.0052 -0.0592884 78.6104 2.74894 68.7657C5.40562 59.2795 9.98794 50.3434 15.5063 42.0409C22.7632 30.8208 32.9263 21.3513 44.8546 14.4659C57.7189 7.05527 72.4465 2.83732 87.3792 1.05344C97.8365 -0.205271 108.499 -0.547043 118.921 1.21183C124.537 2.00373 129.993 3.55421 135.164 5.74654C140.308 7.8055 145.416 10.0645 149.936 13.1905C152.931 15.2494 155.873 17.4084 158.414 19.9675C159.725 21.2763 160.982 22.635 162.221 24.0104C167.213 29.3787 171.207 35.5306 173.81 42.2326C175.674 47.1675 176.877 52.294 177.965 57.4206C179.097 62.7222 179.266 68.1322 179.596 73.5171L179.587 73.5005Z" fill="#E5EBF3"/>
<path d="M167.126 126.001C160.316 126.359 160.046 114.014 164.586 110.822C169.496 107.366 174.326 109.965 177.426 113.628C181.596 118.552 179.326 126.217 175.846 130.907C173.226 134.438 170.156 137.263 166.266 139.589C163.316 141.34 159.566 143.167 156.256 144.005C155.526 141.914 155.486 139.287 155.326 137.112C155.196 135.351 155.976 135.436 157.726 135.05C162.006 134.099 167.056 131.18 169.596 127.686C171.206 125.483 172.536 121.688 171.156 119.089C169.366 115.737 165.846 117.667 165.066 120.643C164.716 121.98 165.206 125.709 167.126 126.01V126.001Z" fill="#61686C"/>
<path d="M55.6247 25.1893C46.6947 19.6148 30.4547 21.5169 28.9847 33.7111C28.4547 38.1179 28.9447 42.8073 28.9447 47.2424C28.9447 51.2632 29.1147 55.0109 30.1347 58.881C30.6747 60.9244 32.0947 64.964 34.6047 65.4536C38.2847 66.1693 41.6247 59.8415 42.8747 57.3932C46.4247 50.4346 50.1947 43.5041 52.4747 36.0746C53.5747 32.4964 54.2347 28.7958 55.6247 25.1799V25.1893Z" fill="#61686C"/>
<path d="M73.0442 20.1234C60.7942 21.5264 54.2242 24.3419 54.2242 24.3419C54.2242 24.3419 44.3642 53.5891 40.4842 64.5591C36.6042 75.5291 30.3342 96.3393 29.4342 112.083C28.5342 127.828 29.7342 131.801 31.8242 139.391C33.9142 146.98 37.2042 154.014 37.2042 154.014C37.2042 154.014 32.1242 154.297 28.8442 156.265C25.5642 158.233 25.8542 159.636 25.8542 159.636C25.8542 159.636 31.8242 160.757 41.0842 160.757C50.3442 160.757 61.0942 161.039 61.0942 161.039C61.0942 161.039 59.3042 166.105 61.6942 167.226C64.0842 168.346 69.7542 168.629 70.9542 168.346C72.1542 168.064 72.1442 161.03 72.1442 161.03C72.1442 161.03 90.6642 160.747 99.0242 160.747C107.384 160.747 117.844 161.03 117.844 161.03C117.844 161.03 116.654 165.248 118.444 166.934C120.234 168.619 126.804 169.467 128.004 167.781C129.204 166.096 129.194 161.312 129.194 161.312L171.604 161.595C171.604 161.595 171.904 155.973 168.024 154.843C164.144 153.723 157.274 152.028 157.274 152.028C157.274 152.028 160.264 134.56 158.464 114.033C156.674 93.505 148.314 68.4763 145.324 61.1598C142.334 53.8433 141.444 36.7903 141.444 36.7903C141.444 36.7903 133.484 30.9804 118.444 26.0086C106.404 22.0255 85.2942 18.6921 73.0442 20.1046V20.1234Z" fill="#E1D9CB"/>
<path d="M140.246 36.2441C143.966 32.6941 151.946 31.9031 155.176 36.2441C158.666 40.9428 159.076 48.7396 159.366 54.2293C159.576 58.1654 159.506 62.252 159.366 66.1975C159.286 68.2126 159.436 73.966 156.786 74.8323C154.136 75.6986 150.776 70.7173 149.616 69.0789C147.646 66.3105 146.566 62.8453 145.396 59.7002C142.596 52.1766 140.466 43.8713 140.266 36.2535L140.246 36.2441Z" fill="#61686C"/>
<path d="M123.316 70.5573C111.566 62.1203 110.406 49.3235 120.476 41.442C125.376 37.6095 133.736 37.2893 139.136 40.1802C147.856 44.8318 152.296 55.011 148.606 64.0695C146.646 68.8907 142.996 71.7532 137.656 72.8078C134.806 73.3728 132.126 73.5141 129.296 72.7137C127.806 72.29 124.606 71.4801 123.316 70.5573Z" fill="white"/>
<path d="M67.3647 63.8058C79.1147 55.3688 80.2747 42.572 70.2047 34.6905C65.3047 30.8581 56.9447 30.5379 51.5447 33.4287C42.8247 38.0804 38.3847 48.2594 42.0747 57.318C44.0347 62.1391 47.6847 65.0017 53.0247 66.0564C55.8747 66.6213 58.5547 66.7626 61.3847 65.9622C62.8747 65.5384 66.0747 64.7286 67.3647 63.8058Z" fill="white"/>
<path d="M63.7031 62.2992C73.0631 55.576 73.9831 45.3875 65.9631 39.1068C62.0631 36.0559 55.4031 35.8016 51.1031 38.0992C44.1631 41.8092 40.6231 49.9073 43.5631 57.1296C45.1231 60.9715 48.0331 63.2502 52.2831 64.0977C54.5531 64.5497 56.6831 64.6533 58.9431 64.0224C60.1331 63.6928 62.6831 63.0337 63.7031 62.2992Z" fill="#231F20"/>
<path d="M50.0744 60.5477C51.7809 60.5477 53.1644 59.245 53.1644 57.6381C53.1644 56.0311 51.7809 54.7284 50.0744 54.7284C48.3678 54.7284 46.9844 56.0311 46.9844 57.6381C46.9844 59.245 48.3678 60.5477 50.0744 60.5477Z" fill="white"/>
<path d="M61.1338 41.9975C61.8462 41.9975 62.4238 41.4537 62.4238 40.7828C62.4238 40.1119 61.8462 39.5681 61.1338 39.5681C60.4213 39.5681 59.8438 40.1119 59.8438 40.7828C59.8438 41.4537 60.4213 41.9975 61.1338 41.9975Z" fill="white"/>
<path d="M101.496 41.6397C93.2556 37.101 84.6455 41.7716 78.0055 46.4703C71.9855 50.7265 68.4455 57.1202 62.0755 61.2634C55.7055 65.4065 48.6655 69.5309 41.9855 73.401C34.3855 77.7985 24.8655 83.3823 24.0555 92.6763C22.7255 107.959 45.6055 112.78 57.5555 115.2C77.1756 119.174 95.8956 120.116 115.966 120.116C127.866 120.116 140.966 120.633 151.276 113.967C161.586 107.3 162.696 91.7629 155.016 82.9869C150.566 77.902 143.856 75.661 137.716 73.0056C131.406 70.2748 124.966 67.3369 118.996 63.9658C114.466 61.414 113.116 58.3631 110.986 53.8715C109.566 50.8677 108.896 45.717 101.506 41.6491L101.496 41.6397Z" fill="#61686C"/>
<path d="M101.496 41.6397C93.2556 37.101 84.6455 41.7716 78.0055 46.4703C71.9855 50.7265 68.4455 57.1202 62.0755 61.2634C55.7055 65.4065 48.6655 69.5309 41.9855 73.401C34.3855 77.7985 24.8655 83.3823 24.0555 92.6763C22.7255 107.959 45.6055 112.78 57.5555 115.2C77.1756 119.174 95.8956 120.116 115.966 120.116C127.866 120.116 140.966 120.633 151.276 113.967C161.586 107.3 162.696 91.7629 155.016 82.9869C150.566 77.902 143.856 75.661 137.716 73.0056C131.406 70.2748 124.966 67.3369 118.996 63.9658C114.466 61.414 113.116 58.3631 110.986 53.8715C109.566 50.8677 108.896 45.717 101.506 41.6491L101.496 41.6397Z" fill="black"/>
<path d="M92.4442 53.2406C84.3042 79.3427 65.6342 101.998 40.6242 115.671C39.5242 116.274 40.3642 117.987 41.4842 117.375C66.9842 103.439 86.2742 80.2843 94.4142 53.5796C94.7742 52.4119 92.8042 52.0918 92.4442 53.2406Z" fill="#D4C8B5"/>
<path d="M91.8532 53.4289C97.1132 68.0242 104.103 81.9133 113.123 94.7949C117.423 100.944 122.143 106.895 128.103 111.716C134.253 116.688 141.443 120.332 148.683 123.684C149.843 124.221 150.523 122.451 149.373 121.914C142.283 118.628 135.273 115.04 129.243 110.172C123.193 105.285 118.473 99.117 114.143 92.8645C105.553 80.4444 98.5532 66.8849 93.7232 52.7698C93.3332 51.621 91.4332 52.2801 91.8532 53.4289Z" fill="#D4C8B5"/>
<path d="M100.567 74.2108C99.7367 78.1563 98.9867 81.2731 98.4367 85.3786C97.6467 91.2261 97.6367 97.2338 97.6367 103.166C97.6367 109.098 98.1567 115.737 99.0767 121.82C99.8667 127.112 101.277 132.978 107.437 134.447C112.407 135.624 115.687 130.709 117.107 126.792C119.107 121.236 119.147 115.379 119.147 109.56C119.147 107.149 119.347 105.031 119.147 102.968C118.577 102.29 117.717 101.151 117.107 100.322C115.067 97.554 113.037 95.1339 111.337 92.4032C107.637 86.4521 103.727 80.8117 100.587 74.2202L100.567 74.2108Z" fill="#E6C4C5"/>
<path d="M97.8069 43.5606C92.8769 42.4683 86.7169 42.6473 82.7869 45.8111C81.2569 47.0447 80.0169 49.3799 82.1069 50.8771C83.4869 51.8564 88.2469 50.7453 88.8569 52.412C89.3869 53.8716 83.7569 54.3141 84.0069 57.0637C84.2569 59.8133 88.4668 61.7342 91.1268 62.5063C94.4868 63.4762 99.9569 62.8735 101.357 59.785C102.027 58.3254 103.137 56.2256 102.027 54.5401C101.157 53.2218 97.6968 52.3838 98.2368 51.6399C99.4768 49.9449 105.107 52.1389 105.597 49.0033C106.047 46.1219 100.507 44.4929 97.8069 43.5701V43.5606Z" fill="#231F20"/>
<path d="M128.225 68.1562C118.865 61.4329 117.945 51.2444 125.965 44.9637C129.865 41.9128 136.525 41.6585 140.825 43.9561C147.765 47.6662 151.305 55.7643 148.365 62.9866C146.805 66.8285 143.895 69.1072 139.645 69.9547C137.375 70.4067 135.245 70.5103 132.985 69.8794C131.795 69.5498 129.245 68.8906 128.225 68.1562Z" fill="#231F20"/>
<path d="M143.246 61.028C145.279 61.028 146.926 59.4765 146.926 57.5627C146.926 55.649 145.279 54.0975 143.246 54.0975C141.214 54.0975 139.566 55.649 139.566 57.5627C139.566 59.4765 141.214 61.028 143.246 61.028Z" fill="white"/>
<path d="M124.716 55.1239C125.428 55.1239 126.006 54.58 126.006 53.9091C126.006 53.2383 125.428 52.6945 124.716 52.6945C124.003 52.6945 123.426 53.2383 123.426 53.9091C123.426 54.58 124.003 55.1239 124.716 55.1239Z" fill="white"/>
</svg>
