<svg width="180" height="164" viewBox="0 0 180 164" fill="none" xmlns="http://www.w3.org/2000/svg">
<path d="M179.587 73.5005C180.39 82.2948 180.122 91.2142 177.893 99.8168C176.048 108.144 173.008 116.272 168.167 123.516C164.967 128.384 161.909 133.469 157.326 137.337C155.329 139.079 153.19 140.671 150.943 142.113C149.392 143.338 147.778 144.522 146.013 145.489C141.752 147.898 137.054 149.499 132.436 151.182C128.237 152.691 124.154 154.142 119.839 155.192C116.005 156.134 112.127 156.901 108.24 157.618C100.868 158.968 93.3968 160.118 85.8547 160.077C76.3959 159.943 66.8479 158.71 58.031 155.384C52.6195 153.391 47.1903 151.382 42.1355 148.673C38.7745 146.931 35.583 144.914 32.4449 142.847C29.7614 141.071 27.0513 139.329 24.5283 137.353C21.1585 134.752 18.4215 131.543 15.8273 128.275C13.2063 124.924 10.5763 121.582 8.26734 118.031C4.54977 112.229 2.41909 105.677 1.1175 99.0582C-0.915128 89.0052 -0.0592884 78.6104 2.74894 68.7657C5.40562 59.2795 9.98794 50.3434 15.5063 42.0409C22.7632 30.8208 32.9263 21.3513 44.8546 14.4659C57.7189 7.05527 72.4465 2.83732 87.3792 1.05344C97.8365 -0.205271 108.499 -0.547043 118.921 1.21183C124.537 2.00373 129.993 3.55421 135.164 5.74654C140.308 7.8055 145.416 10.0645 149.936 13.1905C152.931 15.2494 155.873 17.4084 158.414 19.9675C159.725 21.2763 160.982 22.635 162.221 24.0104C167.213 29.3787 171.207 35.5306 173.81 42.2326C175.674 47.1675 176.877 52.294 177.965 57.4206C179.097 62.7222 179.266 68.1322 179.596 73.5171L179.587 73.5005Z" fill="#E5EBF3"/>
<path d="M74.3828 127.209C74.3828 127.209 68.6084 134.14 66.7703 138.865C64.9322 143.59 63.0047 151.386 63.0047 154.855C63.0047 158.325 63.509 161.396 64.3467 161.947C65.1844 162.498 65.7699 162.812 65.347 163.211C64.9241 163.609 61.9149 163.685 61.248 163.287C60.5811 162.889 59.906 159.588 59.5726 157.697C59.2391 155.805 58.2306 150.368 58.0679 147.297C57.9053 144.226 58.0679 136.743 58.5722 133.588C59.0764 130.433 61.8336 122.951 63.8424 122.323C65.8513 121.695 74.3828 127.209 74.3828 127.209Z" fill="#DEB079"/>
<path d="M127.418 118.149C127.418 118.149 120.96 128.633 119.643 136.077C118.333 143.521 119.261 151.432 119.887 154.534C120.513 157.635 121.156 160.255 121.806 160.676C122.457 161.097 123.278 161.518 122.343 161.878C121.408 162.238 118.911 161.909 118.496 161.74C118.081 161.572 116.902 157.819 115.763 150.842C114.625 143.866 113.535 133.81 114.194 128.005C114.852 122.193 120.635 118.072 120.635 118.072L127.41 118.164L127.418 118.149Z" fill="#DEB079"/>
<path d="M63.4297 102.71C63.4297 102.71 49.815 97.8543 43.4061 87.7682C37.2738 78.1264 36.0701 74.5882 38.3311 67.5042C40.5921 60.4202 44.8538 59.4706 48.3673 59.708C51.8807 59.9454 53.6375 61.1248 53.6375 61.1248C53.6375 61.1248 52.1329 56.8744 45.358 56.1622C38.5832 55.45 32.5566 58.2912 29.2953 65.85C26.0339 73.4088 29.2953 84.9882 35.0698 92.3173C40.8442 99.6463 50.6282 106.263 54.3938 107.443C58.1594 108.622 63.4297 102.717 63.4297 102.717V102.71Z" fill="#E4BE91"/>
<path d="M152.266 43.3957C154.86 44.0237 156.519 45.3179 157.658 46.3518C159.081 47.6384 159.642 49.216 159.943 51.0541C160.57 54.9062 158.984 58.7813 155.836 61.2473C152.127 64.1498 147.093 62.9475 143.661 60.2441C140.261 57.5637 138.407 53.4664 139.464 49.1931C140.977 43.0817 146.979 42.1168 152.266 43.4034V43.3957Z" fill="#231F20"/>
<path d="M122.992 44.0236C122.992 44.0236 109.776 36.7788 101.074 35.99C92.3713 35.2012 85.5151 36.618 83.677 37.4068C81.839 38.1956 81.1233 39.6124 81.1233 39.6124C81.1233 39.6124 87.0198 55.5648 96.6818 61.1171C106.751 66.9068 106.132 65.2909 111.492 64.1881C116.852 63.0853 120.983 57.4104 121.821 50.4796C122.447 45.3026 122.992 44.0236 122.992 44.0236Z" fill="#E4BE91"/>
<path d="M122.988 44.0235C122.988 44.0235 109.772 36.7787 101.07 35.9899C92.3674 35.2011 85.5112 36.6179 83.6731 37.4067C81.8351 38.1955 81.1194 39.6123 81.1194 39.6123C81.1194 39.6123 87.0159 55.5646 96.6779 61.117C106.747 66.9067 106.128 65.2908 111.488 64.188C116.848 63.0852 120.979 57.4103 121.817 50.4795C122.443 45.3024 122.988 44.0235 122.988 44.0235Z" fill="black"/>
<path d="M125.996 61.5152C125.996 61.5152 125.663 53.9564 109.096 46.076C92.5286 38.1955 84.3793 41.6265 84.3793 41.6265C84.3793 41.6265 89.4381 51.0846 96.9286 57.4563C99.5637 59.7002 105.086 65.0151 120.14 62.5338C124.426 61.8292 125.996 61.5076 125.996 61.5076V61.5152Z" fill="#F2D8DE"/>
<path d="M109.855 38.9078C109.855 38.9078 116.378 26.8536 133.449 26.3864C150.512 25.9116 157.791 33.7155 158.8 38.2033C159.8 42.6911 155.287 49.3079 157.547 54.7453C159.808 60.1828 165.331 59.2331 168.088 58.5286C170.845 57.824 171.601 56.6369 171.601 56.6369C171.601 56.6369 173.358 65.1454 171.349 70.3454C169.34 75.5454 166.079 77.9042 159.556 78.8538C153.034 79.8035 147.511 81.9248 145.502 84.2913C143.494 86.6577 142.241 89.9661 140.989 94.6913C139.736 99.4165 138.98 106.033 134.214 112.65C129.448 119.267 121.412 122.338 116.899 127.301C112.385 132.263 110.628 143.13 110.124 147.863C109.619 152.596 109.619 157.789 110.124 159.205C110.628 160.622 112.385 161.801 110.124 162.039C107.863 162.276 106.106 161.801 105.61 158.256C105.114 154.71 105.016 136.843 104.61 134.859C104.024 132.026 102.601 130.839 102.601 130.839C102.601 130.839 95.5737 132.73 89.051 132.73C82.5283 132.73 76.5017 132.018 72.9883 130.839C69.4748 129.659 68.4744 128.472 68.4744 128.472C68.4744 128.472 59.1865 134.614 56.6815 138.16C54.1765 141.706 51.9155 150.682 51.6634 153.99C51.4113 157.298 52.1676 161.082 52.1676 161.082C52.1676 161.082 55.429 162.498 53.4202 162.973C51.4113 163.448 48.6542 161.794 47.6457 160.14C46.6372 158.485 44.6365 147.381 45.8889 141.231C47.1414 135.089 51.9155 132.018 51.4113 128.472C50.907 124.927 47.1414 122.33 50.1588 111.218C53.1762 100.106 59.6988 100.581 63.7084 98.9264C67.7262 97.2722 89.8074 94.4386 98.8432 83.8011C107.879 73.1637 107.375 55.6796 107.627 49.5376C107.879 43.3956 109.888 38.9002 109.888 38.9002L109.855 38.9078Z" fill="#E4BE91"/>
<path d="M165.833 57.3492C168.151 55.1283 172.372 54.8603 172.852 58.498C173.039 59.9607 173.128 62.0438 172.624 63.3764C171.713 65.7964 169.534 63.2002 168.493 62.1817C167.687 61.3929 164.532 58.2759 165.833 57.3416V57.3492Z" fill="#231F20"/>
<path d="M144.492 45.5247C147.087 46.1526 148.746 47.4469 149.884 48.4808C151.308 49.7674 151.869 51.345 152.17 53.183C152.796 57.0352 151.21 60.9103 148.063 63.3763C144.354 66.2788 139.32 65.0764 135.887 62.373C132.455 59.6696 130.634 55.5954 131.691 51.322C133.204 45.2107 139.206 44.2457 144.492 45.5323V45.5247Z" fill="#231F20"/>
<path d="M136.709 53.5583C135.092 53.5583 133.781 52.3239 133.781 50.8013C133.781 49.2786 135.092 48.0443 136.709 48.0443C138.326 48.0443 139.637 49.2786 139.637 50.8013C139.637 52.3239 138.326 53.5583 136.709 53.5583Z" fill="white"/>
<path d="M147.077 61.5919C146.291 61.5919 145.653 60.9919 145.653 60.2517C145.653 59.5115 146.291 58.9115 147.077 58.9115C147.863 58.9115 148.5 59.5115 148.5 60.2517C148.5 60.9919 147.863 61.5919 147.077 61.5919Z" fill="white"/>
</svg>
