<svg width="195" height="176" viewBox="0 0 195 176" fill="none" xmlns="http://www.w3.org/2000/svg">
<path d="M180.824 63.7556C182.484 70.7802 182.684 78.0213 182.684 85.1872C182.634 92.3059 181.744 99.4341 179.924 106.346C178.974 109.811 177.824 113.21 176.694 116.619C175.034 121.497 173.074 126.299 170.664 130.894C167.284 137.128 162.524 142.721 156.674 147.053C149.434 152.42 142.814 158.343 133.854 161.309C129.384 162.608 124.884 163.851 120.364 165.019C112.064 166.902 103.494 167.354 94.9739 167.335C89.1839 167.298 83.3939 167.062 77.6039 167.109C73.8039 167.138 69.9939 167.072 66.2039 166.705C60.6039 166.177 55.2139 164.539 49.9339 162.787C43.6439 160.735 37.7639 157.599 32.5039 153.785C25.9039 148.587 20.1939 142.335 15.5539 135.508C10.5539 127.787 5.86392 119.717 3.30392 110.95C0.923921 102.155 -0.13608 93.0122 0.0139202 83.9348C0.20392 77.607 1.42392 71.3357 3.19392 65.2434C5.04392 59.0286 7.70392 53.0586 11.0239 47.4182C14.7439 40.8739 19.0839 34.5932 24.3639 29.0658C30.2239 23.1617 36.7539 17.7756 44.0239 13.4723C48.1439 11.0429 52.6139 9.20669 57.1339 7.56825C63.5739 5.17649 70.3439 3.42506 77.1239 2.19152C88.5139 -0.0966522 100.314 -0.755815 111.834 0.995626C116.954 1.6736 122.154 1.92786 127.184 3.10491C129.594 3.66047 131.924 4.47969 134.254 5.25183C137.904 6.44771 141.484 7.84132 144.804 9.71517C153.134 14.3951 159.124 21.7775 164.284 29.3483C167.524 33.8681 170.534 38.5386 173.254 43.3598C176.934 49.7158 179.214 56.6839 180.824 63.7367V63.7556Z" fill="#E5EBF3"/>
<path d="M34.3739 43.2958C30.7639 40.179 28.504 35.5838 25.484 31.9868C23.704 29.8587 21.944 27.5517 20.294 25.4236C18.514 29.0865 17.8139 34.5104 17.8239 38.4841C17.8239 42.4766 17.6139 46.262 17.6639 50.2545C17.6939 53.0417 18.354 56.0173 18.994 58.7009C19.094 59.1247 19.2239 60.6124 19.6239 60.9326C20.7439 61.846 24.174 58.8704 25.054 58.249C28.714 55.6689 30.9839 52.5238 32.8239 48.6348C33.4639 47.2789 34.5039 45.6028 34.3839 44.0867C34.5339 44.0397 34.6939 44.0303 34.3739 43.2958Z" fill="#886051"/>
<path d="M34.3739 43.2958C30.7639 40.179 28.504 35.5838 25.484 31.9868C23.704 29.8587 21.944 27.5517 20.294 25.4236C18.514 29.0865 17.8139 34.5104 17.8239 38.4841C17.8239 42.4766 17.6139 46.262 17.6639 50.2545C17.6939 53.0417 18.354 56.0173 18.994 58.7009C19.094 59.1247 19.2239 60.6124 19.6239 60.9326C20.7439 61.846 24.174 58.8704 25.054 58.249C28.714 55.6689 30.9839 52.5238 32.8239 48.6348C33.4639 47.2789 34.5039 45.6028 34.3839 44.0867C34.5339 44.0397 34.6939 44.0303 34.3739 43.2958Z" fill="black"/>
<path d="M35.1843 51.5445C31.9843 48.1829 29.0144 44.8401 26.5744 41.0077C25.3344 39.0679 23.5644 37.0527 22.8044 34.9058C21.2444 36.0923 21.6344 40.1508 21.5544 41.8928C21.3844 45.1697 22.0543 48.2017 22.5043 51.4786C22.8143 53.7103 22.6644 58.6633 24.2944 60.4712C25.7644 62.1097 29.3243 57.9477 30.4743 56.733C31.4844 55.6501 34.1943 51.4692 35.1843 51.5445Z" fill="#F2D8DE"/>
<path d="M74.7754 42.8344C78.3854 39.7176 80.6454 35.1224 83.6654 31.5253C85.4454 29.3972 87.2054 27.0902 88.8554 24.9621C90.6354 28.6251 91.3354 34.0489 91.3254 38.0226C91.3154 41.9963 91.5354 45.8005 91.4854 49.793C91.4554 52.5802 90.7954 55.5558 90.1554 58.2395C90.0554 58.6632 89.9254 60.151 89.5254 60.4712C88.4054 61.3845 84.9754 58.409 84.0954 57.7875C80.4354 55.2074 78.1654 52.0624 76.3254 48.1734C75.6854 46.8175 74.6454 45.1413 74.7654 43.6253C74.6154 43.5782 74.4554 43.5688 74.7754 42.8344Z" fill="#886051"/>
<path d="M74.7754 42.8344C78.3854 39.7176 80.6454 35.1224 83.6654 31.5253C85.4454 29.3972 87.2054 27.0902 88.8554 24.9621C90.6354 28.6251 91.3354 34.0489 91.3254 38.0226C91.3154 41.9963 91.5354 45.8005 91.4854 49.793C91.4554 52.5802 90.7954 55.5558 90.1554 58.2395C90.0554 58.6632 89.9254 60.151 89.5254 60.4712C88.4054 61.3845 84.9754 58.409 84.0954 57.7875C80.4354 55.2074 78.1654 52.0624 76.3254 48.1734C75.6854 46.8175 74.6454 45.1413 74.7654 43.6253C74.6154 43.5782 74.4554 43.5688 74.7754 42.8344Z" fill="black"/>
<path d="M73.9648 51.0925C77.1648 47.7308 80.1348 44.388 82.5748 40.5556C83.8148 38.6158 85.5848 36.6007 86.3448 34.4538C87.9048 35.6403 87.5148 39.6987 87.5948 41.4407C87.7648 44.7176 87.0948 47.7497 86.6448 51.0265C86.3348 53.2582 86.4849 58.2113 84.8549 60.0192C83.3849 61.6576 79.8249 57.4956 78.6749 56.2809C77.6649 55.198 74.9548 51.0171 73.9648 51.0925Z" fill="#F2D8DE"/>
<path d="M52.545 34.2843C20.555 34.2843 10.955 73.2962 11.005 97.2608C11.035 112.195 11.795 128.533 16.205 142.94C18.005 148.806 19.205 154.644 18.305 160.812C17.585 165.689 14.515 168.411 11.975 172.196C10.775 173.985 10.245 173.891 13.015 175.096C15.735 176.273 19.865 175.944 22.715 175.482C31.025 174.136 38.445 172.94 47.105 173.326C61.685 173.976 76.245 174.814 90.845 175.454C101.285 175.916 111.835 173.948 122.335 173.957C130.475 173.957 138.535 173.335 146.665 173.345C154.175 173.345 161.645 173.044 169.155 173.044C174.765 173.044 181.085 173.684 186.545 172.13C197.345 169.051 194.165 152.488 191.775 144.908C188.425 134.286 183.965 122.384 174.135 115.576C169.485 112.355 165.855 110.406 160.635 108.052C155.565 105.764 150.685 103.777 144.115 101.479C132.935 97.5716 122.095 92.5527 110.675 89.304C108.275 88.626 104.515 88.0893 102.775 86.0554C100.405 83.2775 99.365 77.8726 98.005 74.5016C92.105 59.9156 82.155 38.5311 64.265 34.3597C61.775 33.7758 58.735 33.5875 52.555 34.3032L52.545 34.2843Z" fill="#DEB079"/>
<path d="M55.4632 74.9253C53.7832 70.9045 44.7732 71.1493 40.9332 71.7897C34.2132 72.9196 27.8332 78.56 24.9532 84.2286C20.9532 92.1007 21.3832 101.847 21.7032 110.406C22.0232 118.966 24.7132 128.307 27.6232 136.725C29.1732 141.226 31.3432 145.651 33.1532 150.03C34.5232 153.345 36.3432 158.1 39.8132 159.832C40.1832 158.947 40.3332 157.864 40.2532 156.857C42.2832 156.857 44.0232 158.9 45.6532 159.823C45.9732 158.703 46.0132 157.365 46.4132 156.245C48.6332 156.245 50.5632 157.996 52.7932 158.298C54.5532 154.343 51.7532 148.74 50.5832 144.945C48.1232 136.923 44.9032 129.408 43.5232 121.103C41.3732 108.156 44.2932 97.9765 51.7032 87.2513C52.8832 85.5375 60.1332 75.6504 55.4532 74.9065L55.4632 74.9253Z" fill="#886051"/>
<path d="M56.3552 75.6786C57.7152 71.5543 66.7152 71.1588 70.5952 71.5354C77.3852 72.1946 84.1952 77.3735 87.5152 82.8256C92.1252 90.3963 92.4652 100.142 92.8152 108.702C93.1852 117.581 91.2252 126.762 88.9952 135.359C87.8052 139.964 85.9952 144.521 84.5252 149.023C83.4152 152.431 81.9752 157.29 78.6552 159.268C78.2152 158.411 77.9752 157.347 77.9852 156.33C75.9652 156.471 74.3852 158.637 72.8352 159.672C72.4252 158.58 72.2852 157.252 71.7952 156.151C69.5752 156.301 67.7952 158.194 65.5952 158.646C63.5352 154.823 65.8752 149.041 66.7452 145.171C68.5652 137.007 71.1852 129.276 71.9052 120.905C73.0252 107.845 69.3152 97.9012 61.0752 87.7127C59.7652 86.0931 51.7452 76.7333 56.3652 75.6692L56.3552 75.6786Z" fill="#886051"/>
<path d="M57.4161 72.1757C55.3761 72.317 52.0061 72.0533 50.4361 73.6258C48.8661 75.1983 50.2961 77.5996 51.5461 78.9084C52.6761 80.0949 54.9261 82.0346 56.7761 81.4696C58.6261 80.9047 61.1161 77.7596 62.0161 76.1494C64.0261 72.5618 60.7361 73.1362 57.4261 72.1757H57.4161Z" fill="#231F20"/>
<path d="M45.4044 66.9214C47.4312 66.9214 49.0744 65.3742 49.0744 63.4656C49.0744 61.557 47.4312 60.0098 45.4044 60.0098C43.3775 60.0098 41.7344 61.557 41.7344 63.4656C41.7344 65.3742 43.3775 66.9214 45.4044 66.9214Z" fill="#231F20"/>
<path d="M45.4039 64.5485C46.039 64.5485 46.5539 64.0637 46.5539 63.4656C46.5539 62.8675 46.039 62.3828 45.4039 62.3828C44.7688 62.3828 44.2539 62.8675 44.2539 63.4656C44.2539 64.0637 44.7688 64.5485 45.4039 64.5485Z" fill="white"/>
<path d="M64.0645 66.3093C66.0914 66.3093 67.7345 64.7621 67.7345 62.8535C67.7345 60.945 66.0914 59.3977 64.0645 59.3977C62.0377 59.3977 60.3945 60.945 60.3945 62.8535C60.3945 64.7621 62.0377 66.3093 64.0645 66.3093Z" fill="#231F20"/>
<path d="M64.0641 63.9364C64.6992 63.9364 65.2141 63.4516 65.2141 62.8535C65.2141 62.2555 64.6992 61.7706 64.0641 61.7706C63.429 61.7706 62.9141 62.2555 62.9141 62.8535C62.9141 63.4516 63.429 63.9364 64.0641 63.9364Z" fill="white"/>
<path d="M48.1647 41.921C49.5147 38.8607 47.9147 34.0772 46.9847 31.0357C46.1247 28.2296 44.6247 26.0168 43.3847 23.4179C40.4047 17.1749 36.2947 12.2218 31.8047 6.92044C38.5747 4.98068 47.7947 12.0147 50.4747 17.6268C51.3247 15.2162 51.8447 11.7699 53.6247 9.68885C55.5947 12.4102 55.9047 15.6588 56.8647 18.7003C58.6147 15.3575 65.9747 10.847 70.0447 11.073C70.1747 12.6926 67.8447 14.5288 66.8347 15.6588C64.2047 18.5873 62.4047 21.9113 60.4147 25.2258C57.5647 29.9811 56.2247 34.6986 55.9047 40.0942C55.8147 41.6197 56.1647 43.9078 53.9447 43.9172C52.0347 43.9267 50.5747 42.3447 48.1447 41.921H48.1647Z" fill="#DEB079"/>
<path d="M50.4035 35.6026C48.9335 35.1977 47.5135 33.3239 46.2135 32.4576C44.8035 31.5159 43.3036 30.7156 41.8336 29.821C39.4036 28.352 36.5336 26.1675 33.6736 25.9415C31.6536 30.2447 32.0035 35.9604 32.5035 40.6215C33.2735 47.8439 42.3235 41.9493 45.8835 39.5481C47.3335 38.5688 50.2735 37.2599 50.4035 35.5932V35.6026Z" fill="#CFB1E9"/>
<path d="M55.543 34.887C57.013 34.4821 58.433 32.6082 59.733 31.7419C61.143 30.8003 62.643 29.9999 64.113 29.1054C66.543 27.6364 69.4129 25.4518 72.2729 25.2258C74.2929 29.5291 73.943 35.2448 73.443 39.9059C72.673 47.1282 63.623 41.2336 60.063 38.8325C58.613 37.8532 55.673 36.5443 55.543 34.8776V34.887Z" fill="#CFB1E9"/>
<path d="M58.4031 35.7816C58.8131 31.8644 52.7331 29.821 49.6831 31.8738C45.1531 34.9152 50.0831 39.2844 54.1031 39.0114C55.3731 38.9266 59.9431 37.5613 58.4031 35.7816Z" fill="#CFB1E9"/>
</svg>
