<svg width="174" height="99" viewBox="0 0 174 99" fill="none" xmlns="http://www.w3.org/2000/svg">
<path d="M0.12111 56.0089C0.283354 45.3406 5.1243 37.7676 14.9741 34.7238C17.6367 33.8664 20.422 33.2871 22.9025 32.5828C23.5863 32.3722 23.8852 32.0364 24.2219 31.2327C32.0074 13.4504 45.3962 3.17465 66.6539 1.04627C71.8884 0.515839 76.7736 0.138253 82.6823 0.194184C91.3018 0.292209 100.785 0.933108 108.828 4.3132C120.587 9.4412 127.601 18.925 135.591 30.5387C136.799 32.4496 137.344 32.4727 138.615 32.7093C145.262 34.0244 152.598 35.4214 158.854 38.4761C167.549 42.7277 173.044 50.0074 173.118 59.3673L173.103 64.4055C173.075 73.9261 166.944 80.2168 156.027 80.4944L155.372 80.5223C154.609 80.5719 154.858 79.8777 154.86 79.2196C155.263 65.9413 145.203 53.8773 130.864 53.8261C117.818 53.7995 106.044 63.5009 106.049 79.2516C106.045 80.3192 105.87 80.8088 104.954 80.7777L65.4019 80.697C64.4643 80.7243 64.3056 80.3072 64.3974 78.7425C64.8448 65.0401 53.9183 53.6398 40.538 53.6125C27.6087 53.4838 15.8357 62.9877 15.7101 78.4896L15.7574 79.6962C15.7845 80.3617 15.4507 80.1856 15.1166 80.1337C6.30456 78.7629 0.0801232 72.3958 0.108458 62.7728L0.128373 56.009L0.12111 56.0089ZM161.168 59.8694C166.053 61.8903 169.551 58.6142 169.409 55.104C169.221 49.8168 164.859 45.1792 160.416 46.0622C156.635 46.8223 155.514 49.7669 155.991 53.1242C156.454 56.2548 158.78 58.8262 161.168 59.8694ZM86.246 31.4836C86.238 34.1892 87.914 35.1578 89.542 35.1904L121.099 35.2548C124.166 35.2611 125.853 32.7052 124.8 29.7635C123.46 25.8998 116.793 16.6069 110.133 12.7324C103.995 9.10023 96.5623 8.2222 88.9756 7.87035C87.2459 7.81564 86.2619 8.80079 86.3067 10.8483L86.246 31.4836ZM43.5288 35.0965L73.4728 35.1064C75.7987 35.0307 77.0759 33.2418 77.0378 31.3625L77.0975 11.1001C77.1038 8.93567 75.9447 7.68289 73.6257 7.83903C63.1582 8.38803 54.185 9.9565 48.1913 14.0757C42.1031 18.2167 38.9626 23.3874 37.7357 27.8601C36.56 32.2451 39.7281 34.9571 43.5288 35.0965Z" fill="url(#paint0_linear_458_855)"/>
<path d="M130.929 58.1773C141.682 59.1645 149.489 68.7011 149.46 78.7043C149.43 88.8099 140.579 98.2101 130.585 98.1897L130.513 98.1896C119.909 98.1679 110.989 88.8631 111.02 78.5527C111.051 67.906 119.155 58.1021 130.929 58.1773ZM130.619 86.9361C136.528 86.7946 139.306 81.4111 139.264 78.3471C138.997 72.504 134.327 68.9261 130.293 69.0202C123.948 69.0877 120.706 74.3387 120.781 78.463C120.916 84.3131 125.843 86.9995 130.619 86.9361Z" fill="#86AFCC"/>
<path d="M40.1597 57.9921C50.9154 58.3066 59.5658 67.6548 59.5337 78.5501C59.5043 88.5533 51.0021 97.9835 40.3691 97.9618L40.1947 97.9614C29.5837 97.8886 20.7951 88.5474 20.8255 78.2371C20.8568 67.5904 29.3527 57.8677 40.1597 57.9921ZM40.0023 86.7805C45.9116 86.639 48.9136 81.5849 48.9233 78.2944C48.7378 72.1663 44.0452 68.8515 40.0039 68.9457C33.6658 69.0936 30.6852 74.2866 30.7532 78.3597C30.8886 84.2025 35.6777 86.8448 40.0023 86.7805Z" fill="#86AFCC"/>
<defs>
<linearGradient id="paint0_linear_458_855" x1="86.7749" y1="-0.0387713" x2="86.61" y2="80.7549" gradientUnits="userSpaceOnUse">
<stop stop-color="#3E88B6"/>
<stop offset="1" stop-color="#4086B3"/>
</linearGradient>
</defs>
</svg>
