<svg width="159" height="159" viewBox="0 0 159 159" fill="none" xmlns="http://www.w3.org/2000/svg">
<path d="M79.7423 135.313C42.7488 135.69 3.30123 128.223 3.12095 110.552C3.0672 105.284 7.31844 88.61 11.5048 74.1916C14.6665 63.3823 28.86 60.9138 42.5512 57.8412C43.0336 57.7232 43.5099 57.6242 43.9738 57.5441C46.6382 57.0773 47.4825 59.8069 47.4941 60.9498C47.5129 62.7897 46.2716 64.2343 43.7892 64.693C32.3132 66.9705 23.6817 69.8219 23.726 74.1611C23.7856 80.0012 43.0086 85.4386 78.2564 85.079C111.438 84.7405 133.494 78.5303 133.438 73.0419C133.399 69.205 126.87 67.0107 114.227 64.4391C111.66 64.0006 110.752 63.0615 110.731 60.9766C110.71 58.9671 112.275 57.1801 114.894 57.1785C127.584 59.3979 141.993 62.68 146.008 70.8788C150.851 80.8214 156.039 99.9486 156.491 108.567C157.356 124.403 128.372 134.817 79.7674 135.312L79.7423 135.313Z" fill="#CFB1E9"/>
<path d="M78.8141 44.3326C70.4324 43.9722 63.3727 53.7599 59.7024 60.8878C58.0454 64.07 57.0832 67.019 57.789 70.9496C58.7867 76.4033 63.4721 78.8928 67.9716 77.9299C72.1514 77.0332 75.1324 74.9805 78.894 74.9421C82.6555 74.9037 86.4596 77.8041 91.7288 77.8069C97.4564 77.805 100.462 72.6496 100.178 68.1934C99.6709 60.3293 88.905 44.7949 78.8141 44.3326Z" fill="#F0DBF5"/>
<path d="M69.3619 22.6614C63.9088 21.26 60.9943 26.1381 60.4933 30.5897C59.7662 36.89 63.649 42.5843 68.6731 42.5645C73.9296 42.5548 76.4409 37.5489 76.3949 33.0338C76.3503 28.6632 73.5689 23.8117 69.3619 22.6614Z" fill="#F0DBF5"/>
<path d="M90.0186 22.2373C84.4654 22.0992 80.3963 28.308 80.4929 33.4695C80.5901 38.6937 83.7557 42.4108 87.8123 42.3694C93.3322 42.3131 96.6455 36.5139 96.5932 31.3834C96.5466 26.8118 93.7627 22.3372 90.0186 22.2373Z" fill="#F0DBF5"/>
<path d="M51.6921 37.0982C46.5342 37.5465 44.4771 42.1332 44.6158 45.2594C44.7216 51.3189 49.4282 55.8869 54.0563 55.8397C58.4018 55.7953 61.0613 51.7739 60.9452 47.7808C60.7834 42.3877 56.2167 36.7568 51.6921 37.0982Z" fill="#F0DBF5"/>
<path d="M105.238 36.5522C99.756 37.2173 95.9437 43.3669 96.187 48.1249C96.3936 52.3746 99.3145 55.5038 103.163 55.3389C108.649 55.1008 112.351 49.2161 112.303 44.4624C112.258 40.0917 109.184 36.0786 105.238 36.5522Z" fill="#F0DBF5"/>
</svg>
